SplineFontDB: 3.2
FontName: LibertinusSerifInitials-Regular
FullName: Libertinus Serif Initials Regular
FamilyName: Libertinus Serif Initials
Weight: Regular
UComments: "2003-08-29: Created.+AAoA-2004-07-25: v(1.0) release candidate+AAoA-2005-12-28: v(1.1.0) stable+AAoA-2006-01-01: v(2.0.0) stable+AAoA-2006-09-05: v(2.2.0) stable+AAoA-2006-12-04: v(2.3.0) stable+AAoA-2007-03-11: v(2.4.0) stable+AAoA-2007-12-00: v(2.7.0) stable+AAoA-2008-06-00: v(2.8.14) stable+AAoA"
Version: 5.0.6
ItalicAngle: 0
UnderlinePosition: -98
UnderlineWidth: 40
Ascent: 754
Descent: 246
InvalidEm: 0
LayerCount: 2
Layer: 0 0 "Back" 1
Layer: 1 0 "Fore" 0
XUID: [1021 993 1524925707 2876416]
FSType: 0
OS2Version: 0
OS2_WeightWidthSlopeOnly: 0
OS2_UseTypoMetrics: 1
CreationTime: 1156455862
PfmFamily: 17
TTFWeight: 400
TTFWidth: 5
LineGap: 0
VLineGap: 0
OS2TypoAscent: 894
OS2TypoAOffset: 0
OS2TypoDescent: -246
OS2TypoDOffset: 0
OS2TypoLinegap: 0
OS2WinAscent: 894
OS2WinAOffset: 0
OS2WinDescent: 246
OS2WinDOffset: 0
HheadAscent: 894
HheadAOffset: 0
HheadDescent: -246
HheadDOffset: 0
OS2CapHeight: 688
OS2FamilyClass: 261
OS2Vendor: 'QUE '
Lookup: 257 0 0 "'cpsp' Capital Spacing lookup 0" { "'cpsp' Capital Spacing lookup 0 subtable"  } ['cpsp' ('DFLT' <'dflt' > 'cyrl' <'dflt' > 'grek' <'dflt' > 'latn' <'AZE ' 'CRT ' 'TRK ' 'dflt' > ) ]
Lookup: 260 0 0 "'mark' Mark Positioning lookup 1" { "'mark' Mark Positioning lookup 1 subtable"  } ['mark' ('DFLT' <'dflt' > 'cyrl' <'dflt' > 'grek' <'dflt' > 'hebr' <'dflt' > 'latn' <'AZE ' 'CRT ' 'TRK ' 'dflt' > ) ]
Lookup: 258 0 0 "'kern' Horizontal Kerning lookup 2" { "'kern' Kerning 1" [150,0,0] } ['kern' ('DFLT' <'dflt' > 'cyrl' <'dflt' > 'grek' <'dflt' > 'latn' <'AZE ' 'CRT ' 'TRK ' 'dflt' > ) ]
MarkAttachClasses: 1
DEI: 91125
KernClass2: 18 16 "'kern' Kerning 1"
 31 T Gamma Tau afii10020 afii10036
 44 Y Upsilon Upsilon1 afii10062 afii10037 seven
 9 V W W.alt
 53 K X Kappa Chi afii10061 afii10024 afii10028 afii10039

StartChar: .notdef
Encoding: 1114112 -1 0
Width: 500
Flags: MW
LayerCount: 2
Fore
SplineSet
50 603 m 1
 50 95 l 1
 220 349 l 1
 50 603 l 1
80 50 m 1
 420 50 l 1
 250 304 l 1
 80 50 l 1
280 349 m 1
 450 95 l 1
 450 603 l 1
 280 349 l 1
250 394 m 1
 420 647 l 1
 80 647 l 1
 250 394 l 1
0 0 m 1
 0 698 l 1
 500 698 l 1
 500 0 l 1
 0 0 l 1
EndSplineSet
EndChar

StartChar: zero
Encoding: 48 48 2
Width: 491
GlyphClass: 2
Flags: MW
LayerCount: 2
Fore
SplineSet
247.001953125 583 m 0
 202.001953125 583 135.001953125 529 135.001953125 283 c 0
 135.001953125 196 151.001953125 13 244.001953125 13 c 0
 262.001953125 13 317.001953125 24 339.001953125 106 c 0
 353.001953125 157 356.001953125 230 356.001953125 322 c 0
 356.001953125 456 323.001953125 542 292.001953125 568 c 0
 280.001953125 579 264.001953125 583 247.001953125 583 c 0
243.001953125 -12 m 0
 130.001953125 -12 54.001953125 132 54.001953125 294 c 0
 54.001953125 492 148.001953125 610 247.001953125 610 c 0
 292.001953125 610 338.001953125 582 369.001953125 541 c 0
 413.001953125 483 437.001953125 402 437.001953125 303 c 0
 437.001953125 68 320.001953125 -12 243.001953125 -12 c 0
247.001953125 552 m 0
 231.801757812 552 166 524.799804688 166 283 c 0
 166 177.900390625 195.099609375 44 244 44 c 0
 253.200195312 44 291.900390625 49.900390625 309.100585938 114.100585938 c 0
 322.000976562 161.200195312 325.000976562 235.299804688 325.000976562 322 c 0
 325.000976562 457.900390625 288.901367188 530.200195312 271.6015625 544.700195312 c 0
 265.001953125 550.799804688 256.702148438 552 247.001953125 552 c 0
247 560 m 0
 257.200195312 560 268.100585938 558.701171875 276.80078125 550.701171875 c 0
 297.400390625 533.401367188 333 459.000976562 333 322.000976562 c 0
 333 235.100585938 330.200195312 160.700195312 316.799804688 112 c 0
 298.700195312 44.400390625 256.299804688 36 244 36 c 0
 183.900390625 36 158 181 158 283 c 0
 158 524.400390625 223.5 560 247 560 c 0
243 -42.9990234375 m 0
 96.7998046875 -42.9990234375 23 133.701171875 23 294.000976562 c 0
 23 502.80078125 123.799804688 641.000976562 247 641.000976562 c 0
 308.5 641.000976562 360.799804688 603.201171875 393.700195312 559.701171875 c 0
 444.700195312 492.401367188 468 402.901367188 468 303.000976562 c 0
 468 53.30078125 339.599609375 -42.9990234375 243 -42.9990234375 c 0
243 -34.9990234375 m 0
 333.799804688 -34.9990234375 460 55.900390625 460 303 c 0
 460 401.700195312 436.900390625 489.5 387.30078125 554.900390625 c 0
 355.400390625 597.100585938 305 633.000976562 247 633.000976562 c 0
 130.799804688 633.000976562 31 501.201171875 31 294.000976562 c 0
 31 134.401367188 104.599609375 -34.9990234375 243 -34.9990234375 c 0
EndSplineSet
EndChar

StartChar: one
Encoding: 49 49 3
Width: 377
GlyphClass: 2
Flags: MW
CounterMasks: 1 07
LayerCount: 2
Fore
SplineSet
241.412109375 109 m 2
 241.412109375 26 258.412109375 21 328.412109375 18 c 1
 334.412109375 12 334.412109375 1 328.412109375 -5 c 1
 278.412109375 -4 255.912109375 0 209.412109375 0 c 0
 160.211914062 0 132.412109375 -4 83.412109375 -5 c 1
 77.412109375 1 77.412109375 12 83.412109375 18 c 1
 153.412109375 21 170.412109375 26 170.412109375 109 c 2
 170.412109375 450 l 2
 170.412109375 484 166.912109375 508 150.412109375 508 c 0
 131.412109375 508 108.912109375 502 63.412109375 483 c 1
 54.412109375 489.099609375 50.01171875 498.599609375 48.412109375 510 c 1
 136.412109375 551 183.112304688 575.700195312 238.412109375 610 c 0
 241.912109375 610 244.412109375 609.799804688 244.412109375 605 c 0
 242.711914062 592 241.412109375 531 241.412109375 471 c 2
 241.412109375 109 l 2
272.412109375 129 m 2
 272.412109375 50.7998046875 273.216796875 51.400390625 340.31640625 48.5 c 2
 341.81640625 48.5 l 1
 342.916015625 47.400390625 l 2
 373.81640625 16.5 363.916015625 -13.400390625 342.215820312 -35.1005859375 c 2
 341.015625 -36.30078125 l 1
 339.315429688 -36.30078125 l 2
 281.815429688 -35.1005859375 252.515625 -31.0009765625 209.416015625 -31.0009765625 c 0
 156.116210938 -31.0009765625 123.916015625 -35.30078125 72.515625 -36.30078125 c 2
 70.8154296875 -36.30078125 l 1
 69.615234375 -35.1005859375 l 2
 39.4150390625 -4.900390625 46.5146484375 25 68.9150390625 47.400390625 c 2
 70.0146484375 48.5 l 1
 72.21484375 48.5 l 2
 143.314453125 51.599609375 139.4140625 56 139.4140625 129 c 2
 139.4140625 450 l 2
 139.4140625 459.900390625 138.213867188 464.5 137.013671875 467.700195312 c 0
 129.313476562 487.5 99.2138671875 464.299804688 61.8134765625 448.700195312 c 2
 59.8134765625 447.900390625 l 1
 58.11328125 449.100585938 l 2
 27.3134765625 470.100585938 20.11328125 488.80078125 14.9130859375 525.500976562 c 2
 14.5126953125 528.401367188 l 1
 17.212890625 529.701171875 l 2
 112.212890625 574.000976562 171.8125 605.100585938 228.612304688 640.400390625 c 2
 229.612304688 641 l 1
 238.412109375 641 l 2
 259.01171875 641 275.412109375 618.400390625 275.412109375 605 c 0
 275.412109375 591.400390625 272.412109375 527.5 272.412109375 471 c 2
 272.412109375 129 l 2
264.416992188 129.000976562 m 2
 264.41796875 471.002929688 l 2
 264.41796875 527.602539062 267.41796875 592.002929688 267.41796875 605.002929688 c 0
 267.41796875 613.903320312 253.517578125 633.002929688 238.41796875 633.002929688 c 2
 231.91796875 633.002929688 l 1
 175.717773438 598.203125 117.817382812 567.802734375 23.3173828125 523.703125 c 1
 28.2177734375 491.302734375 34.017578125 475.703125 60.8173828125 457.002929688 c 1
 89.7177734375 469.502929688 131.717773438 500.903320312 144.118164062 471.303710938 c 0
 145.91796875 466.903320312 147.41796875 461.002929688 147.41796875 450.002929688 c 2
 147.41796875 129.002929688 l 2
 147.41796875 55.703125 147.017578125 43.9033203125 73.517578125 40.603515625 c 1
 55.3173828125 21.603515625 48.4169921875 -1.296875 74.1171875 -28.197265625 c 1
 123.1171875 -27.09765625 156.317382812 -22.998046875 209.416992188 -22.998046875 c 0
 252.916992188 -22.998046875 280.317382812 -26.8984375 337.717773438 -28.1982421875 c 1
 355.41796875 -9.8984375 364.517578125 13.1015625 338.317382812 40.6015625 c 1
 270.6171875 43.6015625 264.416992188 49.701171875 264.416992188 129.000976562 c 2
EndSplineSet
EndChar

StartChar: two
Encoding: 50 50 4
Width: 478
GlyphClass: 2
Flags: MW
LayerCount: 2
Fore
SplineSet
63.2998046875 468 m 0
 63.2998046875 528 122.299804688 610 233.299804688 610 c 0
 314.299804688 610 412.299804688 566 412.299804688 458 c 0
 412.299804688 382 369.299804688 338 312.299804688 283 c 2
 211.299804688 186 l 2
 206.299804688 181 137.299804688 103 137.299804688 55 c 1
 325.299804688 55 l 2
 361.299804688 55 378.299804688 90 395.299804688 161 c 1
 405.299804688 163 408.299804688 161 414.299804688 156 c 1
 413.299804688 126 403.299804688 51 390.299804688 -2 c 1
 390.299804688 -2 344.299804688 0 312.299804688 0 c 2
 137.299804688 0 l 2
 105.299804688 0 64.2998046875 -2 64.2998046875 -2 c 1
 64.2998046875 57 80.2998046875 105 178.299804688 205 c 2
 252.299804688 278 l 2
 311.299804688 338 324.299804688 390 324.299804688 454 c 0
 324.299804688 550 263.299804688 585 227.299804688 585 c 0
 154.299804688 585 133.299804688 539 133.299804688 514 c 0
 133.299804688 506 139.299804688 497 141.299804688 490 c 0
 143.299804688 483 145.299804688 478 145.299804688 470 c 0
 145.299804688 451 120.299804688 436 103.299804688 436 c 0
 82.2998046875 436 63.2998046875 447 63.2998046875 468 c 0
32.2998046875 468 m 0
 32.2998046875 541.099609375 94.099609375 620.201171875 191.69921875 637.401367188 c 0
 208.899414062 640.401367188 222.399414062 641.000976562 233.299804688 641.000976562 c 0
 326.5 641.000976562 443.299804688 586.80078125 443.299804688 458.000976562 c 0
 443.299804688 364.901367188 387.299804688 312.301757812 333.799804688 260.702148438 c 2
 233.099609375 164.001953125 l 2
 221 152.40234375 191.900390625 113.702148438 178.200195312 86.001953125 c 1
 325.299804688 86.001953125 l 2
 336.099609375 86.001953125 353.299804688 119.001953125 369.099609375 185.001953125 c 2
 369.69921875 187.501953125 l 1
 372.19921875 188.001953125 l 2
 410.599609375 195.702148438 428.5 184.501953125 444.200195312 171.40234375 c 2
 445.700195312 170.102539062 l 1
 445.700195312 168.202148438 l 2
 444.100585938 121.001953125 435.200195312 50.8017578125 420.400390625 -9.3984375 c 2
 414.30078125 -34.0986328125 l 1
 411.000976562 -33.8984375 l 2
 382.80078125 -32.6982421875 361.400390625 -30.998046875 312.30078125 -30.998046875 c 2
 137.30078125 -30.998046875 l 2
 84.400390625 -30.998046875 70.2001953125 -32.6982421875 37.400390625 -34.2978515625 c 2
 33.30078125 -34.498046875 l 1
 33.30078125 -1.998046875 l 2
 33.30078125 68.3017578125 57.701171875 129.6015625 156.30078125 226.901367188 c 2
 230.30078125 299.901367188 l 2
 285.900390625 356.500976562 293.30078125 397.80078125 293.30078125 454.000976562 c 0
 293.30078125 539.000976562 242.201171875 554.000976562 227.30078125 554.000976562 c 0
 216.80078125 554.000976562 214.900390625 553.500976562 212.100585938 553.100585938 c 0
 168.900390625 547.700195312 165 523.100585938 164.299804688 515.500976562 c 0
 166.599609375 509.600585938 169.799804688 503.200195312 171.099609375 498.5 c 0
 173.399414062 490.400390625 176.299804688 478.400390625 176.299804688 470 c 0
 176.299804688 419.299804688 124.399414062 405 103.299804688 405 c 0
 68.099609375 405 32.2998046875 427.799804688 32.2998046875 468 c 0
40.2998046875 468.001953125 m 0
 40.2998046875 433.501953125 70.9951171875 413.001953125 103.294921875 413.001953125 c 0
 122.995117188 413.001953125 168.294921875 426.40234375 168.294921875 470.001953125 c 0
 168.294921875 477.1015625 165.6953125 488.301757812 163.395507812 496.301757812 c 0
 162.095703125 500.801757812 158.395507812 508.1015625 156.495117188 513.701171875 c 2
 156.1953125 514.401367188 l 1
 156.294921875 515.201171875 l 2
 156.794921875 525.000976562 162.6953125 554.901367188 211.095703125 561.000976562 c 0
 213.99609375 561.401367188 216.396484375 562.000976562 227.296875 562.000976562 c 0
 246.596679688 562.000976562 301.296875 543.100585938 301.296875 454.000976562 c 0
 301.296875 396.701171875 293.096679688 352.401367188 235.997070312 294.301757812 c 2
 161.897460938 221.202148438 l 2
 63.8974609375 124.602539062 41.2978515625 65.90234375 41.2978515625 -1.998046875 c 2
 41.2978515625 -26.09765625 l 1
 70.59765625 -24.59765625 86.3974609375 -22.998046875 137.297851562 -22.998046875 c 2
 312.297851562 -22.998046875 l 2
 359.198242188 -22.998046875 380.3984375 -24.498046875 408.098632812 -25.7978515625 c 1
 412.598632812 -7.498046875 l 2
 426.999023438 51.2021484375 435.798828125 119.202148438 437.598632812 166.501953125 c 1
 423.999023438 177.40234375 409.899414062 186.702148438 376.299804688 180.602539062 c 1
 361.5 119.90234375 345.799804688 78.001953125 325.299804688 78.001953125 c 2
 165.599609375 78.001953125 l 1
 168.19921875 83.7021484375 l 2
 182.798828125 115.702148438 213.3984375 156.202148438 227.498046875 169.801757812 c 2
 328.198242188 266.401367188 l 2
 381.8984375 318.201171875 435.298828125 368.6015625 435.298828125 458.001953125 c 0
 435.298828125 580.501953125 324.298828125 633.001953125 233.298828125 633.001953125 c 0
 222.798828125 633.001953125 209.69921875 632.501953125 193.099609375 629.6015625 c 0
 99 613.001953125 40.2998046875 536.801757812 40.2998046875 468.001953125 c 0
EndSplineSet
EndChar

StartChar: three
Encoding: 51 51 5
Width: 477
GlyphClass: 2
Flags: MW
LayerCount: 2
Fore
SplineSet
219 585 m 0
 193 585 124 563 124 499 c 0
 124 480 114 447 85 447 c 0
 61 447 51 467 51 481 c 0
 51 514 93 610 240 610 c 0
 342 610 380 546 380 504 c 0
 380 470 375 424 280 364 c 1
 281 362 l 1
 340 352 417 311 417 202 c 0
 417 70 311 -11 192 -11 c 0
 132 -11 48 16 48 56 c 0
 48 72 69 91 90 91 c 0
 110 91 123 79 133 65 c 0
 145 47 154 14 205 14 c 0
 240 14 335 55 335 188 c 0
 335 301 260 319 203 319 c 0
 190 319 177 319 160 317 c 1
 155 339 l 1
 245 353 309 440 309 489 c 0
 309 551 263 585 219 585 c 0
219 554 m 0
 196.799804688 554 155.000976562 532.8984375 155.000976562 498.998046875 c 0
 155.000976562 471.3984375 138.701171875 415.998046875 85.0009765625 415.998046875 c 0
 33.701171875 415.998046875 20.0009765625 460.998046875 20.0009765625 480.998046875 c 0
 20.0009765625 528.698242188 66.201171875 612.598632812 177.6015625 635.098632812 c 0
 200.701171875 639.798828125 221.701171875 640.999023438 240.000976562 640.999023438 c 0
 361.80078125 640.999023438 411.000976562 560.399414062 411.000976562 503.999023438 c 0
 411.000976562 468.298828125 399.901367188 421.19921875 345.701171875 373.599609375 c 1
 402.901367188 345.399414062 448.000976562 289.099609375 448.000976562 202 c 0
 448.000976562 70.2001953125 355.401367188 -13.7998046875 251.500976562 -35.7998046875 c 0
 228.600585938 -40.7001953125 209.30078125 -42 192.000976562 -42 c 0
 131.000976562 -42 17.0009765625 -19.400390625 17.0009765625 56 c 0
 17.0009765625 100.299804688 60.701171875 122 90.0009765625 122 c 0
 129.000976562 122 148.401367188 96.7001953125 158.500976562 82.6005859375 c 0
 178.201171875 53.0009765625 173.000976562 45.0009765625 205.000976562 45.0009765625 c 0
 208.401367188 45.0009765625 217.000976562 47.0009765625 221.701171875 48.6005859375 c 0
 256.000976562 60.5009765625 304.000976562 99.0009765625 304.000976562 188.000976562 c 0
 304.000976562 282.100585938 250.701171875 288.000976562 203.000976562 288.000976562 c 0
 186.901367188 288.000976562 175.500976562 287.600585938 163.600585938 286.200195312 c 2
 135.900390625 283 l 1
 117.400390625 364.5 l 1
 150.200195312 369.599609375 l 2
 191.799804688 376.099609375 224.700195312 400.69921875 246.5 425.798828125 c 0
 270.700195312 453.69921875 278 478.599609375 278 489 c 0
 278 536.599609375 244.400390625 554 219 554 c 0
219.000976562 561.998046875 m 0
 247.901367188 561.998046875 286.000976562 541.498046875 286.000976562 488.998046875 c 0
 286.000976562 475.698242188 277.701171875 449.698242188 252.500976562 420.598632812 c 0
 229.901367188 394.499023438 195.6015625 368.598632812 151.501953125 361.698242188 c 2
 127.1015625 357.8984375 l 1
 142.201171875 291.698242188 l 1
 162.701171875 294.198242188 l 2
 175.000976562 295.698242188 186.80078125 295.998046875 203.000976562 295.998046875 c 0
 251.80078125 295.998046875 312.000976562 287.698242188 312.000976562 187.998046875 c 0
 312.000976562 95.6982421875 261.500976562 53.8984375 224.30078125 40.998046875 c 0
 218.900390625 39.09765625 210.30078125 36.998046875 205.000976562 36.998046875 c 0
 168.901367188 36.998046875 170.000976562 50.8984375 151.901367188 78.0986328125 c 0
 142.301757812 91.5986328125 124.901367188 113.999023438 90.0009765625 113.999023438 c 0
 63.30078125 113.999023438 25.0009765625 93.9990234375 25.0009765625 55.9990234375 c 0
 25.0009765625 -10.1005859375 129.901367188 -34.0009765625 192.000976562 -34.0009765625 c 0
 208.80078125 -34.0009765625 227.600585938 -32.701171875 249.80078125 -28.0009765625 c 0
 350.701171875 -6.6005859375 440.000976562 74.4990234375 440.000976562 201.999023438 c 0
 440.000976562 289.098632812 393.500976562 343.298828125 336.701171875 368.999023438 c 2
 330.901367188 371.598632812 l 1
 335.801757812 375.698242188 l 2
 392.702148438 423.198242188 403.001953125 469.498046875 403.001953125 503.998046875 c 0
 403.001953125 555.8984375 357.702148438 632.998046875 240.001953125 632.998046875 c 0
 222.1015625 632.998046875 201.6015625 631.698242188 179.201171875 627.198242188 c 0
 71.201171875 605.3984375 28.0009765625 524.3984375 28.0009765625 480.998046875 c 0
 28.0009765625 463.198242188 40.0009765625 423.998046875 85.0009765625 423.998046875 c 0
 131.600585938 423.998046875 147.000976562 472.59765625 147.000976562 498.998046875 c 0
 147.000976562 539.698242188 194.30078125 561.998046875 219.000976562 561.998046875 c 0
EndSplineSet
EndChar

StartChar: four
Encoding: 52 52 6
Width: 484
GlyphClass: 2
Flags: MW
LayerCount: 2
Fore
SplineSet
436 199 m 2
 447 199 451 193 451 183 c 0
 451 171 436 162 422 162 c 2
 351 162 l 1
 351 67 l 2
 351 20 369 24 418 20 c 1
 424 14 424 1 418 -5 c 1
 386 -4 356.400390625 0 317 0 c 0
 273.299804688 0 237 -4 205 -5 c 1
 199 1 199 14 205 20 c 1
 248 23 286 21 286 67 c 2
 286 162 l 1
 73 162 l 2
 43 162 43 189 40 204 c 0
 40 205 41 206 42 207 c 2
 320 599 l 2
 323 604 328 610 335 610 c 2
 352 610 l 2
 358 610 361 603 358 598 c 0
 283 489 168 311 92 199 c 1
 286 199 l 1
 286 375 l 2
 286 382 286 391 296 396 c 0
 308 404 321 414 337 414 c 0
 351 414 351 402 351 381 c 2
 351 199 l 1
 436 199 l 2
436 222 m 2
 373.998046875 222 l 1
 373.998046875 381 l 2
 373.998046875 387.700195312 380.498046875 437 336.998046875 437 c 0
 316.297851562 437 298.59765625 425.400390625 284.397460938 415.900390625 c 2
 284.297851562 415.80078125 l 1
 284.198242188 415.80078125 l 2
 280.098632812 413.500976562 275.3984375 409.500976562 271.298828125 402.80078125 c 0
 266.098632812 394.400390625 262.999023438 381.80078125 262.999023438 375.000976562 c 2
 262.999023438 222.000976562 l 1
 134.999023438 222.000976562 l 1
 377.499023438 585.80078125 l 1
 377.69921875 586.201171875 l 2
 381.499023438 592.6015625 386.69921875 618.901367188 369.399414062 629.000976562 c 0
 366.19921875 630.80078125 361.69921875 633.000976562 351.999023438 633.000976562 c 2
 334.999023438 633.000976562 l 2
 320.899414062 633.000976562 307.899414062 623.000976562 300.799804688 611.701171875 c 1
 300.799804688 611.6015625 l 1
 24.2998046875 221.701171875 l 1
 24.099609375 221.6015625 l 2
 22.3994140625 219.701171875 16.9990234375 214.401367188 16.9990234375 204.000976562 c 2
 16.9990234375 201.701171875 l 1
 17.3994140625 199.500976562 l 2
 17.69921875 197.80078125 17.4990234375 139.000976562 72.9990234375 139.000976562 c 2
 262.999023438 139.000976562 l 1
 262.999023438 77.0009765625 l 2
 262.999023438 54.9013671875 247.598632812 46.1015625 194.798828125 42.3017578125 c 1
 175.499023438 22.2021484375 170.19921875 -1.498046875 195.798828125 -28.1982421875 c 1
 231.098632812 -26.998046875 265.999023438 -22.998046875 316.999023438 -22.998046875 c 0
 354.798828125 -22.998046875 386.19921875 -26.7978515625 427.19921875 -28.1982421875 c 1
 445.19921875 -9.498046875 454.999023438 14.2021484375 428.298828125 42.2021484375 c 1
 415.098632812 43.3017578125 385.298828125 45.1015625 378.298828125 47.201171875 c 2
 376.19921875 47.80078125 l 1
 375.599609375 49.900390625 l 2
 369.599609375 71.1005859375 374 108.700195312 374 135 c 2
 374 139 l 1
 422 139 l 2
 435.900390625 139 474 145.400390625 474 183 c 0
 474 194.299804688 466.200195312 222 436 222 c 2
257.797851562 391.900390625 m 2
 149.897460938 230 l 1
 254.997070312 230 l 1
 254.997070312 375 l 2
 254.997070312 380.200195312 256.397460938 387 257.797851562 391.900390625 c 2
279.897460938 422.599609375 m 2
 293.797851562 432 313.599609375 445.000976562 337 445.000976562 c 0
 390.099609375 445.000976562 382 384.100585938 382 381.000976562 c 2
 382 230.000976562 l 1
 436 230.000976562 l 2
 472.799804688 230.000976562 482 196.100585938 482 183.000976562 c 0
 482 137.80078125 436.5 131.000976562 422 131.000976562 c 2
 382 131.000976562 l 1
 381.5 103.000976562 378.5 73.201171875 382.700195312 54.5009765625 c 1
 393.299804688 52.80078125 418 51.1005859375 430.400390625 50.1005859375 c 2
 431.900390625 49.900390625 l 1
 432.900390625 48.900390625 l 2
 464.30078125 17.5 453.600585938 -13.2998046875 431.700195312 -35.2001953125 c 2
 430.400390625 -36.400390625 l 1
 428.700195312 -36.30078125 l 2
 387 -35.0009765625 354.799804688 -31.0009765625 317 -31.0009765625 c 0
 265.599609375 -31.0009765625 232.19921875 -35.1005859375 194.298828125 -36.30078125 c 2
 192.598632812 -36.400390625 l 1
 191.298828125 -35.2001953125 l 2
 161.3984375 -5.2998046875 166.498046875 25.400390625 190.198242188 49.1005859375 c 2
 191.297851562 50.1005859375 l 1
 192.797851562 50.2001953125 l 2
 247.698242188 54 254.998046875 61.7998046875 254.998046875 77 c 2
 254.998046875 131 l 1
 72.998046875 131 l 2
 10.2978515625 131 9.6982421875 197.299804688 9.5986328125 198.099609375 c 2
 8.9990234375 200.899414062 l 1
 8.9990234375 203.999023438 l 2
 8.9990234375 217.899414062 16.0986328125 224.69921875 18.0986328125 226.899414062 c 1
 18.1982421875 226.799804688 73.1982421875 304.599609375 294.098632812 616.099609375 c 0
 302.198242188 628.899414062 317.297851562 640.999023438 334.998046875 640.999023438 c 2
 351.998046875 640.999023438 l 2
 363.198242188 640.999023438 369.297851562 638.399414062 373.498046875 635.899414062 c 0
 397.198242188 622.099609375 389.297851562 590 384.59765625 582.099609375 c 2
 384.197265625 581.399414062 l 1
 277.497070312 421.299804688 l 1
 279.897460938 422.599609375 l 2
EndSplineSet
EndChar

StartChar: five
Encoding: 53 53 7
Width: 464
GlyphClass: 2
Flags: MW
LayerCount: 2
Fore
SplineSet
321 189 m 0
 321 298 264 351 199 351 c 0
 163 351 125 347 72 327 c 1
 106 605 l 1
 141 602 177 600 214 600 c 0
 267 600 321 605 378 611 c 1
 385 607 l 1
 369 549 l 1
 328 545 294 543 264 543 c 0
 216 543 174 548 137 552 c 1
 117 375 l 1
 135 382 182 391 225 391 c 0
 337 391 404 304 404 207 c 0
 404 81 316 -11 192 -11 c 0
 135 -11 50 23 50 64 c 0
 50 84 69 95 88 95 c 0
 109 95 126 80 139 63 c 0
 154 43 167 14 205 14 c 0
 265 14 321 94 321 189 c 0
290 189 m 0
 290 290.700195312 240.700195312 320.000976562 199 320.000976562 c 0
 163.099609375 320.000976562 128.899414062 315.401367188 82.8994140625 298.000976562 c 2
 34.9990234375 279.901367188 l 1
 78.8994140625 638.401367188 l 1
 82.69921875 638.1015625 l 2
 126.798828125 634.301757812 173.298828125 631.001953125 213.999023438 631.001953125 c 0
 270.798828125 631.001953125 327.999023438 636.90234375 383.399414062 642.702148438 c 2
 384.69921875 642.90234375 l 1
 421.298828125 622.001953125 l 1
 393.19921875 520.202148438 l 1
 390.499023438 519.90234375 l 2
 344.899414062 515.501953125 295.19921875 512.001953125 263.999023438 512.001953125 c 0
 223.19921875 512.001953125 189.298828125 515.301757812 164.298828125 517.901367188 c 1
 152.798828125 415.6015625 l 1
 180.098632812 420.201171875 202.499023438 422.000976562 224.999023438 422.000976562 c 0
 360.098632812 422.000976562 434.999023438 313.901367188 434.999023438 207.000976562 c 0
 434.999023438 80.1005859375 354.798828125 -14.7998046875 244.19921875 -36.8994140625 c 0
 223.899414062 -40.9990234375 206.69921875 -41.9990234375 191.999023438 -41.9990234375 c 0
 130.298828125 -41.9990234375 18.9990234375 -10.0986328125 18.9990234375 64.0009765625 c 0
 18.9990234375 113.500976562 66.0986328125 126.000976562 87.9990234375 126.000976562 c 0
 128.899414062 126.000976562 151.499023438 97.6005859375 163.69921875 81.7001953125 c 0
 186.099609375 51.7998046875 187.19921875 45 204.999023438 45 c 0
 211.899414062 45 216.099609375 46.5 219.099609375 47.599609375 c 0
 253.299804688 60 290 119.700195312 290 189 c 0
298 189.000976562 m 0
 298 117.600585938 261.000976562 54.30078125 221.80078125 40.1005859375 c 0
 218.30078125 38.80078125 213.400390625 37.0009765625 205 37.0009765625 c 0
 182.700195312 37.0009765625 178.5 48.6005859375 157.299804688 76.900390625 c 0
 145.299804688 92.5 124.599609375 118 88 118 c 0
 67.5 118 27 106.599609375 27 64 c 0
 27 -1.2998046875 130.099609375 -34 192 -34 c 0
 206.299804688 -34 223 -33 242.599609375 -29.099609375 c 0
 349.399414062 -7.69921875 426.999023438 83.6005859375 426.999023438 207.000976562 c 0
 426.999023438 310.401367188 354.999023438 414.000976562 224.999023438 414.000976562 c 0
 201.298828125 414.000976562 175.999023438 411.701171875 148.899414062 406.80078125 c 2
 143.599609375 405.80078125 l 1
 157.299804688 526.701171875 l 1
 161.200195312 526.201171875 l 2
 188.100585938 523.401367188 221.80078125 520.000976562 264.000976562 520.000976562 c 0
 294.201171875 520.000976562 341.401367188 523.201171875 387.000976562 527.6015625 c 1
 411.901367188 618.1015625 l 1
 383.000976562 634.6015625 l 1
 328.600585938 628.901367188 270.80078125 623.000976562 214.000976562 623.000976562 c 0
 174.100585938 623.000976562 129.200195312 626.100585938 85.900390625 629.80078125 c 1
 44.6005859375 292.100585938 l 1
 80.1005859375 305.500976562 l 2
 126.900390625 323.100585938 162.400390625 328.000976562 199 328.000976562 c 0
 245.599609375 328.000976562 298 293.80078125 298 189.000976562 c 0
EndSplineSet
EndChar

StartChar: six
Encoding: 54 54 8
Width: 484
GlyphClass: 2
Flags: MW
LayerCount: 2
Fore
SplineSet
135.900390625 310.400390625 m 1
 129.5 280.400390625 127 252.401367188 127 229.000976562 c 0
 127 58.0009765625 198 14.0009765625 261 14.0009765625 c 0
 310 14.0009765625 357 73.0009765625 357 183.000976562 c 0
 357 233.000976562 332 345.000976562 234 345.000976562 c 0
 213.900390625 345.000976562 173.600585938 343.100585938 135.900390625 310.400390625 c 1
143 339.000976562 m 1
 173.299804688 358.401367188 223.598632812 370.000976562 254.999023438 370.000976562 c 0
 390.999023438 370.000976562 433.999023438 288.000976562 433.999023438 202.000976562 c 0
 433.999023438 116.000976562 380.999023438 -10.9990234375 249.999023438 -10.9990234375 c 0
 172.999023438 -10.9990234375 49.9990234375 29.0009765625 49.9990234375 232.000976562 c 0
 49.9990234375 311.000976562 80.9990234375 402.000976562 142.999023438 474.000976562 c 0
 198.999023438 539.000976562 260.999023438 581.000976562 361.999023438 611.000976562 c 1
 369.999023438 606.000976562 367.999023438 597.000976562 367.999023438 585.000976562 c 1
 232.899414062 534.401367188 169.299804688 431.000976562 143 339.000976562 c 1
164.098632812 293.30078125 m 1
 158.499023438 261.900390625 157.999023438 246.701171875 157.999023438 229.000976562 c 0
 157.999023438 62.9013671875 220.899414062 45.0009765625 260.999023438 45.0009765625 c 0
 283.798828125 45.0009765625 325.999023438 81.9013671875 325.999023438 183.000976562 c 0
 325.999023438 235.600585938 298.499023438 314.000976562 233.999023438 314.000976562 c 0
 214.598632812 314.000976562 188.598632812 310.500976562 164.098632812 293.30078125 c 1
156.499023438 296.301757812 m 2
 156.798828125 297.90234375 l 1
 158.098632812 298.802734375 l 2
 184.999023438 318.502929688 213.69921875 322.002929688 233.999023438 322.002929688 c 0
 306.298828125 322.002929688 333.999023438 236.302734375 333.999023438 183.002929688 c 0
 333.999023438 81.0029296875 291.499023438 37.0029296875 260.999023438 37.0029296875 c 0
 215.999023438 37.0029296875 149.999023438 60.4033203125 149.999023438 229.002929688 c 0
 149.999023438 247.102539062 150.798828125 265.202148438 156.499023438 296.301757812 c 2
196.999023438 393.40234375 m 1
 222.999023438 399.602539062 239.297851562 401.001953125 254.998046875 401.001953125 c 0
 413.09765625 401.001953125 464.998046875 296.301757812 464.998046875 202.001953125 c 0
 464.998046875 103.90234375 402.498046875 -41.998046875 249.998046875 -41.998046875 c 0
 157.297851562 -41.998046875 18.998046875 15.2021484375 18.998046875 232.001953125 c 0
 18.998046875 322.202148438 54.8984375 419.202148438 119.498046875 494.202148438 c 0
 183.998046875 569.001953125 257.698242188 612.40234375 364.797851562 644.202148438 c 2
 366.59765625 644.702148438 l 1
 368.09765625 643.702148438 l 2
 408.498046875 618.40234375 398.998046875 593.501953125 398.998046875 570.301757812 c 2
 398.998046875 567.501953125 l 1
 396.3984375 566.501953125 l 2
 291.3984375 527.202148438 231.598632812 462.702148438 196.999023438 393.40234375 c 1
190.698242188 383.500976562 m 2
 182.397460938 381.301757812 l 1
 186.09765625 389.1015625 l 2
 220.59765625 462.801757812 280.998046875 531.001953125 390.998046875 573.1015625 c 1
 391.59765625 596.401367188 399.59765625 613.500976562 365.397460938 636.000976562 c 1
 261.09765625 604.701171875 188.697265625 562.201171875 125.59765625 489.000976562 c 0
 62.2978515625 415.500976562 26.998046875 320.201171875 26.998046875 232.000976562 c 0
 26.998046875 19.80078125 160.59765625 -33.9990234375 249.998046875 -33.9990234375 c 0
 395.998046875 -33.9990234375 456.998046875 106.000976562 456.998046875 202.000976562 c 0
 456.998046875 293.201171875 408.198242188 393.000976562 254.998046875 393.000976562 c 0
 238.3984375 393.000976562 218.198242188 390.901367188 190.698242188 383.500976562 c 2
EndSplineSet
EndChar

StartChar: seven
Encoding: 55 55 9
Width: 438
GlyphClass: 2
Flags: MW
LayerCount: 2
Fore
SplineSet
148 545 m 2
 116 545 83 528 61 448 c 1
 50 446.700195312 49.900390625 447.900390625 39 451 c 1
 47 503 58 563 59 611 c 0
 59 614 60 614 63 614 c 0
 81 610 79 600 113 600 c 2
 319 600 l 2
 357 600 379 606 396 611 c 1
 412 599 l 1
 300 326 240 160 183 -10 c 1
 123 -13 l 1
 115 -6 l 1
 183 146 272 351 350 545 c 1
 148 545 l 2
148 514 m 2
 126.200195312 514 104.799804688 490.297851562 86.099609375 422.297851562 c 2
 85.3994140625 419.698242188 l 1
 82.69921875 419.3984375 l 2
 46.599609375 414.998046875 27.5 422.09765625 8 427.59765625 c 2
 4.2001953125 428.697265625 l 1
 4.7998046875 432.59765625 l 2
 14.099609375 493.09765625 27 564.897460938 28 611.297851562 c 0
 28 635.198242188 46.2001953125 644.998046875 66 644.998046875 c 2
 66.400390625 644.998046875 l 1
 66.80078125 644.8984375 l 2
 109.30078125 635.3984375 96.6005859375 630.998046875 123.000976562 630.998046875 c 2
 319.000976562 630.998046875 l 2
 367.30078125 630.998046875 375.201171875 637.198242188 400.201171875 644.598632812 c 2
 402.201171875 645.098632812 l 1
 449.80078125 609.3984375 l 1
 440.701171875 587.298828125 l 1
 323.000976562 290.499023438 l 2
 277.600585938 170.899414062 244.30078125 75.3994140625 212.400390625 -19.900390625 c 2
 205.700195312 -39.900390625 l 1
 112 -44.6005859375 l 1
 77.2998046875 -14.2001953125 l 1
 86.7001953125 6.599609375 l 1
 242.900390625 366.299804688 l 1
 304 514 l 1
 148 514 l 2
148 521.998046875 m 2
 316 521.99609375 l 1
 250.200195312 363.196289062 l 1
 94 3.396484375 l 1
 87.099609375 -12.103515625 l 1
 114.899414062 -36.4033203125 l 1
 199.799804688 -32.203125 l 1
 204.799804688 -17.302734375 l 2
 236.799804688 78.09765625 270.099609375 173.59765625 315.599609375 293.397460938 c 2
 433.299804688 590.297851562 l 1
 440 606.698242188 l 1
 400.599609375 636.297851562 l 1
 378 629.498046875 366.900390625 622.998046875 319 622.998046875 c 2
 123 622.998046875 l 2
 95.2998046875 622.998046875 103.599609375 636.998046875 66 636.998046875 c 0
 48.599609375 636.998046875 36 629.698242188 36 611.198242188 c 0
 35 564.3984375 22.5 494.098632812 13.2001953125 434.3984375 c 1
 31.7001953125 429.098632812 46 423.698242188 79.099609375 426.998046875 c 1
 97.2998046875 491.59765625 119.5 521.998046875 148 521.998046875 c 2
EndSplineSet
EndChar

StartChar: eight
Encoding: 56 56 10
Width: 465
GlyphClass: 2
Flags: MW
LayerCount: 2
Fore
SplineSet
236 585 m 0
 176 585 137 537 137 491 c 0
 137 460 147 426 210 385 c 2
 241 366 l 1
 268 386 332 432 332 486 c 0
 332 532 301 585 236 585 c 0
394 485 m 0
 394 421 322 372 278 342 c 1
 339 302 l 2
 391 268 419 220 419 162 c 0
 419 86 357 -11 226 -11 c 0
 120 -11 48 44 48 146 c 0
 48 185 65 230 106 266 c 0
 131 288 157 307 182 326 c 1
 164 337 l 2
 103 375 72 416 72 472 c 0
 72 549 139 610 241 610 c 0
 339 610 394 557 394 485 c 0
228 14 m 0
 273 14 354 42 354 142 c 0
 354 190 326 237 264 275 c 2
 217 303 l 1
 131 246 109 176 109 146 c 0
 109 56 183 14 228 14 c 0
236 554 m 0
 190.5 554 167.999023438 517.299804688 167.999023438 491 c 0
 167.999023438 467.900390625 173.098632812 446.200195312 226.499023438 411.200195312 c 2
 239.19921875 403.400390625 l 1
 274.099609375 430.700195312 301 462.900390625 301 486 c 0
 301 523 277.200195312 554 236 554 c 0
235.999023438 562 m 0
 282.098632812 562 308.998046875 526.499023438 308.998046875 485.999023438 c 0
 308.998046875 457.19921875 277.198242188 422.499023438 241.8984375 395.399414062 c 2
 239.698242188 393.69921875 l 1
 222.198242188 404.499023438 l 2
 167.598632812 440.399414062 159.999023438 465.299804688 159.999023438 491 c 0
 159.999023438 521.200195312 185.499023438 562 235.999023438 562 c 0
424.998046875 484.999023438 m 0
 424.998046875 415.598632812 368.8984375 370.098632812 332.998046875 342.999023438 c 1
 355.998046875 327.899414062 l 2
 418.59765625 286.999023438 449.998046875 227.298828125 449.998046875 161.999023438 c 0
 449.998046875 66.298828125 370.498046875 -42.0009765625 225.998046875 -42.0009765625 c 0
 104.198242188 -42.0009765625 16.998046875 28.19921875 16.998046875 145.999023438 c 0
 16.998046875 197.499023438 41.09765625 250.298828125 85.498046875 289.298828125 c 0
 102.3984375 304.098632812 116.198242188 314.798828125 127.797851562 323.798828125 c 1
 70.498046875 364.598632812 40.998046875 412.999023438 40.998046875 471.999023438 c 0
 40.998046875 573.899414062 131.59765625 640.999023438 240.998046875 640.999023438 c 0
 355.498046875 640.999023438 424.998046875 572.999023438 424.998046875 484.999023438 c 0
416.998046875 484.999023438 m 0
 416.998046875 567.999023438 352.09765625 633 240.998046875 633 c 0
 134.498046875 633 48.998046875 568.200195312 48.998046875 472 c 0
 48.998046875 414.5 78.1982421875 367.700195312 136.8984375 327.299804688 c 2
 141.3984375 324.099609375 l 1
 136.998046875 320.799804688 l 2
 124.09765625 310.899414062 109.297851562 299.499023438 90.7978515625 283.298828125 c 0
 47.998046875 245.69921875 24.998046875 194.999023438 24.998046875 145.999023438 c 0
 24.998046875 33.19921875 107.3984375 -34.0009765625 225.998046875 -34.0009765625 c 0
 365.998046875 -34.0009765625 441.998046875 70.4990234375 441.998046875 161.999023438 c 0
 441.998046875 224.598632812 412.198242188 281.598632812 351.598632812 321.198242188 c 2
 319.098632812 342.598632812 l 1
 323.698242188 345.999023438 l 2
 360.3984375 373.19921875 416.998046875 417.798828125 416.998046875 484.999023438 c 0
227.998046875 45 m 0
 266.8984375 45 322.998046875 67.900390625 322.998046875 142 c 0
 322.998046875 179.099609375 300.498046875 216.299804688 247.998046875 248.5 c 2
 218.498046875 266 l 1
 149.3984375 213.099609375 139.998046875 160.799804688 139.998046875 146 c 0
 139.998046875 71.900390625 201.297851562 45 227.998046875 45 c 0
227.998046875 37 m 0
 197.698242188 37 131.998046875 66.6005859375 131.998046875 146.000976562 c 0
 131.998046875 163.701171875 143.198242188 219.80078125 215.797851562 274.100585938 c 2
 217.897460938 275.700195312 l 1
 252.09765625 255.299804688 l 2
 306.09765625 222.200195312 330.998046875 182.700195312 330.998046875 142 c 0
 330.998046875 62.400390625 269.498046875 37 227.998046875 37 c 0
EndSplineSet
EndChar

StartChar: nine
Encoding: 57 57 11
Width: 463
GlyphClass: 2
Flags: MW
LayerCount: 2
Fore
SplineSet
337.59765625 288.599609375 m 1
 343.998046875 318.599609375 346.498046875 346.598632812 346.498046875 369.999023438 c 0
 346.498046875 540.999023438 275.498046875 584.999023438 212.498046875 584.999023438 c 0
 163.498046875 584.999023438 116.498046875 525.999023438 116.498046875 415.999023438 c 0
 116.498046875 365.999023438 141.498046875 253.999023438 239.498046875 253.999023438 c 0
 259.59765625 253.999023438 299.897460938 255.899414062 337.59765625 288.599609375 c 1
330.498046875 259.999023438 m 1
 300.198242188 240.598632812 249.899414062 228.999023438 218.499023438 228.999023438 c 0
 82.4990234375 228.999023438 39.4990234375 310.999023438 39.4990234375 396.999023438 c 0
 39.4990234375 482.999023438 92.4990234375 609.999023438 223.499023438 609.999023438 c 0
 300.499023438 609.999023438 423.499023438 569.999023438 423.499023438 366.999023438 c 0
 423.499023438 287.999023438 392.499023438 196.999023438 330.499023438 124.999023438 c 0
 274.499023438 59.9990234375 212.499023438 17.9990234375 111.499023438 -12.0009765625 c 1
 103.499023438 -7.0009765625 105.499023438 1.9990234375 105.499023438 13.9990234375 c 1
 240.598632812 64.5986328125 304.198242188 167.999023438 330.498046875 259.999023438 c 1
309.399414062 305.69921875 m 1
 314.999023438 337.099609375 315.499023438 352.298828125 315.499023438 369.999023438 c 0
 315.499023438 536.098632812 252.598632812 553.999023438 212.499023438 553.999023438 c 0
 189.69921875 553.999023438 147.499023438 517.098632812 147.499023438 415.999023438 c 0
 147.499023438 363.399414062 174.999023438 284.999023438 239.499023438 284.999023438 c 0
 258.899414062 284.999023438 284.899414062 288.499023438 309.399414062 305.69921875 c 1
316.999023438 302.698242188 m 2
 316.69921875 301.09765625 l 1
 315.399414062 300.197265625 l 2
 288.499023438 280.497070312 259.798828125 276.997070312 239.499023438 276.997070312 c 0
 167.19921875 276.997070312 139.499023438 362.697265625 139.499023438 415.997070312 c 0
 139.499023438 517.997070312 181.999023438 561.997070312 212.499023438 561.997070312 c 0
 257.499023438 561.997070312 323.499023438 538.596679688 323.499023438 369.997070312 c 0
 323.499023438 351.897460938 322.69921875 333.797851562 316.999023438 302.698242188 c 2
276.499023438 205.59765625 m 1
 250.499023438 199.397460938 234.200195312 197.998046875 218.5 197.998046875 c 0
 60.400390625 197.998046875 8.5 302.698242188 8.5 396.998046875 c 0
 8.5 495.09765625 71 640.998046875 223.5 640.998046875 c 0
 316.200195312 640.998046875 454.5 583.797851562 454.5 366.998046875 c 0
 454.5 276.797851562 418.599609375 179.797851562 354 104.797851562 c 0
 289.5 29.998046875 215.799804688 -13.40234375 108.700195312 -45.2021484375 c 2
 106.900390625 -45.7021484375 l 1
 105.400390625 -44.7021484375 l 2
 65 -19.40234375 74.5 5.498046875 74.5 28.6982421875 c 2
 74.5 31.498046875 l 1
 77.099609375 32.498046875 l 2
 182.099609375 71.7978515625 241.899414062 136.297851562 276.499023438 205.59765625 c 1
282.799804688 215.499023438 m 2
 291.100585938 217.698242188 l 1
 287.400390625 209.8984375 l 2
 252.900390625 136.198242188 192.5 67.998046875 82.5 25.8984375 c 1
 81.900390625 2.5986328125 73.900390625 -14.5009765625 108.100585938 -37.0009765625 c 1
 212.400390625 -5.701171875 284.80078125 36.798828125 347.900390625 109.999023438 c 0
 411.200195312 183.499023438 446.5 278.798828125 446.5 366.999023438 c 0
 446.5 579.19921875 312.900390625 632.999023438 223.5 632.999023438 c 0
 77.5 632.999023438 16.5 492.999023438 16.5 396.999023438 c 0
 16.5 305.798828125 65.2998046875 205.999023438 218.5 205.999023438 c 0
 235.099609375 205.999023438 255.299804688 208.098632812 282.799804688 215.499023438 c 2
EndSplineSet
EndChar

StartChar: A
Encoding: 65 65 12
Width: 820
GlyphClass: 2
Flags: MW
LayerCount: 2
Fore
SplineSet
325.900390625 278 m 2
 504.900390625 278 l 1
 408.900390625 555 l 1
 405.900390625 555 l 1
 300.700195312 296.299804688 l 2
 296.600585938 286.099609375 303.900390625 278 325.900390625 278 c 2
212.900390625 69 m 2
 196.700195312 27.2998046875 244.301757812 20.599609375 281.901367188 18 c 1
 287.901367188 12 287.901367188 1 281.901367188 -5 c 1
 244.901367188 -4 214.901367188 0 173.901367188 0 c 0
 134.901367188 0 111.901367188 -4 74.9013671875 -5 c 1
 68.9013671875 1 68.9013671875 12 74.9013671875 18 c 1
 118.401367188 21 149.000976562 31.2998046875 174.80078125 92 c 2
 406.900390625 638 l 1
 419.900390625 638 430.900390625 649 445.900390625 658 c 1
 654.900390625 76 l 2
 672.900390625 25 706.100585938 21.5 744.900390625 18 c 1
 750.900390625 12 750.900390625 1 744.900390625 -5 c 1
 707.900390625 -4 677.900390625 0 636.900390625 0 c 0
 597.900390625 0 542.900390625 -4 505.900390625 -5 c 1
 499.900390625 1 499.900390625 12 505.900390625 18 c 1
 553.5 21.400390625 594 21 579.900390625 62 c 2
 516.400390625 246 l 1
 307.900390625 246 l 2
 283.900390625 246 277.900390625 237 272.900390625 224 c 2
 212.900390625 69 l 2
339.302734375 309 m 1
 461.302734375 309 l 1
 405.203125 471 l 1
 339.302734375 309 l 1
472.502929688 301 m 1
 327.403320312 301 l 1
 405.703125 493.700195312 l 1
 472.502929688 301 l 1
251.903320312 83.2001953125 m 2
 247.903320312 72.900390625 246.904296875 67.798828125 246.604492188 63.9990234375 c 0
 245.504882812 49.8994140625 258.8046875 50.599609375 294.104492188 48.19921875 c 2
 295.604492188 48.099609375 l 1
 296.604492188 47.099609375 l 2
 328.004882812 15.69921875 316.3046875 -14.400390625 295.604492188 -35.1005859375 c 2
 294.3046875 -36.30078125 l 1
 292.604492188 -36.30078125 l 2
 246.404296875 -35.1005859375 213.204101562 -31.0009765625 173.904296875 -31.0009765625 c 0
 131.00390625 -31.0009765625 104.103515625 -35.201171875 64.703125 -36.30078125 c 2
 62.4033203125 -36.30078125 l 1
 61.103515625 -35.1005859375 l 2
 30.8037109375 -4.80078125 38.3037109375 25.298828125 60.103515625 47.0986328125 c 2
 61.103515625 48.0986328125 l 1
 63.103515625 48.298828125 l 2
 111.50390625 51.5986328125 124.103515625 51.8984375 146.303710938 104.098632812 c 2
 386.303710938 668.999023438 l 1
 405.704101562 668.999023438 l 1
 416.803710938 673.499023438 447.50390625 695.19921875 458.103515625 701.499023438 c 2
 462.303710938 703.999023438 l 1
 684.103515625 86.3994140625 l 2
 698.103515625 46.7998046875 715.803710938 51.7998046875 757.403320312 48 c 2
 758.803710938 47.900390625 l 1
 759.903320312 46.80078125 l 2
 790.903320312 15.80078125 779.603515625 -14.099609375 758.603515625 -35.099609375 c 2
 757.303710938 -36.2998046875 l 1
 755.103515625 -36.2998046875 l 2
 708.103515625 -35 676.303710938 -31 636.903320312 -31 c 0
 591.303710938 -31 534.803710938 -35.2001953125 495.103515625 -36.2998046875 c 2
 493.403320312 -36.2998046875 l 1
 492.103515625 -35.099609375 l 2
 462.203125 -5.19921875 468.703125 22.6005859375 491.103515625 45.0009765625 c 2
 492.103515625 46.1005859375 l 1
 493.603515625 46.2001953125 l 2
 511.103515625 47.2001953125 520.703125 48.900390625 527.203125 51.1005859375 c 0
 543.703125 56.80078125 542.802734375 67.30078125 533.102539062 95.400390625 c 2
 494.202148438 215 l 1
 307.90234375 215 l 2
 298.102539062 215 303.002929688 215 302.502929688 214.900390625 c 0
 302.403320312 214.5 302.103515625 213.599609375 301.803710938 212.799804688 c 2
 251.903320312 83.2001953125 l 2
244.50390625 86.0986328125 m 2
 294.30859375 215.697265625 l 2
 295.408203125 218.497070312 295.608398438 222.997070312 307.908203125 222.997070312 c 2
 500.0078125 222.997070312 l 1
 540.607421875 97.8974609375 l 2
 549.907226562 70.8974609375 553.506835938 51.59765625 529.806640625 43.498046875 c 0
 522.106445312 40.8984375 514.40625 39.498046875 495.706054688 38.2978515625 c 1
 477.40625 19.2978515625 471.106445312 -1.7021484375 496.606445312 -28.3017578125 c 1
 533.90625 -27.2021484375 591.706054688 -23.001953125 636.90625 -23.001953125 c 0
 676.40625 -23.001953125 708.306640625 -27.001953125 754.106445312 -28.3017578125 c 1
 771.40625 -10.4013671875 781.505859375 12.5986328125 755.206054688 40.1982421875 c 1
 716.606445312 43.498046875 691.90625 39.998046875 676.505859375 83.6982421875 c 2
 458.10546875 692.098632812 l 1
 446.005859375 684.3984375 418.805664062 664.998046875 407.805664062 661.198242188 c 2
 407.10546875 660.998046875 l 1
 391.60546875 660.998046875 l 1
 153.705078125 100.998046875 l 2
 130.8046875 46.998046875 113.004882812 43.6982421875 64.705078125 40.3984375 c 1
 47.0048828125 21.8984375 39.8046875 -1.3017578125 65.6044921875 -28.3017578125 c 1
 103.704101562 -27.2021484375 130.704101562 -23.001953125 173.904296875 -23.001953125 c 0
 213.404296875 -23.001953125 245.3046875 -27.001953125 291.104492188 -28.3017578125 c 1
 308.704101562 -9.7021484375 318.303710938 12.7978515625 292.00390625 40.3974609375 c 1
 262.704101562 42.3974609375 236.803710938 40.697265625 238.603515625 64.59765625 c 0
 239.00390625 69.498046875 240.404296875 75.3984375 244.50390625 86.0986328125 c 2
EndSplineSet
Position2: "'cpsp' Capital Spacing lookup 0 subtable" dx=2 dy=0 dh=5 dv=0
EndChar

StartChar: B
Encoding: 66 66 13
Width: 744
GlyphClass: 2
Flags: MW
AnchorPoint: "Anchor-0" 357 850 basechar 0
LayerCount: 2
Fore
SplineSet
279 361 m 1
 355 361 l 2
 438 361 500 396 500 481 c 0
 500 583 424 626 368 626 c 0
 281 626 281.5 616 281 583 c 0
 279.900390625 512.900390625 279.200195312 433.900390625 279 361 c 1
238 645 m 0
 281 645 328 650 363 650 c 0
 549 650 575 560 575 493 c 0
 575 438.700195312 533.099609375 387.400390625 483 362 c 1
 483 360 l 1
 570 335 634 280 634 184 c 0
 634 98 584 -5 385 -5 c 0
 296 -5 282 0 239 0 c 0
 188.299804688 0 158 -4 109 -5 c 1
 103 1 103 12 109 18 c 1
 179 21 194.299804688 25.2998046875 196 109 c 0
 197.700195312 192 198 238 198 321 c 0
 198 404 197.299804688 453 196 536 c 0
 194.700195312 618.700195312 179 624 109 627 c 1
 103 633 103 644 109 650 c 1
 159 649 187.700195312 645 238 645 c 0
281 85 m 0
 281.700195312 52 294 18 364 18 c 0
 516 18 547 92 547 165 c 0
 547 255 487 337 350 337 c 2
 279 337 l 1
 279 321.299804688 l 2
 279 238.299804688 279.299804688 168 281 85 c 0
310.200195312 392 m 1
 355 392.000976562 l 2
 433.5 392.000976562 469 420.701171875 469 481.000976562 c 0
 469 567.701171875 406.5 595.000976562 368 595.000976562 c 0
 332.099609375 595.000976562 318.799804688 593.000976562 312.200195312 591.600585938 c 1
 311.900390625 585.600585938 312 584.400390625 312 582.5 c 0
 311 519.099609375 310.5 452 310.200195312 392 c 1
355 384.000976562 m 2
 302.099609375 384 l 1
 302.099609375 388 l 2
 302.299804688 449.400390625 303 517.80078125 304 582.600585938 c 0
 304 585.400390625 304.200195312 593.100585938 304.700195312 597.80078125 c 1
 315.299804688 601.000976562 324.200195312 603.000976562 368 603.000976562 c 0
 409.900390625 603.000976562 477 572.80078125 477 481.000976562 c 0
 477 415.500976562 435.700195312 384.000976562 355 384.000976562 c 2
238 676 m 0
 282.5 676 328.399414062 680.997070312 362.999023438 680.997070312 c 0
 568.69921875 680.997070312 605.999023438 569.596679688 605.999023438 492.997070312 c 0
 605.999023438 439.897460938 575.899414062 396.297851562 546.399414062 368.797851562 c 1
 619.299804688 332.397460938 665 269.697265625 665 183.997070312 c 0
 665 78.697265625 593.900390625 -36.0029296875 385 -36.0029296875 c 0
 289 -36.0029296875 277.900390625 -31.0029296875 239 -31.0029296875 c 0
 183.599609375 -31.0029296875 149.799804688 -35.1025390625 98.099609375 -36.2021484375 c 2
 96.3994140625 -36.3017578125 l 1
 95.19921875 -35.1015625 l 2
 64.798828125 -4.701171875 72.5986328125 24.9990234375 94.1982421875 46.9990234375 c 2
 95.5986328125 48.4990234375 l 1
 97.798828125 48.4990234375 l 2
 169.3984375 51.5986328125 162.8984375 55.798828125 164.998046875 119.69921875 c 0
 167.797851562 205.69921875 166.998046875 241.099609375 166.998046875 321 c 0
 166.998046875 407.099609375 166.59765625 445.69921875 164.998046875 525.499023438 c 0
 163.698242188 590.798828125 156.3984375 592.798828125 97.0986328125 596.499023438 c 2
 95.5986328125 596.598632812 l 1
 94.4990234375 597.598632812 l 2
 63.5986328125 628.499023438 73.4990234375 658.399414062 95.19921875 680.099609375 c 2
 96.3994140625 681.299804688 l 1
 98.099609375 681.200195312 l 2
 156 680 190.400390625 676 238 676 c 0
237.999023438 667.997070312 m 0
 190.19921875 667.997070312 157.298828125 671.897460938 99.69921875 673.197265625 c 1
 81.9990234375 654.897460938 72.798828125 631.897460938 99.0986328125 604.397460938 c 1
 158.698242188 600.59765625 171.598632812 593.197265625 172.999023438 525.59765625 c 0
 174.598632812 445.797851562 174.999023438 407.09765625 174.999023438 320.998046875 c 0
 174.999023438 241.198242188 175.899414062 205.598632812 172.999023438 119.3984375 c 0
 170.899414062 55.298828125 172.999023438 43.8984375 99.0986328125 40.5986328125 c 1
 80.8984375 21.5986328125 73.998046875 -1.3017578125 99.6982421875 -28.2021484375 c 1
 149.098632812 -27.1025390625 183.798828125 -23.0029296875 238.999023438 -23.0029296875 c 0
 278.899414062 -23.0029296875 289.299804688 -28.0029296875 385 -28.0029296875 c 0
 590.200195312 -28.0029296875 657 82.9970703125 657 183.997070312 c 0
 657 268.796875 610.299804688 329.997070312 537.599609375 364.197265625 c 2
 532.099609375 366.796875 l 1
 536.69921875 370.796875 l 2
 567.69921875 397.997070312 597.999023438 440.997070312 597.999023438 492.997070312 c 0
 597.999023438 566.197265625 564.499023438 672.997070312 362.999023438 672.997070312 c 0
 328.999023438 672.997070312 283.098632812 667.997070312 237.999023438 667.997070312 c 0
311.999023438 85.4970703125 m 0
 312.499023438 61.0966796875 312.69921875 48.9970703125 363.999023438 48.9970703125 c 0
 504.598632812 48.9970703125 515.999023438 107.796875 515.999023438 164.997070312 c 0
 515.999023438 241.897460938 468.098632812 305.997070312 349.999023438 305.997070312 c 2
 309.999023438 305.997070312 l 1
 309.999023438 225.397460938 310.499023438 160.497070312 311.999023438 85.4970703125 c 0
303.999023438 85.296875 m 0
 302.499023438 161.596679688 301.998046875 228.096679688 301.998046875 309.997070312 c 2
 301.998046875 313.997070312 l 1
 349.998046875 313.997070312 l 2
 471.797851562 313.997070312 523.998046875 246.197265625 523.998046875 164.997070312 c 0
 523.998046875 104.897460938 508.498046875 40.9970703125 363.998046875 40.9970703125 c 0
 309.8984375 40.9970703125 304.598632812 58.197265625 303.999023438 85.296875 c 0
EndSplineSet
Position2: "'cpsp' Capital Spacing lookup 0 subtable" dx=2 dy=0 dh=5 dv=0
EndChar

StartChar: C
Encoding: 67 67 14
Width: 764
GlyphClass: 2
Flags: MW
AnchorPoint: "Anchor-0" 390 850 basechar 0
LayerCount: 2
Fore
SplineSet
407 -10 m 0
 192 -10 91 154 91 315 c 0
 91 419.299804688 126.599609375 512.200195312 193 573 c 0
 252 627 323 658 408 658 c 0
 531 658 576 618 627 613 c 1
 636 558 644 510 649 458 c 1
 641.799804688 453.200195312 635.200195312 452.200195312 626 453 c 1
 600 539 541 631 403 631 c 0
 351 631 281.599609375 601 232 540 c 0
 195.5 495.099609375 175 420.299804688 175 334 c 0
 175 188 251 21 406 21 c 0
 499 21 567 62 638 140 c 1
 649 140 656 134 661 125 c 1
 593 36 504 -10 407 -10 c 0
407 -41 m 0
 168 -41 59.9990234375 145.702148438 59.9990234375 315.001953125 c 0
 59.9990234375 430.1015625 100.499023438 530.301757812 172.098632812 595.901367188 c 0
 236.598632812 654.901367188 307.198242188 689.000976562 407.998046875 689.000976562 c 0
 542.59765625 689.000976562 595.297851562 647.30078125 629.998046875 643.900390625 c 2
 653.698242188 641.5 l 1
 654.198242188 638.5 l 2
 665.698242188 568.299804688 675.3984375 507.5 681.598632812 443 c 2
 681.798828125 440.299804688 l 1
 679.499023438 439 l 2
 658.798828125 428.099609375 634.69921875 417.399414062 602.899414062 427.999023438 c 2
 600.999023438 428.69921875 l 1
 596.298828125 443.999023438 l 2
 571.098632812 527.19921875 519.999023438 599.999023438 402.999023438 599.999023438 c 0
 345.298828125 599.999023438 294.3984375 567.499023438 256.098632812 520.399414062 c 0
 224.8984375 481.999023438 205.998046875 411.69921875 205.998046875 333.999023438 c 0
 205.998046875 189.098632812 281.498046875 51.9990234375 405.998046875 51.9990234375 c 0
 495.698242188 51.9990234375 556.198242188 96.19921875 623.098632812 169.69921875 c 2
 624.298828125 170.999023438 l 1
 626.098632812 170.999023438 l 2
 674.499023438 170.999023438 683.298828125 145.999023438 695.69921875 123.598632812 c 2
 696.999023438 121.298828125 l 1
 695.399414062 119.19921875 l 2
 617.799804688 17.599609375 520.599609375 -41 407 -41 c 0
406.999023438 -32.998046875 m 0
 516.798828125 -32.998046875 610.500976562 22.5009765625 687.401367188 122.000976562 c 1
 676.1015625 142.600585938 670.401367188 162.100585938 627.801757812 163.000976562 c 1
 561.401367188 90.4013671875 498.401367188 44.0009765625 406.000976562 44.0009765625 c 0
 274.500976562 44.0009765625 198.000976562 187.600585938 198.000976562 334.000976562 c 0
 198.000976562 412.80078125 216.80078125 484.80078125 249.80078125 525.500976562 c 0
 289.100585938 573.80078125 342.200195312 608.000976562 403 608.000976562 c 0
 524.400390625 608.000976562 578.400390625 531.100585938 604 446.30078125 c 2
 607.400390625 435.000976562 l 1
 633 427.201171875 652.799804688 434.201171875 673.399414062 444.901367188 c 1
 667.399414062 505.801757812 657.899414062 566.202148438 646.799804688 634.202148438 c 1
 629.200195312 635.90234375 l 2
 590.100585938 639.702148438 541.400390625 681.001953125 408 681.001953125 c 0
 309.099609375 681.001953125 240.899414062 648.001953125 177.499023438 590.001953125 c 0
 107.798828125 526.202148438 67.9990234375 428.301757812 67.9990234375 315.001953125 c 0
 67.9990234375 148.801757812 173.298828125 -32.998046875 406.999023438 -32.998046875 c 0
EndSplineSet
Position2: "'cpsp' Capital Spacing lookup 0 subtable" dx=2 dy=0 dh=5 dv=0
EndChar

StartChar: D
Encoding: 68 68 15
Width: 877
GlyphClass: 2
Flags: MW
AnchorPoint: "Anchor-0" 406 850 basechar 0
LayerCount: 2
Fore
SplineSet
287.099609375 109 m 0
 289.19921875 47.099609375 297 19 405 19 c 0
 546 19 676 82 676 284 c 0
 676 438 596 626 380 626 c 0
 288.299804688 626 288.599609375 597.900390625 287.099609375 536 c 0
 285 452 284.099609375 403 284.099609375 320 c 0
 284.099609375 237 284.299804688 191.5 287.099609375 109 c 0
244.100585938 645 m 0
 282.000976562 645 350.100585938 650 418.000976562 650 c 0
 610.000976562 650 765.000976562 494 765.000976562 308 c 0
 765.000976562 62 577.000976562 -5 436.000976562 -5 c 0
 333.000976562 -5 281.000976562 0 245.100585938 0 c 0
 194.400390625 0 164.100585938 -4 115.100585938 -5 c 1
 109.100585938 1 109.100585938 12 115.100585938 18 c 1
 185.100585938 21 200.100585938 26 202.100585938 109 c 0
 204.100585938 192 205.100585938 238 205.100585938 321 c 0
 205.100585938 404 204.100585938 453 202.100585938 536 c 0
 200.100585938 619 185.100585938 624 115.100585938 627 c 1
 109.100585938 633 109.100585938 644 115.100585938 650 c 1
 165.100585938 649 193.80078125 645 244.100585938 645 c 0
318.000976562 110.099609375 m 0
 319.901367188 62.5 324.702148438 49.9990234375 405.001953125 49.9990234375 c 0
 539.40234375 49.9990234375 645.001953125 104.999023438 645.001953125 283.999023438 c 0
 645.001953125 434.298828125 568.501953125 595.999023438 380.001953125 595.999023438 c 0
 323.801757812 595.999023438 319.901367188 586.298828125 318.000976562 535.19921875 c 0
 314.80078125 447.999023438 315.100585938 399.69921875 315.100585938 319.999023438 c 0
 315.100585938 233.69921875 314.80078125 189.099609375 318.000976562 110.099609375 c 0
310.1015625 109.698242188 m 0
 306.901367188 188.797851562 307.100585938 233.697265625 307.100585938 319.997070312 c 0
 307.100585938 399.697265625 306.900390625 448.09765625 310.100585938 535.498046875 c 0
 312.000976562 588.59765625 320.600585938 603.998046875 380.000976562 603.998046875 c 0
 574.600585938 603.998046875 653.000976562 436.297851562 653.000976562 283.998046875 c 0
 653.000976562 100.09765625 542.000976562 41.998046875 405.000976562 41.998046875 c 0
 323.000976562 41.998046875 312.201171875 58.7978515625 310.1015625 109.698242188 c 0
244.100585938 675.997070312 m 0
 282.000976562 675.997070312 353.5 680.994140625 418 680.994140625 c 0
 631.099609375 680.994140625 796 507.39453125 796 307.994140625 c 0
 796 35.39453125 581 -36.005859375 436 -36.005859375 c 0
 326.200195312 -36.005859375 277.900390625 -31.005859375 245.100585938 -31.005859375 c 0
 189.700195312 -31.005859375 155.900390625 -35.10546875 104.200195312 -36.205078125 c 2
 102.5 -36.3046875 l 1
 101.299804688 -35.1044921875 l 2
 71.099609375 -4.904296875 78.19921875 24.99609375 100.599609375 47.396484375 c 2
 101.69921875 48.396484375 l 1
 103.19921875 48.49609375 l 2
 166.19921875 52.095703125 169.099609375 45.99609375 171.099609375 109.795898438 c 0
 173.799804688 195.99609375 174.099609375 241.396484375 174.099609375 320.99609375 c 0
 174.099609375 406.99609375 173.5 450.396484375 171.099609375 530.196289062 c 0
 169 597.596679688 159 592.196289062 103.099609375 596.49609375 c 2
 101.599609375 596.595703125 l 1
 100.599609375 597.595703125 l 2
 69.69921875 628.49609375 79.599609375 658.396484375 101.299804688 680.096679688 c 2
 102.5 681.296875 l 1
 104.200195312 681.197265625 l 2
 162.100585938 679.997070312 196.500976562 675.997070312 244.100585938 675.997070312 c 0
244.099609375 667.994140625 m 0
 196.299804688 667.994140625 163.298828125 671.89453125 105.69921875 673.194335938 c 1
 87.9990234375 654.89453125 78.8994140625 631.89453125 105.19921875 604.294921875 c 1
 159.999023438 600.094726562 176.899414062 600.89453125 179.099609375 530.494140625 c 0
 181.5 450.694335938 182.099609375 407.094726562 182.099609375 320.995117188 c 0
 182.099609375 241.395507812 181.799804688 195.795898438 179.099609375 109.49609375 c 0
 177.099609375 43.595703125 168 43.99609375 105.200195312 40.595703125 c 1
 86.900390625 21.595703125 80 -1.3046875 105.700195312 -28.205078125 c 1
 155.100585938 -27.10546875 189.900390625 -23.005859375 245.100585938 -23.005859375 c 0
 278.600585938 -23.005859375 326.400390625 -28.005859375 436 -28.005859375 c 0
 579 -28.005859375 788 41.39453125 788 307.994140625 c 0
 788 502.994140625 626.599609375 672.994140625 418 672.994140625 c 0
 353.799804688 672.994140625 282.599609375 667.994140625 244.099609375 667.994140625 c 0
EndSplineSet
Position2: "'cpsp' Capital Spacing lookup 0 subtable" dx=2 dy=0 dh=5 dv=0
EndChar

StartChar: E
Encoding: 69 69 16
Width: 787
GlyphClass: 2
Flags: MW
AnchorPoint: "Anchor-0" 162 850 basechar 0
LayerCount: 2
Fore
SplineSet
420.099609375 357 m 2
 505.099609375 357 508.099609375 369 511.099609375 424 c 1
 517.099609375 430 528.099609375 430 534.099609375 424 c 1
 533.099609375 394 529.099609375 371.599609375 529.099609375 338 c 0
 529.099609375 307.5 533.099609375 295 534.099609375 260 c 1
 528.099609375 254 517.099609375 254 511.099609375 260 c 1
 508.099609375 305 505.099609375 327 420.099609375 327 c 2
 304.099609375 328 l 1
 304.099609375 328 303.099609375 152.5 306.099609375 69 c 0
 307.099609375 42 320.099609375 26 342.099609375 26 c 2
 498.099609375 26 l 2
 574.099609375 26 609.099609375 98 629.099609375 170 c 1
 642.19921875 173.200195312 643.69921875 170.900390625 654.099609375 165 c 1
 646.099609375 114 631.099609375 45 617.099609375 -5 c 1
 617.099609375 -5 537.099609375 0 489.099609375 0 c 2
 264.099609375 0 l 1
 264.099609375 0 183.099609375 -4 134.099609375 -5 c 1
 128.099609375 1 128.099609375 12 134.099609375 18 c 1
 204.099609375 21 218.599609375 26 221.099609375 109 c 0
 223.599609375 191.5 223.099609375 238 223.099609375 321 c 0
 223.099609375 404 223.599609375 454.5 221.099609375 536 c 0
 218.599609375 619 204.099609375 624 134.099609375 627 c 1
 128.099609375 633 128.099609375 644 134.099609375 650 c 1
 184.099609375 649 263.099609375 645 263.099609375 645 c 1
 558.099609375 645 l 2
 582.099609375 645 590.099609375 649 607.099609375 652 c 0
 610.099609375 652 611.099609375 651 611.099609375 649 c 0
 613.099609375 641 628.099609375 542 633.099609375 501 c 1
 623.299804688 496.299804688 622.5 494.200195312 610.099609375 496 c 1
 588.099609375 565 572.099609375 618 497.099609375 618 c 2
 342.099609375 618 l 2
 318.099609375 618 307 598 306.099609375 574 c 0
 303.099609375 492 304.099609375 356 304.099609375 356 c 1
 420.099609375 357 l 2
640.399414062 660.299804688 m 0
 645.899414062 632.799804688 661.295898438 525.796875 666.196289062 485.497070312 c 2
 666.49609375 482.596679688 l 1
 663.896484375 481.396484375 l 2
 641.696289062 470.796875 620.196289062 463.296875 588.896484375 467.697265625 c 2
 586.396484375 467.997070312 l 1
 585.696289062 470.397460938 l 2
 560.795898438 548.59765625 551.696289062 586.998046875 497.096679688 586.998046875 c 2
 352.096679688 586.998046875 l 2
 346.896484375 586.998046875 337.49609375 585.59765625 336.99609375 572.897460938 c 0
 334.795898438 511.697265625 334.795898438 427.296875 334.895507812 386.997070312 c 1
 419.995117188 387.997070312 l 2
 494.294921875 388.897460938 476.6953125 396.697265625 480.6953125 436.197265625 c 2
 480.794921875 437.59765625 l 1
 481.794921875 438.59765625 l 2
 512.89453125 469.697265625 542.794921875 459.09765625 564.294921875 437.59765625 c 2
 565.495117188 436.397460938 l 1
 565.495117188 434.697265625 l 2
 564.1953125 395.796875 560.095703125 368.296875 560.095703125 337.997070312 c 0
 560.095703125 307.197265625 564.395507812 285.897460938 565.395507812 249.297851562 c 2
 565.495117188 247.498046875 l 1
 564.1953125 246.297851562 l 2
 532.995117188 215.09765625 503.6953125 223.59765625 481.995117188 245.297851562 c 2
 480.895507812 246.297851562 l 1
 480.795898438 247.698242188 l 2
 477.095703125 290.698242188 474.395507812 295.297851562 419.995117188 295.998046875 c 2
 334.895507812 296.8984375 l 1
 334.795898438 237.3984375 334.895507812 137.3984375 336.995117188 80.0986328125 c 0
 337.6953125 61.798828125 352.095703125 56.9990234375 362.095703125 56.9990234375 c 2
 498.095703125 56.9990234375 l 2
 557.1953125 56.9990234375 583.395507812 121.798828125 603.395507812 193.598632812 c 2
 604.095703125 195.798828125 l 1
 606.295898438 196.3984375 l 2
 646.696289062 206.198242188 667.696289062 192.8984375 685.596679688 182.698242188 c 2
 687.997070312 181.297851562 l 1
 687.596679688 178.59765625 l 2
 676.296875 106.59765625 658.197265625 27.197265625 640.997070312 -34.40234375 c 2
 640.096679688 -37.501953125 l 1
 636.896484375 -37.3017578125 l 2
 610.096679688 -35.6015625 553.497070312 -31.001953125 489.096679688 -31.001953125 c 2
 264.796875 -31.001953125 l 2
 253.697265625 -31.501953125 163.397460938 -35.40234375 123.197265625 -36.2021484375 c 2
 121.497070312 -36.3017578125 l 1
 120.296875 -35.1015625 l 2
 89.896484375 -4.701171875 97.5966796875 24.9990234375 119.196289062 46.9990234375 c 2
 120.596679688 48.3994140625 l 1
 122.696289062 48.599609375 l 2
 184.196289062 52.69921875 187.696289062 56.099609375 190.096679688 120 c 0
 193.296875 205.099609375 192.096679688 240.899414062 192.096679688 320.999023438 c 0
 192.096679688 407.598632812 193.497070312 447.198242188 190.096679688 524.998046875 c 0
 187.096679688 594.59765625 178.596679688 593.59765625 122.896484375 596.397460938 c 2
 120.596679688 596.59765625 l 1
 119.596679688 597.59765625 l 2
 88.6962890625 628.498046875 98.5966796875 658.3984375 120.296875 680.098632812 c 2
 121.497070312 681.298828125 l 1
 123.197265625 681.19921875 l 2
 173.796875 680.19921875 246.796875 675.999023438 263.697265625 675.999023438 c 2
 558.09765625 675.999023438 l 2
 581.498046875 675.999023438 585.8984375 682.999023438 607.098632812 682.999023438 c 0
 633.798828125 682.999023438 639.499023438 664.399414062 640.399414062 660.299804688 c 0
632.595703125 658.697265625 m 0
 630.795898438 667.09765625 622.39453125 675.001953125 607.094726562 675.001953125 c 0
 588.094726562 675.001953125 584.294921875 668.001953125 558.094726562 668.001953125 c 2
 263.694335938 668.001953125 l 2
 246.194335938 668.001953125 175.994140625 672.1015625 124.694335938 673.201171875 c 1
 106.994140625 654.901367188 97.994140625 631.901367188 124.194335938 604.401367188 c 1
 181.094726562 601.500976562 194.995117188 597.100585938 198.094726562 525.30078125 c 0
 201.495117188 447.30078125 200.094726562 407.500976562 200.094726562 321.000976562 c 0
 200.094726562 241.000976562 201.294921875 205.000976562 198.094726562 119.701171875 c 0
 195.594726562 54.201171875 187.39453125 44.80078125 124.194335938 40.6005859375 c 1
 105.89453125 21.6005859375 98.994140625 -1.2998046875 124.694335938 -28.2001953125 c 1
 163.293945312 -27.400390625 253.694335938 -23.5 264.494140625 -23 c 2
 264.59375 -23 l 1
 489.09375 -23 l 2
 550.994140625 -23 606.293945312 -27.2998046875 634.194335938 -29.099609375 c 1
 650.494140625 29.80078125 668.09375 107.100585938 679.193359375 177.100585938 c 1
 662.59375 186.500976562 645.994140625 197.000976562 610.494140625 189.100585938 c 1
 590.89453125 119.500976562 563.89453125 49.0009765625 498.094726562 49.0009765625 c 2
 362.094726562 49.0009765625 l 2
 349.89453125 49.0009765625 329.89453125 55.6005859375 328.994140625 79.80078125 c 0
 326.89453125 138.600585938 326.694335938 243.900390625 326.89453125 301 c 2
 326.89453125 305 l 1
 420.094726562 304 l 2
 475.594726562 303.299804688 484.495117188 295 488.594726562 249.900390625 c 1
 506.995117188 232.200195312 529.594726562 224.299804688 557.294921875 250.799804688 c 1
 556.1953125 285 552.095703125 306.900390625 552.095703125 338 c 0
 552.095703125 368.599609375 555.99609375 394.799804688 557.396484375 433.200195312 c 1
 539.196289062 450.799804688 516.196289062 460.399414062 488.49609375 433.999023438 c 1
 485.095703125 397.19921875 496.795898438 380.999023438 420.095703125 379.999023438 c 2
 326.895507812 378.899414062 l 1
 326.895507812 382.999023438 l 2
 326.795898438 422.098632812 326.696289062 509.598632812 328.99609375 573.198242188 c 0
 329.696289062 591.8984375 345.896484375 594.998046875 352.096679688 594.998046875 c 2
 497.096679688 594.998046875 l 2
 557.497070312 594.998046875 568.697265625 550.198242188 592.497070312 475.297851562 c 1
 618.997070312 472.297851562 636.596679688 477.397460938 657.896484375 487.397460938 c 1
 652.99609375 527.197265625 637.795898438 632.897460938 632.595703125 658.697265625 c 0
EndSplineSet
Position2: "'cpsp' Capital Spacing lookup 0 subtable" dx=2 dy=0 dh=5 dv=0
EndChar

StartChar: F
Encoding: 70 70 17
Width: 686
GlyphClass: 2
Flags: MW
AnchorPoint: "Anchor-0" 162 850 basechar 0
LayerCount: 2
Fore
SplineSet
306.099609375 109 m 0
 308.5 26 344.999023438 21 414.999023438 18 c 1
 420.999023438 12 420.999023438 1 414.999023438 -5 c 1
 365.999023438 -4 323.499023438 0 264.999023438 0 c 0
 213.899414062 0 183.099609375 -4 134.099609375 -5 c 1
 128.099609375 1 128.099609375 12 134.099609375 18 c 1
 204.099609375 21 218.599609375 26 221.099609375 109 c 0
 223.599609375 191.5 223.099609375 238 223.099609375 321 c 0
 223.099609375 404 223.599609375 454.5 221.099609375 536 c 0
 218.599609375 619 204.099609375 624 134.099609375 627 c 1
 128.099609375 633 128.099609375 644 134.099609375 650 c 1
 184.099609375 649 263.099609375 645 263.099609375 645 c 1
 518.099609375 645 l 2
 542.099609375 645 550.099609375 649 567.099609375 652 c 0
 570.099609375 652 571.099609375 651 571.099609375 649 c 0
 573.099609375 641 588.099609375 542 593.099609375 501 c 1
 583.299804688 496.299804688 582.5 494.200195312 570.099609375 496 c 1
 548.099609375 565 532.099609375 618 457.099609375 618 c 2
 342.099609375 618 l 2
 318.099609375 618 307 598 306.099609375 574 c 0
 303.099609375 492 304.099609375 346 304.099609375 346 c 1
 410.099609375 347 l 2
 495.099609375 347 498.099609375 359 501.099609375 414 c 1
 507.099609375 420 518.099609375 420 524.099609375 414 c 1
 523.099609375 384 519.099609375 361.599609375 519.099609375 328 c 0
 519.099609375 297.5 523.099609375 285 524.099609375 250 c 1
 518.099609375 244 507.099609375 244 501.099609375 250 c 1
 498.099609375 295 495.099609375 317 410.099609375 317 c 2
 304.099609375 318 l 1
 304.099609375 318 303.099609375 192.5 306.099609375 109 c 0
338.999023438 120 m 0
 341.399414062 56.099609375 364.798828125 52.697265625 426.298828125 48.59765625 c 2
 428.3984375 48.3974609375 l 1
 429.798828125 46.9970703125 l 2
 451.3984375 24.9970703125 459.198242188 -4.703125 428.797851562 -35.103515625 c 2
 427.59765625 -36.3037109375 l 1
 425.897460938 -36.2041015625 l 2
 385.697265625 -35.404296875 275.697265625 -31.00390625 264.197265625 -31.00390625 c 0
 252.59765625 -31.00390625 163.397460938 -35.404296875 123.197265625 -36.2041015625 c 2
 121.497070312 -36.3037109375 l 1
 120.296875 -35.103515625 l 2
 89.896484375 -4.703125 97.5966796875 24.9970703125 119.196289062 46.9970703125 c 2
 120.596679688 48.3974609375 l 1
 122.696289062 48.59765625 l 2
 184.196289062 52.697265625 187.696289062 56.09765625 190.096679688 119.998046875 c 0
 193.296875 205.09765625 192.096679688 240.897460938 192.096679688 320.997070312 c 0
 192.096679688 407.596679688 193.497070312 447.196289062 190.096679688 524.99609375 c 0
 187.096679688 594.595703125 178.596679688 593.595703125 122.896484375 596.395507812 c 2
 120.596679688 596.595703125 l 1
 119.596679688 597.595703125 l 2
 88.6962890625 628.49609375 98.5966796875 658.396484375 120.296875 680.096679688 c 2
 121.497070312 681.296875 l 1
 123.197265625 681.197265625 l 2
 173.796875 680.197265625 246.796875 675.997070312 263.697265625 675.997070312 c 2
 518.09765625 675.997070312 l 2
 541.498046875 675.997070312 545.8984375 682.997070312 567.098632812 682.997070312 c 0
 593.798828125 682.997070312 599.499023438 664.397460938 600.399414062 660.297851562 c 0
 605.899414062 632.797851562 621.299804688 525.797851562 626.200195312 485.498046875 c 2
 626.5 482.59765625 l 1
 623.900390625 481.397460938 l 2
 601.700195312 470.797851562 580.200195312 463.297851562 548.900390625 467.698242188 c 2
 546.400390625 467.998046875 l 1
 545.700195312 470.3984375 l 2
 520.799804688 548.598632812 511.700195312 586.999023438 457.100585938 586.999023438 c 2
 352.100585938 586.999023438 l 2
 346.900390625 586.999023438 337.5 585.598632812 337 572.8984375 c 0
 334.799804688 511.698242188 334.799804688 417.297851562 334.899414062 376.998046875 c 1
 409.999023438 377.998046875 l 2
 484.298828125 378.8984375 466.69921875 386.698242188 470.69921875 426.198242188 c 2
 470.798828125 427.598632812 l 1
 471.798828125 428.598632812 l 2
 502.8984375 459.698242188 532.798828125 449.098632812 554.298828125 427.598632812 c 2
 555.499023438 426.3984375 l 1
 555.499023438 424.698242188 l 2
 554.19921875 385.797851562 550.099609375 358.297851562 550.099609375 327.998046875 c 0
 550.099609375 297.198242188 554.399414062 275.8984375 555.399414062 239.298828125 c 2
 555.499023438 237.499023438 l 1
 554.19921875 236.298828125 l 2
 522.999023438 205.098632812 493.69921875 213.598632812 471.999023438 235.298828125 c 2
 470.899414062 236.298828125 l 1
 470.799804688 237.69921875 l 2
 467.099609375 280.69921875 464.399414062 285.298828125 409.999023438 285.999023438 c 2
 334.899414062 286.899414062 l 1
 334.799804688 227.399414062 336.899414062 177.299804688 338.999023438 120 c 0
330.998046875 119.698242188 m 0
 328.8984375 178.498046875 326.696289062 233.901367188 326.896484375 291.000976562 c 2
 326.896484375 295.000976562 l 1
 410.096679688 294.000976562 l 2
 465.596679688 293.30078125 474.497070312 285.000976562 478.596679688 239.901367188 c 1
 496.997070312 222.201171875 519.596679688 214.30078125 547.296875 240.80078125 c 1
 546.197265625 275.000976562 542.09765625 296.901367188 542.09765625 328.000976562 c 0
 542.09765625 358.600585938 545.998046875 384.80078125 547.3984375 423.201171875 c 1
 529.198242188 440.80078125 506.198242188 450.400390625 478.498046875 424 c 1
 475.09765625 387.200195312 486.797851562 371 410.09765625 370 c 2
 326.897460938 368.900390625 l 1
 326.897460938 373 l 2
 326.797851562 412.099609375 326.698242188 509.599609375 328.998046875 573.19921875 c 0
 329.698242188 591.899414062 345.8984375 594.999023438 352.098632812 594.999023438 c 2
 457.098632812 594.999023438 l 2
 517.499023438 594.999023438 528.69921875 550.19921875 552.499023438 475.298828125 c 1
 578.999023438 472.298828125 596.598632812 477.3984375 617.8984375 487.3984375 c 1
 612.998046875 527.198242188 597.797851562 632.8984375 592.59765625 658.698242188 c 0
 590.797851562 667.098632812 582.397460938 674.999023438 567.09765625 674.999023438 c 0
 548.09765625 674.999023438 544.297851562 667.999023438 518.09765625 667.999023438 c 2
 263.697265625 667.999023438 l 2
 246.197265625 667.999023438 175.997070312 672.098632812 124.697265625 673.198242188 c 1
 106.997070312 654.8984375 97.9970703125 631.8984375 124.197265625 604.3984375 c 1
 181.09765625 601.498046875 194.998046875 597.09765625 198.09765625 525.297851562 c 0
 201.498046875 447.297851562 200.09765625 407.498046875 200.09765625 320.998046875 c 0
 200.09765625 240.998046875 201.297851562 204.998046875 198.09765625 119.698242188 c 0
 195.59765625 54.1982421875 187.397460938 44.7978515625 124.197265625 40.59765625 c 1
 105.897460938 21.59765625 98.9970703125 -1.302734375 124.697265625 -28.203125 c 1
 163.296875 -27.4033203125 253.697265625 -23.0029296875 264.497070312 -23.0029296875 c 0
 277.197265625 -23.0029296875 383.09765625 -27.302734375 424.297851562 -28.203125 c 1
 449.998046875 -1.302734375 443.198242188 21.59765625 424.8984375 40.59765625 c 1
 361.698242188 44.7978515625 333.498046875 54.1982421875 330.998046875 119.698242188 c 0
EndSplineSet
Position2: "'cpsp' Capital Spacing lookup 0 subtable" dx=2 dy=0 dh=5 dv=0
EndChar

StartChar: G
Encoding: 71 71 18
Width: 821
GlyphClass: 2
Flags: MW
AnchorPoint: "Anchor-0" 275 850 basechar 0
LayerCount: 2
Fore
SplineSet
433 658 m 0
 555 658 591 613 651 613 c 1
 658.200195312 577 665.200195312 527.5 673 459 c 1
 665.700195312 453.5 659 453 649 453 c 1
 623 539 564 631 419 631 c 0
 292 631 176 502 176 327 c 0
 176 195 273 16 451 16 c 0
 505 16 565 42 599 74 c 1
 599 236 l 2
 599 276.099609375 571.900390625 279.799804688 517 284 c 1
 511 290 511 304 517 310 c 1
 564 309 602 305 641 305 c 0
 681 305 694 309 724 310 c 1
 730 304 730 290 724 284 c 1
 695 281 678 271.200195312 678 236 c 2
 678 111 l 2
 678 100 683 92 694 83 c 1
 626 25 546 -10 428 -10 c 0
 227 -10 91 134 91 307 c 0
 91 527 261 658 433 658 c 0
568 185 m 2
 566.200195312 259.799804688 559.697265625 253.401367188 498.697265625 256.000976562 c 2
 497.09765625 256.100585938 l 1
 495.998046875 257.200195312 l 2
 472.59765625 280.299804688 477.998046875 320 497.698242188 339.799804688 c 2
 498.8984375 341 l 1
 500.598632812 341 l 2
 545.3984375 340 594.698242188 336 639.797851562 336 c 0
 688.297851562 336 698.998046875 340 741.198242188 341 c 2
 742.8984375 341 l 1
 744.098632812 339.799804688 l 2
 766.8984375 316.899414062 766.298828125 277.399414062 745.798828125 257.19921875 c 2
 744.798828125 256.099609375 l 1
 743.298828125 256 l 2
 704.69921875 253.099609375 710.599609375 258.5 709 185 c 2
 709 121 l 2
 709 101.900390625 732.799804688 91.2001953125 738.599609375 86.5 c 2
 742.399414062 83.5 l 1
 738.69921875 80.400390625 l 2
 655.399414062 9.400390625 568.69921875 -41 427.999023438 -41 c 0
 206.899414062 -41 59.9990234375 120.5 59.9990234375 307 c 0
 59.9990234375 549.299804688 249.598632812 689 432.999023438 689 c 0
 568.69921875 689 610.599609375 644 651 644 c 2
 676.400390625 644 l 1
 677 640.799804688 l 2
 688 586.200195312 696.599609375 525.600585938 705.5 447.200195312 c 2
 705.799804688 444.900390625 l 1
 704 443.5 l 2
 675.5 422.099609375 659.900390625 422 629 422 c 2
 626 422 l 1
 619.299804688 444 l 2
 594.299804688 526.799804688 543.599609375 602 419 602 c 0
 302.400390625 602 207 476.299804688 207 327 c 0
 207 201.5 300.5 47 451 47 c 0
 494.299804688 47 540.599609375 68.099609375 567 88.2998046875 c 1
 568 185 l 2
575.997070312 185.001953125 m 2
 574.997070312 84.3994140625 l 1
 573.497070312 83.19921875 l 2
 545.697265625 61.099609375 497.397460938 39 450.997070312 39 c 0
 294.397460938 39 198.997070312 198.599609375 198.997070312 327 c 0
 198.997070312 478.900390625 296.197265625 610 418.997070312 610 c 0
 547.997070312 610 601.497070312 530.700195312 626.997070312 446.299804688 c 2
 631.897460938 430 l 1
 659.297851562 430.099609375 672.09765625 430 697.297851562 448.5 c 1
 688.897460938 522.200195312 680.297851562 583.299804688 669.797851562 636 c 1
 650.998046875 636 l 2
 605.09765625 636 567.197265625 681 432.997070312 681 c 0
 253.497070312 681 67.9970703125 544.5 67.9970703125 307 c 0
 67.9970703125 124.900390625 211.096679688 -33 427.997070312 -33 c 0
 564.296875 -33 647.796875 14.2001953125 729.497070312 83.1005859375 c 1
 722.497070312 87.6005859375 700.997070312 99.0009765625 700.997070312 121.000976562 c 2
 700.997070312 185.000976562 l 2
 702.497070312 255.901367188 699.697265625 260.801757812 741.197265625 263.901367188 c 1
 755.997070312 279.801757812 758.596679688 311.801757812 739.596679688 333.001953125 c 1
 699.896484375 332.001953125 688.396484375 328.001953125 639.796875 328.001953125 c 0
 594.997070312 328.001953125 546.397460938 331.90234375 502.197265625 333.001953125 c 1
 486.897460938 315.90234375 482.297851562 283.501953125 500.59765625 263.90234375 c 1
 560.697265625 261.40234375 574.197265625 262.40234375 575.997070312 185.001953125 c 2
EndSplineSet
Position2: "'cpsp' Capital Spacing lookup 0 subtable" dx=2 dy=0 dh=5 dv=0
EndChar

StartChar: H
Encoding: 72 72 19
Width: 945
GlyphClass: 2
Flags: MW
AnchorPoint: "Anchor-0" 471 850 basechar 0
LayerCount: 2
Fore
SplineSet
301.5 109 m 0
 303.5 26 318.500976562 21 388.500976562 18 c 1
 394.500976562 12 394.500976562 1 388.500976562 -5 c 1
 338.500976562 -4 309.80078125 0 259.500976562 0 c 0
 208.80078125 0 178.500976562 -4 129.500976562 -5 c 1
 123.500976562 1 123.500976562 12 129.500976562 18 c 1
 199.500976562 21 214.500976562 26 216.500976562 109 c 0
 218.500976562 192 219.500976562 238 219.500976562 321 c 0
 219.500976562 404 218.500976562 453 216.500976562 536 c 0
 214.500976562 619 199.500976562 624 129.500976562 627 c 1
 123.500976562 633 123.500976562 644 129.500976562 650 c 1
 179.500976562 649 208.201171875 645 258.500976562 645 c 0
 309.201171875 645 339.500976562 649 388.500976562 650 c 1
 394.500976562 644 394.500976562 633 388.500976562 627 c 1
 318.500976562 624 304.000976562 619 301.500976562 536 c 0
 299.401367188 465.599609375 298.701171875 420.5 298.500976562 358 c 1
 646.401367188 358 l 1
 646.1015625 420.200195312 645.201171875 466.200195312 643.500976562 536 c 0
 641.500976562 619 626.500976562 624 556.500976562 627 c 1
 550.500976562 633 550.500976562 644 556.500976562 650 c 1
 606.500976562 649 635.201171875 645 685.500976562 645 c 0
 736.201171875 645 766.500976562 649 815.500976562 650 c 1
 821.500976562 644 821.500976562 633 815.500976562 627 c 1
 745.500976562 624 731.000976562 619 728.500976562 536 c 0
 726.000976562 452 725.500976562 403 725.500976562 320 c 0
 725.500976562 237 726.500976562 191.5 728.500976562 109 c 0
 730.500976562 26 745.500976562 21 815.500976562 18 c 1
 821.500976562 12 821.500976562 1 815.500976562 -5 c 1
 765.500976562 -4 736.80078125 0 686.500976562 0 c 0
 635.80078125 0 605.500976562 -4 556.500976562 -5 c 1
 550.500976562 1 550.500976562 12 556.500976562 18 c 1
 626.500976562 21 641.500976562 26 643.500976562 109 c 0
 645.30078125 184.5 645.900390625 256.900390625 646.5 326 c 1
 298.5 326 l 1
 298.5 245.900390625 299.5 192.5 301.5 109 c 0
321.701171875 381 m 1
 322.000976562 424.400390625 322.802734375 468.5 324.302734375 525.400390625 c 0
 326.40234375 602.30078125 339.702148438 601.500976562 399.702148438 604.000976562 c 1
 418.001953125 623.600585938 413.40234375 655.900390625 398.102539062 673 c 1
 353.502929688 671.900390625 306.302734375 668 261.302734375 668 c 0
 213.102539062 668 161.002929688 672 121.703125 673 c 1
 102.703125 651.799804688 105.403320312 619.799804688 120.103515625 604 c 1
 184.403320312 601.299804688 193.703125 598.599609375 195.502929688 525.399414062 c 0
 197.502929688 442.399414062 196.502929688 403.69921875 196.502929688 320.999023438 c 0
 196.502929688 238.298828125 197.502929688 202.999023438 195.502929688 119.899414062 c 0
 193.602539062 42.8994140625 179.102539062 43.8994140625 119.102539062 41.3994140625 c 1
 100.802734375 21.7998046875 105.40234375 -10.5 120.702148438 -27.599609375 c 1
 165.301757812 -26.5 212.501953125 -22.7001953125 257.501953125 -22.7001953125 c 0
 305.702148438 -22.7001953125 357.801757812 -26.6005859375 397.1015625 -27.6005859375 c 1
 416.1015625 -6.400390625 413.401367188 25.599609375 398.701171875 41.3994140625 c 1
 334.401367188 44.099609375 325.1015625 46.69921875 323.301757812 119.899414062 c 0
 321.501953125 193.799804688 321.501953125 237.099609375 321.501953125 303 c 1
 623.501953125 303 l 1
 623.702148438 237.900390625 624.301757812 193.700195312 622.501953125 119.900390625 c 0
 620.6015625 42.900390625 606.1015625 43.900390625 546.1015625 41.400390625 c 1
 527.801757812 21.80078125 532.401367188 -10.4990234375 547.701171875 -27.5986328125 c 1
 592.30078125 -26.4990234375 639.500976562 -22.69921875 684.500976562 -22.69921875 c 0
 732.701171875 -22.69921875 784.80078125 -26.599609375 824.100585938 -27.599609375 c 1
 843.100585938 -6.3994140625 840.400390625 25.6005859375 825.700195312 41.400390625 c 1
 761.400390625 44.1005859375 752.100585938 46.7001953125 750.30078125 119.900390625 c 0
 748.30078125 202.600585938 748.500976562 236.900390625 748.500976562 320 c 0
 748.500976562 402.900390625 749.000976562 441.600585938 751.30078125 525.400390625 c 0
 753.400390625 602.30078125 766.700195312 601.500976562 826.700195312 604.000976562 c 1
 845 623.600585938 840.400390625 655.900390625 825.100585938 673 c 1
 780.500976562 671.900390625 733.30078125 668 688.30078125 668 c 0
 640.100585938 668 588.000976562 672 548.701171875 673 c 1
 529.701171875 651.799804688 532.401367188 619.799804688 547.1015625 604 c 1
 611.401367188 601.299804688 620.701171875 598.599609375 622.500976562 525.399414062 c 0
 623.901367188 468.599609375 623.801757812 424.599609375 623.6015625 381 c 1
 321.701171875 381 l 1
614.502929688 123.099609375 m 0
 616.302734375 196.69921875 615.703125 230.396484375 615.502929688 294.99609375 c 1
 329.502929688 294.99609375 l 1
 329.502929688 229.595703125 329.502929688 196.895507812 331.302734375 123.095703125 c 0
 333.002929688 51.3955078125 338.502929688 51.8955078125 402.302734375 49.1953125 c 1
 422.802734375 28.9951171875 423.40234375 -12.705078125 400.602539062 -35.60546875 c 1
 359.102539062 -34.60546875 306.002929688 -30.705078125 257.502929688 -30.705078125 c 0
 212.302734375 -30.705078125 162.302734375 -34.5048828125 117.203125 -35.5048828125 c 1
 97.5029296875 -15.705078125 92.0029296875 26.0947265625 115.403320312 49.1943359375 c 1
 176.403320312 51.7939453125 185.703125 48.59375 187.502929688 123.09375 c 0
 189.502929688 205.994140625 188.502929688 238.194335938 188.502929688 320.994140625 c 0
 188.502929688 403.793945312 189.502929688 439.393554688 187.502929688 522.293945312 c 0
 185.802734375 593.994140625 180.203125 593.494140625 116.403320312 596.194335938 c 1
 95.9033203125 616.39453125 95.4033203125 658.194335938 118.203125 681.094726562 c 1
 159.703125 680.094726562 212.802734375 675.995117188 261.302734375 675.995117188 c 0
 306.502929688 675.995117188 356.502929688 679.995117188 401.602539062 680.995117188 c 1
 421.302734375 661.1953125 426.802734375 619.095703125 403.40234375 595.99609375 c 1
 342.40234375 593.396484375 334.302734375 596.896484375 332.302734375 522.296875 c 0
 330.802734375 465.697265625 330.002929688 430.997070312 329.703125 388.997070312 c 1
 615.603515625 388.997070312 l 1
 615.803710938 431.397460938 615.903320312 465.897460938 614.502929688 522.297851562 c 0
 612.802734375 593.998046875 607.203125 593.498046875 543.403320312 596.198242188 c 1
 522.903320312 616.3984375 522.403320312 658.198242188 545.203125 681.098632812 c 1
 586.703125 680.098632812 639.802734375 675.999023438 688.302734375 675.999023438 c 0
 733.502929688 675.999023438 783.502929688 679.999023438 828.602539062 680.999023438 c 1
 848.302734375 661.19921875 853.802734375 619.099609375 830.40234375 596 c 1
 769.40234375 593.400390625 761.302734375 596.900390625 759.302734375 522.30078125 c 0
 757.002929688 438.500976562 756.502929688 402.901367188 756.502929688 320.000976562 c 0
 756.502929688 236.901367188 756.302734375 205.801757812 758.302734375 123.1015625 c 0
 760.002929688 51.4013671875 765.502929688 51.9013671875 829.302734375 49.201171875 c 1
 849.802734375 29.0009765625 850.40234375 -12.69921875 827.602539062 -35.599609375 c 1
 786.102539062 -34.599609375 733.002929688 -30.69921875 684.502929688 -30.69921875 c 0
 639.302734375 -30.69921875 589.302734375 -34.4990234375 544.203125 -35.4990234375 c 1
 524.502929688 -15.69921875 519.002929688 26.1005859375 542.403320312 49.2001953125 c 1
 603.403320312 51.7998046875 612.703125 48.599609375 614.502929688 123.099609375 c 0
EndSplineSet
Position2: "'cpsp' Capital Spacing lookup 0 subtable" dx=2 dy=0 dh=5 dv=0
EndChar

StartChar: I
Encoding: 73 73 20
Width: 518
GlyphClass: 2
Flags: MW
AnchorPoint: "Anchor-0" 165 850 basechar 0
LayerCount: 2
Fore
SplineSet
301.099609375 109 m 0
 303.099609375 26 318.099609375 21 388.099609375 18 c 0
 391.099609375 15 392.599609375 10.7001953125 392.599609375 6.5 c 0
 392.599609375 2.2998046875 391.099609375 -2 388.099609375 -5 c 0
 338.099609375 -4 309.399414062 0 259.099609375 0 c 0
 208.399414062 0 178.099609375 -4 129.099609375 -5 c 0
 126.099609375 -2 124.599609375 2.2998046875 124.599609375 6.5 c 0
 124.599609375 10.7001953125 126.099609375 15 129.099609375 18 c 0
 199.099609375 21 214.099609375 26 216.099609375 109 c 0
 218.099609375 192 219.099609375 238 219.099609375 321 c 0
 219.099609375 404 218.099609375 453 216.099609375 536 c 0
 214.099609375 619 199.099609375 624 129.099609375 627 c 0
 126.099609375 630 124.599609375 634.299804688 124.599609375 638.5 c 0
 124.599609375 642.700195312 126.099609375 647 129.099609375 650 c 0
 179.099609375 649 207.799804688 645 258.099609375 645 c 0
 308.799804688 645 339.099609375 649 388.099609375 650 c 0
 391.099609375 647 392.599609375 642.700195312 392.599609375 638.5 c 0
 392.599609375 634.299804688 391.099609375 630 388.099609375 627 c 0
 318.099609375 624 303.599609375 619 301.099609375 536 c 0
 298.599609375 452 298.099609375 403 298.099609375 320 c 0
 298.099609375 237 299.099609375 191.5 301.099609375 109 c 0
195.099609375 119.900390625 m 0
 193.19921875 42.900390625 178.69921875 43.900390625 118.69921875 41.400390625 c 1
 110.399414062 32.5 106.799804688 20.900390625 106.799804688 9.400390625 c 0
 106.799804688 -4.3994140625 112 -18.2998046875 120.299804688 -27.599609375 c 1
 164.899414062 -26.5 212.099609375 -22.7001953125 257.099609375 -22.7001953125 c 0
 305.299804688 -22.7001953125 357.399414062 -26.6005859375 396.69921875 -27.6005859375 c 1
 405.999023438 -17.1005859375 410.098632812 -4.0009765625 410.098632812 8.3994140625 c 0
 410.098632812 21.19921875 405.798828125 33.3994140625 398.298828125 41.3994140625 c 1
 333.999023438 44.099609375 324.69921875 46.69921875 322.899414062 119.899414062 c 0
 321.19921875 190.799804688 321.099609375 226.099609375 321.099609375 287 c 2
 321.099609375 320 l 2
 321.099609375 402.900390625 321.399414062 441.700195312 323.899414062 525.400390625 c 0
 325.799804688 602.30078125 339.299804688 601.500976562 399.299804688 604.000976562 c 1
 407.599609375 612.901367188 411.19921875 624.401367188 411.19921875 635.901367188 c 0
 411.19921875 649.701171875 405.999023438 663.701171875 397.69921875 673.000976562 c 1
 353.099609375 671.901367188 305.899414062 668.000976562 260.899414062 668.000976562 c 0
 212.69921875 668.000976562 160.599609375 672.000976562 121.299804688 673.000976562 c 1
 112 662.500976562 107.799804688 649.401367188 107.799804688 637.000976562 c 0
 107.799804688 624.201171875 112.200195312 612.000976562 119.700195312 604.000976562 c 1
 184 601.30078125 193.299804688 598.600585938 195.099609375 525.400390625 c 0
 196.099609375 484.100585938 196.299804688 453.80078125 196.299804688 423.500976562 c 0
 196.299804688 393.000976562 196.099609375 362.500976562 196.099609375 321.000976562 c 0
 196.099609375 279.500976562 196.299804688 249.901367188 196.299804688 220.201171875 c 0
 196.299804688 190.80078125 196.099609375 161.30078125 195.099609375 119.900390625 c 0
187.099609375 123.100585938 m 0
 188.099609375 164.400390625 188.299804688 193.1015625 188.299804688 221.701171875 c 0
 188.299804688 250.6015625 188.099609375 279.401367188 188.099609375 321.000976562 c 0
 188.099609375 362.600585938 188.299804688 392.30078125 188.299804688 422.000976562 c 0
 188.299804688 451.500976562 188.099609375 481.100585938 187.099609375 522.30078125 c 0
 185.399414062 594.000976562 179.799804688 593.500976562 116 596.201171875 c 1
 105.900390625 606.201171875 100.600585938 621.30078125 100.600585938 636.900390625 c 0
 100.600585938 652.900390625 106.200195312 669.5 117.799804688 681.099609375 c 1
 159.299804688 680.099609375 212.399414062 676 260.899414062 676 c 0
 306.099609375 676 356.099609375 680 401.19921875 681 c 1
 411.899414062 670.299804688 418.399414062 653.099609375 418.399414062 635.899414062 c 0
 418.399414062 621.299804688 413.799804688 606.599609375 403 596 c 1
 342 593.400390625 333.700195312 596.900390625 331.900390625 522.30078125 c 0
 329.400390625 438.500976562 329.100585938 402.901367188 329.100585938 320.000976562 c 2
 329.100585938 287.000976562 l 2
 329.100585938 226.901367188 329.200195312 193.801757812 330.900390625 123.1015625 c 0
 332.600585938 51.4013671875 338.100585938 51.9013671875 401.900390625 49.201171875 c 1
 412 39.201171875 417.200195312 24.0009765625 417.200195312 8.4013671875 c 0
 417.200195312 -7.5986328125 411.700195312 -23.9990234375 400.200195312 -35.5986328125 c 1
 358.700195312 -34.5986328125 305.600585938 -30.6982421875 257.100585938 -30.6982421875 c 0
 211.900390625 -30.6982421875 161.900390625 -34.498046875 116.80078125 -35.498046875 c 1
 106.100585938 -24.7978515625 99.6005859375 -7.6982421875 99.6005859375 9.4013671875 c 0
 99.6005859375 23.9013671875 104.200195312 38.6015625 115 49.201171875 c 1
 176 51.80078125 185.299804688 48.6005859375 187.099609375 123.100585938 c 0
EndSplineSet
Position2: "'cpsp' Capital Spacing lookup 0 subtable" dx=2 dy=0 dh=5 dv=0
EndChar

StartChar: J
Encoding: 74 74 21
Width: 618
GlyphClass: 2
Flags: MW
AnchorPoint: "Anchor-0" 182 850 basechar 0
LayerCount: 2
Fore
SplineSet
307 109 m 0
 309 192 310 238 310 321 c 0
 310 404 309 453 307 536 c 0
 305 619 290 624 220 627 c 1
 214 633 214 644 220 650 c 1
 270 649 298.700195312 645 349 645 c 0
 399.700195312 645 430 649 479 650 c 1
 485 644 485 633 479 627 c 1
 409 624 394.5 619 392 536 c 0
 389.5 452 389 403 389 320 c 0
 389 264.900390625 389.5 227 390.299804688 182.5 c 0
 391.700195312 108.5 357.700195312 59.7998046875 324 31 c 0
 283 -4 252 -11 207 -11 c 0
 185 -11 136 6 136 42 c 0
 136 64 162 75 176 75 c 0
 207 75 211.299804688 54.2001953125 221 41 c 0
 228.299804688 31 242 23 256 23 c 0
 278.799804688 23 305.799804688 45.2998046875 307 109 c 0
276 109.700195312 m 0
 278.099609375 196.200195312 278.998046875 241.299804688 278.998046875 321 c 0
 278.998046875 407.099609375 278.8984375 455.5 275.998046875 535.200195312 c 0
 273.998046875 591.600585938 272.998046875 593.600585938 208.198242188 596.500976562 c 2
 206.598632812 596.500976562 l 1
 205.499023438 597.600585938 l 2
 174.598632812 628.500976562 184.499023438 658.401367188 206.19921875 680.1015625 c 2
 207.399414062 681.201171875 l 1
 209.099609375 681.201171875 l 2
 267 680.000976562 301.400390625 676.000976562 349 676.000976562 c 0
 404.400390625 676.000976562 438.200195312 680.100585938 489.900390625 681.200195312 c 2
 491.600585938 681.200195312 l 1
 492.80078125 680.100585938 l 2
 523.000976562 649.900390625 515.901367188 620 493.500976562 597.599609375 c 2
 492.401367188 596.5 l 1
 490.801757812 596.5 l 2
 425.901367188 595 424.401367188 584.400390625 423.000976562 535.100585938 c 0
 420.500976562 448.000976562 420.000976562 399.80078125 420.000976562 320.000976562 c 0
 420.000976562 261.100585938 420.500976562 225.000976562 421.30078125 183.100585938 c 0
 422.900390625 94.30078125 380.700195312 38.5009765625 344.200195312 7.4013671875 c 0
 306.5 -24.798828125 259.5 -41.9990234375 207 -41.9990234375 c 0
 175.5 -41.9990234375 105 -20.69921875 105 42.0009765625 c 0
 105 96.80078125 160.599609375 106.000976562 176 106.000976562 c 0
 229.299804688 106.000976562 245.099609375 61.1005859375 246.099609375 59.2001953125 c 0
 250.099609375 54.7998046875 255.599609375 54 256 54 c 0
 264.200195312 54 275.299804688 70.5 276 109.700195312 c 0
283.998046875 109.5 m 0
 283.297851562 72.099609375 273.697265625 45.99609375 255.997070312 45.99609375 c 0
 253.197265625 45.99609375 244.897460938 47.396484375 239.59765625 54.5966796875 c 0
 237.59765625 57.296875 225.09765625 97.9970703125 175.998046875 97.9970703125 c 0
 161.3984375 97.9970703125 112.998046875 89.296875 112.998046875 41.9970703125 c 0
 112.998046875 -13.203125 176.797851562 -34.0029296875 206.998046875 -34.0029296875 c 0
 257.698242188 -34.0029296875 302.698242188 -17.5029296875 338.998046875 13.4970703125 c 0
 374.198242188 43.4970703125 414.8984375 96.9970703125 413.298828125 182.897460938 c 0
 412.499023438 224.797851562 411.999023438 261.09765625 411.999023438 319.998046875 c 0
 411.999023438 399.797851562 412.499023438 448.198242188 414.999023438 535.297851562 c 0
 416.499023438 585.797851562 421.798828125 602.59765625 488.999023438 604.498046875 c 1
 507.19921875 623.3984375 513.999023438 646.298828125 488.298828125 673.19921875 c 1
 438.8984375 672.099609375 404.198242188 668 348.998046875 668 c 0
 301.198242188 668 268.297851562 671.900390625 210.698242188 673.200195312 c 1
 192.998046875 654.900390625 183.8984375 631.900390625 210.098632812 604.400390625 c 1
 274.8984375 601.400390625 281.8984375 593.900390625 283.998046875 535.5 c 0
 286.8984375 455.599609375 286.998046875 407 286.998046875 321 c 0
 286.998046875 241.299804688 286.09765625 196 283.998046875 109.5 c 0
EndSplineSet
Position2: "'cpsp' Capital Spacing lookup 0 subtable" dx=2 dy=0 dh=5 dv=0
EndChar

StartChar: K
Encoding: 75 75 22
Width: 870
GlyphClass: 2
Flags: MW
AnchorPoint: "Anchor-0" 336 850 basechar 0
LayerCount: 2
Fore
SplineSet
290.599609375 109 m 0
 292.599609375 26 307.59765625 21.0009765625 377.59765625 18.0009765625 c 1
 383.59765625 12.0009765625 383.59765625 1.0009765625 377.59765625 -4.9990234375 c 1
 327.59765625 -3.9990234375 298.897460938 0.0009765625 248.59765625 0.0009765625 c 0
 197.897460938 0.0009765625 167.59765625 -3.9990234375 118.59765625 -4.9990234375 c 1
 112.59765625 1.0009765625 112.59765625 12.0009765625 118.59765625 18.0009765625 c 1
 188.59765625 21.0009765625 203.59765625 26.0009765625 205.59765625 109.000976562 c 0
 207.59765625 192.000976562 208.59765625 238.000976562 208.59765625 321.000976562 c 0
 208.59765625 404.000976562 207.59765625 453.000976562 205.59765625 536.000976562 c 0
 203.59765625 619.000976562 188.59765625 624.000976562 118.59765625 627.000976562 c 1
 112.59765625 633.000976562 112.59765625 644.000976562 118.59765625 650.000976562 c 1
 168.59765625 649.000976562 197.297851562 645.000976562 247.59765625 645.000976562 c 0
 298.297851562 645.000976562 328.59765625 649.000976562 377.59765625 650.000976562 c 1
 383.59765625 644.000976562 383.59765625 633.000976562 377.59765625 627.000976562 c 1
 307.59765625 624.000976562 293.09765625 619.000976562 290.59765625 536.000976562 c 0
 288.297851562 459.701171875 287.698242188 412.30078125 287.598632812 342.100585938 c 1
 324.798828125 344.700195312 358.999023438 363.400390625 379.598632812 386 c 2
 539.598632812 562 l 2
 580.499023438 607 537.69921875 623.599609375 501.599609375 627 c 1
 495.599609375 633 495.599609375 644 501.599609375 650 c 1
 548.599609375 649 579.599609375 645 619.599609375 645 c 0
 659.599609375 645 677.599609375 649 724.599609375 650 c 1
 730.599609375 644 730.599609375 633 724.599609375 627 c 1
 684.599609375 622 634.599609375 607 588.599609375 558 c 2
 441.599609375 407 l 2
 407.599609375 372 406.599609375 365 406.599609375 358 c 0
 406.599609375 350 411.899414062 342.099609375 419.599609375 333 c 2
 638.599609375 73 l 2
 672.19921875 31.400390625 718.69921875 20.6005859375 736.599609375 18.0009765625 c 1
 742.599609375 12.0009765625 742.599609375 1.0009765625 736.599609375 -4.9990234375 c 1
 689.599609375 -3.9990234375 664.599609375 0.0009765625 625.599609375 0.0009765625 c 0
 595.599609375 0.0009765625 597.599609375 -3.9990234375 577.599609375 -4.9990234375 c 0
 573.599609375 -4.9990234375 573 -1.9990234375 572.599609375 1.0009765625 c 0
 570.599609375 17.0009765625 556.899414062 47.4013671875 536.599609375 73.0009765625 c 2
 379.599609375 271.000976562 l 2
 358.799804688 297.30078125 322.899414062 313.400390625 287.599609375 314 c 1
 287.599609375 234.799804688 288.599609375 189.5 290.599609375 109 c 0
310.59765625 287.80078125 m 1
 331.498046875 282.000976562 348.696289062 272.90234375 361.49609375 256.802734375 c 2
 518.49609375 58.703125 l 2
 533.795898438 39.4033203125 548.295898438 9.103515625 549.696289062 -1.896484375 c 0
 552.396484375 -23.796875 570.396484375 -27.9970703125 577.596679688 -27.9970703125 c 2
 578.696289062 -27.9970703125 l 2
 602.196289062 -26.796875 595.596679688 -22.9970703125 625.596679688 -22.9970703125 c 0
 660.896484375 -22.9970703125 683.296875 -26.8974609375 736.096679688 -27.9970703125 c 2
 745.896484375 -28.197265625 l 1
 763.296875 -9.8974609375 773.396484375 12.302734375 747.396484375 39.703125 c 1
 739.796875 40.802734375 l 2
 726.997070312 42.6025390625 687.296875 49.1025390625 656.296875 87.6025390625 c 2
 447.497070312 334.40234375 l 2
 437.197265625 346.602539062 432.09765625 364.40234375 457.998046875 391.001953125 c 2
 605.198242188 542.1015625 l 2
 647.797851562 587.401367188 688.198242188 599.201171875 735.198242188 605.201171875 c 1
 753.3984375 624.201171875 758.8984375 647.1015625 733.8984375 673.201171875 c 1
 688.098632812 672.1015625 661.499023438 668.001953125 619.598632812 668.001953125 c 0
 582.3984375 668.001953125 546.298828125 671.90234375 492.298828125 673.202148438 c 1
 475.098632812 655.301757812 464.999023438 632.301757812 491.098632812 604.901367188 c 1
 500.798828125 604.301757812 529.499023438 605.001953125 529.499023438 591.40234375 c 0
 529.499023438 581.702148438 518.598632812 570.102539062 510.999023438 561.802734375 c 2
 362.499023438 401.40234375 l 2
 351.69921875 389.802734375 332.599609375 375.502929688 310.69921875 369.802734375 c 1
 310.899414062 422.90234375 311.69921875 459.90234375 313.499023438 525.40234375 c 0
 315.598632812 602.302734375 328.8984375 601.502929688 388.8984375 604.002929688 c 1
 407.198242188 623.602539062 402.598632812 655.90234375 387.298828125 673.001953125 c 1
 342.69921875 671.90234375 295.499023438 668.001953125 250.499023438 668.001953125 c 0
 202.298828125 668.001953125 150.098632812 672.001953125 110.798828125 673.001953125 c 1
 91.798828125 651.801757812 94.4990234375 619.801757812 109.19921875 604.001953125 c 1
 173.499023438 601.301757812 182.798828125 598.6015625 184.598632812 525.401367188 c 0
 186.598632812 442.401367188 185.598632812 403.701171875 185.598632812 321.000976562 c 0
 185.598632812 238.30078125 186.598632812 202.900390625 184.598632812 119.900390625 c 0
 182.698242188 42.900390625 168.198242188 43.900390625 108.198242188 41.400390625 c 1
 89.8984375 21.80078125 94.498046875 -10.4990234375 109.797851562 -27.5986328125 c 1
 154.397460938 -26.4990234375 201.59765625 -22.69921875 246.59765625 -22.69921875 c 0
 294.797851562 -22.69921875 346.998046875 -26.599609375 386.297851562 -27.599609375 c 1
 405.297851562 -6.3994140625 402.59765625 25.6005859375 387.897460938 41.400390625 c 1
 323.59765625 44.1005859375 314.297851562 46.7001953125 312.498046875 119.900390625 c 0
 310.797851562 191.100585938 310.59765625 226.400390625 310.59765625 287.80078125 c 1
318.6953125 381.001953125 m 1
 334.995117188 387.801757812 348.194335938 397.802734375 356.594726562 406.90234375 c 2
 505.094726562 567.202148438 l 2
 513.294921875 576.202148438 521.094726562 586.702148438 521.495117188 591.301757812 c 0
 519.294921875 594.202148438 500.995117188 596.202148438 489.094726562 597.001953125 c 2
 487.594726562 597.1015625 l 1
 486.495117188 598.201171875 l 2
 455.495117188 629.201171875 466.794921875 659.1015625 487.794921875 680.1015625 c 2
 488.995117188 681.301757812 l 1
 490.6953125 681.202148438 l 2
 544.794921875 680.001953125 582.794921875 676.001953125 619.594726562 676.001953125 c 0
 661.294921875 676.001953125 687.39453125 680.202148438 735.39453125 681.202148438 c 2
 737.094726562 681.301757812 l 1
 738.294921875 680.1015625 l 2
 767.594726562 650.801757812 762.294921875 620.901367188 739.89453125 598.500976562 c 2
 738.994140625 597.600585938 l 1
 737.59375 597.400390625 l 2
 691.393554688 591.600585938 652.793945312 581.100585938 610.994140625 536.600585938 c 2
 463.793945312 385.400390625 l 2
 439.994140625 360.900390625 445.793945312 348.80078125 453.59375 339.600585938 c 2
 662.494140625 92.7001953125 l 2
 691.694335938 56.6005859375 728.793945312 50.400390625 740.893554688 48.7001953125 c 2
 751.193359375 47.2001953125 l 1
 752.09375 46.2998046875 l 2
 783.09375 15.2998046875 770.59375 -14.7998046875 750.293945312 -35.099609375 c 2
 749.09375 -36.2998046875 l 1
 735.893554688 -36 l 2
 682.59375 -34.900390625 660.193359375 -31 625.59375 -31 c 0
 597.393554688 -31 604.293945312 -34.7001953125 579.09375 -36 c 2
 578.293945312 -36 l 1
 577.59375 -36 l 2
 568.494140625 -36 545.194335938 -30 541.793945312 -2.7998046875 c 0
 540.793945312 4.900390625 526.59375 35.6005859375 512.293945312 53.7001953125 c 2
 355.194335938 251.900390625 l 2
 346.094726562 263.400390625 332.89453125 271.80078125 318.594726562 277.000976562 c 1
 318.594726562 223.000976562 318.89453125 189.80078125 320.494140625 123.100585938 c 0
 322.194335938 51.400390625 327.594726562 51.900390625 391.39453125 49.2001953125 c 1
 411.89453125 29 412.494140625 -12.7001953125 389.694335938 -35.6005859375 c 1
 348.194335938 -34.6005859375 295.094726562 -30.7001953125 246.594726562 -30.7001953125 c 0
 201.39453125 -30.7001953125 151.39453125 -34.5 106.294921875 -35.5 c 1
 86.5947265625 -15.7001953125 81.1943359375 26.099609375 104.594726562 49.19921875 c 1
 165.594726562 51.798828125 174.794921875 48.5986328125 176.594726562 123.098632812 c 0
 178.594726562 205.999023438 177.594726562 238.19921875 177.594726562 320.999023438 c 0
 177.594726562 403.798828125 178.594726562 439.3984375 176.594726562 522.298828125 c 0
 174.89453125 593.999023438 169.294921875 593.499023438 105.495117188 596.19921875 c 1
 84.9951171875 616.399414062 84.4951171875 658.19921875 107.294921875 681.099609375 c 1
 148.794921875 680.099609375 201.995117188 676 250.495117188 676 c 0
 295.6953125 676 345.6953125 680 390.794921875 681 c 1
 410.495117188 661.200195312 415.895507812 619.100585938 392.495117188 596.000976562 c 1
 331.495117188 593.401367188 323.495117188 596.901367188 321.495117188 522.301757812 c 0
 319.895507812 462.1015625 318.995117188 426.801757812 318.6953125 381.001953125 c 1
EndSplineSet
Position2: "'cpsp' Capital Spacing lookup 0 subtable" dx=2 dy=0 dh=5 dv=0
EndChar

StartChar: L
Encoding: 76 76 23
Width: 712
GlyphClass: 2
Flags: MW
AnchorPoint: "Anchor-0" 25 850 basechar 0
LayerCount: 2
Fore
SplineSet
303.099609375 109 m 0
 303.599609375 78 308.599609375 29 360.099609375 29 c 2
 433.099609375 29 l 2
 539.099609375 29 576.099609375 88 596.099609375 160 c 1
 608.5 161.799804688 609.299804688 159.700195312 619.099609375 155 c 1
 613.099609375 103 603.099609375 45 593.099609375 -5 c 1
 593.099609375 -5 501.099609375 0 473.799804688 0 c 2
 261.099609375 0 l 2
 231.099609375 0 180.099609375 -4 131.099609375 -5 c 1
 125.099609375 1 125.099609375 12 131.099609375 18 c 1
 201.099609375 21 216.099609375 26 218.099609375 109 c 0
 220.099609375 192 221.099609375 238 221.099609375 321 c 0
 221.099609375 404 220.099609375 453 218.099609375 536 c 0
 216.099609375 619 201.099609375 624 131.099609375 627 c 1
 125.099609375 633 125.099609375 644 131.099609375 650 c 1
 181.099609375 649 209.799804688 645 260.099609375 645 c 0
 310.799804688 645 341.099609375 649 390.099609375 650 c 1
 396.099609375 644 396.099609375 633 390.099609375 627 c 1
 320.099609375 624 305.599609375 619 303.099609375 536 c 0
 300.599609375 452 300.099609375 403 300.099609375 320 c 0
 300.099609375 237 301.799804688 191.5 303.099609375 109 c 0
260.899414062 -31.7001953125 m 2
 211.599609375 -31.7001953125 160.301757812 -35.701171875 118.001953125 -36.701171875 c 1
 94.1015625 -12.701171875 94.4013671875 26.69921875 116.201171875 48.19921875 c 1
 176.80078125 51.298828125 185.400390625 46.5986328125 187.100585938 119.098632812 c 0
 189.200195312 205.3984375 190.100585938 241.3984375 190.100585938 320.998046875 c 0
 190.100585938 406.998046875 189.000976562 445.297851562 187.100585938 525.198242188 c 0
 185.30078125 600.498046875 175.600585938 593.09765625 116.200195312 596.09765625 c 1
 91.6005859375 620.397460938 98.1005859375 660.09765625 119.000976562 681.09765625 c 1
 164.30078125 679.998046875 216.30078125 675.998046875 261.900390625 675.998046875 c 0
 311.30078125 675.998046875 360.30078125 680.09765625 403.000976562 681.09765625 c 1
 426.901367188 657.09765625 425.500976562 617.59765625 403.80078125 596.09765625 c 1
 339.100585938 593.297851562 335.600585938 595.198242188 333.900390625 525.198242188 c 0
 331.80078125 438.098632812 331.100585938 399.798828125 331.100585938 319.999023438 c 0
 331.100585938 234.19921875 332.80078125 189.19921875 334.100585938 109.499023438 c 0
 334.700195312 73.19921875 350.100585938 59.9990234375 370.100585938 59.9990234375 c 2
 433.100585938 59.9990234375 l 2
 535.700195312 59.9990234375 551.5 115.298828125 571.700195312 187.798828125 c 1
 613.5 193.798828125 632.5 182.999023438 652.400390625 173.399414062 c 1
 643.900390625 99.7998046875 631.400390625 28.599609375 618.900390625 -34 c 2
 618.200195312 -37.400390625 l 1
 614.799804688 -37.2001953125 l 2
 591.200195312 -35.900390625 516.5 -31 473.799804688 -31 c 2
 260.899414062 -31.7001953125 l 2
260.901367188 -23.701171875 m 2
 473.801757812 -23.0009765625 l 2
 515.001953125 -23.0009765625 584.001953125 -27.4013671875 611.702148438 -29.0009765625 c 1
 623.40234375 29.5986328125 635.501953125 98.298828125 643.801757812 168.69921875 c 1
 627.901367188 176.298828125 612.401367188 184.8984375 578.000976562 180.598632812 c 1
 558.600585938 111.298828125 538.500976562 51.9990234375 433.100585938 51.9990234375 c 2
 370.100585938 51.9990234375 l 2
 344.80078125 51.9990234375 326.701171875 70.5986328125 326.1015625 109.3984375 c 0
 324.801757812 188.998046875 323.1015625 234.09765625 323.1015625 319.998046875 c 0
 323.1015625 399.797851562 323.301757812 438.297851562 325.901367188 525.397460938 c 0
 327.701171875 598.497070312 336.000976562 601.296875 400.30078125 603.997070312 c 1
 415.000976562 619.796875 417.701171875 651.796875 398.701171875 672.997070312 c 1
 359.201171875 671.997070312 310.201171875 667.997070312 261.901367188 667.997070312 c 0
 217.000976562 667.997070312 166.600585938 671.897460938 122.30078125 672.997070312 c 1
 107.000976562 655.897460938 102.401367188 623.59765625 120.701171875 603.998046875 c 1
 180.80078125 601.498046875 193.201171875 602.297851562 195.1015625 525.397460938 c 0
 197.001953125 445.59765625 198.1015625 407.09765625 198.1015625 320.998046875 c 0
 198.1015625 241.297851562 197.201171875 205.198242188 195.1015625 118.8984375 c 0
 193.301757812 45.6982421875 184.001953125 43.0986328125 119.702148438 40.3984375 c 1
 105.001953125 24.5986328125 102.301757812 -7.4013671875 121.301757812 -28.6015625 c 1
 160.6015625 -27.6015625 212.701171875 -23.701171875 260.901367188 -23.701171875 c 2
EndSplineSet
Position2: "'cpsp' Capital Spacing lookup 0 subtable" dx=2 dy=0 dh=5 dv=0
EndChar

StartChar: M
Encoding: 77 77 24
Width: 1000
GlyphClass: 2
Flags: MW
AnchorPoint: "Anchor-0" 431 850 basechar 0
LayerCount: 2
Fore
SplineSet
743.700195312 103 m 2
 717.90234375 534 l 1
 715.90234375 534 l 1
 490.90234375 5 l 2
 486.90234375 -3 482.90234375 -6 476.90234375 -6 c 0
 470.90234375 -6 464.702148438 -2.099609375 461.90234375 5 c 2
 254.90234375 524 l 1
 252.90234375 524 l 1
 215.001953125 110 l 2
 209.6015625 53.7001953125 214.901367188 23 280.901367188 18 c 1
 286.901367188 12 286.901367188 1 280.901367188 -5 c 1
 250.901367188 -4 218.901367188 0 194.901367188 0 c 0
 170.901367188 0 136.901367188 -4 106.901367188 -5 c 1
 100.901367188 1 100.901367188 12 106.901367188 18 c 1
 163.901367188 23 176.000976562 48.099609375 181.901367188 108 c 2
 225.901367188 533 l 2
 233.701171875 607.900390625 226.901367188 623 157.901367188 627 c 1
 151.901367188 633 151.901367188 644 157.901367188 650 c 1
 286.901367188 645 l 1
 491.901367188 137 l 2
 495.901367188 128 499.401367188 114 505.901367188 114 c 0
 512.401367188 114 517.201171875 124.400390625 522.901367188 138 c 2
 734.901367188 645 l 1
 851.901367188 650 l 1
 857.901367188 644 857.901367188 633 851.901367188 627 c 1
 783.901367188 623 779.1015625 596 783.201171875 542 c 2
 816.000976562 108 l 2
 821.80078125 25.2001953125 824.900390625 21 892.900390625 18 c 1
 898.900390625 12 898.900390625 1 892.900390625 -5 c 1
 859.700195312 -4 815.400390625 0 786.900390625 0 c 0
 760.900390625 0 726.900390625 -4 679.900390625 -5 c 1
 673.900390625 1 673.900390625 12 679.900390625 18 c 1
 744.900390625 21 748.700195312 22 743.700195312 103 c 2
711.702148438 111.099609375 m 2
 694.604492188 404.600585938 l 1
 519.104492188 -7.9990234375 l 1
 518.704101562 -8.8994140625 l 2
 509.00390625 -28.2998046875 490.603515625 -37 476.903320312 -37 c 0
 450.203125 -37 437.603515625 -17.7001953125 433.103515625 -6.5 c 2
 272.403320312 396.5 l 1
 247.803710938 117.099609375 l 2
 247.00390625 108.899414062 246.704101562 104.399414062 246.404296875 100.899414062 c 0
 242.904296875 55.7998046875 247.704101562 51.599609375 293.204101562 48.19921875 c 2
 294.704101562 47.9990234375 l 1
 295.803710938 46.9990234375 l 2
 326.903320312 15.8994140625 315.803710938 -14.0009765625 294.603515625 -35.201171875 c 2
 293.303710938 -36.4013671875 l 1
 291.603515625 -36.4013671875 l 2
 254.803710938 -35.201171875 214.903320312 -31.0009765625 194.903320312 -31.0009765625 c 0
 167.903320312 -31.0009765625 126.803710938 -35.4013671875 96.3037109375 -36.4013671875 c 2
 94.50390625 -36.4013671875 l 1
 93.3037109375 -35.201171875 l 2
 63.4033203125 -5.30078125 69.8037109375 24.298828125 91.603515625 46.4990234375 c 2
 93.00390625 47.8994140625 l 1
 94.404296875 47.9990234375 l 2
 144.104492188 52.3994140625 147.204101562 62.4990234375 153.00390625 121.098632812 c 2
 195.103515625 536.198242188 l 2
 196.00390625 544.598632812 196.303710938 548.8984375 196.603515625 552.3984375 c 0
 200.303710938 595.8984375 195.50390625 592.598632812 145.803710938 596.698242188 c 2
 144.303710938 596.797851562 l 1
 143.303710938 597.797851562 l 2
 112.204101562 628.897460938 122.904296875 658.797851562 144.404296875 680.297851562 c 2
 145.604492188 681.498046875 l 1
 308.204101562 675.198242188 l 1
 507.50390625 181.3984375 l 1
 713.904296875 675.098632812 l 1
 864.204101562 681.598632812 l 1
 865.50390625 680.298828125 l 2
 895.603515625 650.19921875 889.303710938 620.499023438 866.603515625 597.798828125 c 2
 865.603515625 596.798828125 l 1
 864.203125 596.69921875 l 2
 814.403320312 590.899414062 810.803710938 588.499023438 814.103515625 544.298828125 c 2
 845.903320312 120.298828125 l 2
 850.803710938 54.69921875 840.103515625 51.3994140625 904.803710938 48.4990234375 c 2
 906.303710938 48.3994140625 l 1
 907.403320312 47.2998046875 l 2
 938.403320312 16.2998046875 928.303710938 -13.5 906.603515625 -35.2001953125 c 2
 905.403320312 -36.400390625 l 1
 903.703125 -36.30078125 l 2
 862.903320312 -35.1005859375 813.303710938 -31.0009765625 786.903320312 -31.0009765625 c 0
 760.903320312 -31.0009765625 713.002929688 -35.30078125 669.102539062 -36.201171875 c 2
 667.40234375 -36.30078125 l 1
 666.202148438 -35.1005859375 l 2
 636.001953125 -4.900390625 643.001953125 24.8994140625 665.40234375 47.2998046875 c 2
 666.40234375 48.2998046875 l 1
 667.802734375 48.3994140625 l 2
 714.102539062 53.3994140625 714.702148438 59.3994140625 711.702148438 111.099609375 c 2
719.704101562 111.600585938 m 2
 722.704101562 59.80078125 719.506835938 46.3046875 670.106445312 40.705078125 c 1
 651.706054688 21.60546875 644.90625 -1.294921875 670.606445312 -28.1953125 c 1
 712.806640625 -27.1953125 760.606445312 -22.9951171875 786.90625 -22.9951171875 c 0
 813.606445312 -22.9951171875 861.306640625 -26.9951171875 902.106445312 -28.294921875 c 1
 919.806640625 -9.9951171875 929.20703125 13.1044921875 902.907226562 40.6044921875 c 1
 836.407226562 43.8046875 842.70703125 55.205078125 837.907226562 119.705078125 c 2
 806.20703125 543.705078125 l 2
 802.70703125 590.3046875 810.806640625 598.504882812 861.90625 604.504882812 c 1
 880.505859375 623.8046875 886.60546875 646.604492188 861.005859375 673.404296875 c 1
 719.305664062 667.404296875 l 1
 507.305664062 160.3046875 l 1
 302.706054688 667.404296875 l 1
 148.805664062 673.404296875 l 1
 130.60546875 654.204101562 121.705078125 632.00390625 147.905273438 604.50390625 c 1
 196.004882812 600.603515625 208.604492188 599.203125 204.604492188 551.703125 c 0
 204.3046875 548.203125 203.904296875 543.802734375 203.00390625 535.40234375 c 2
 161.00390625 120.302734375 l 2
 155.303710938 62.1025390625 149.403320312 45.2021484375 96.603515625 40.2021484375 c 1
 78.203125 21.001953125 72.302734375 -1.7978515625 97.703125 -28.2978515625 c 1
 125.903320312 -27.2978515625 167.903320312 -22.998046875 194.903320312 -22.998046875 c 0
 215.502929688 -22.998046875 253.203125 -26.8984375 290.103515625 -28.298828125 c 1
 307.50390625 -10.19921875 317.404296875 12.701171875 291.104492188 40.30078125 c 1
 244.004882812 44.1005859375 234.604492188 54.2001953125 238.604492188 103.700195312 c 0
 238.8046875 106.700195312 239.205078125 110.5 239.905273438 117.900390625 c 2
 267.405273438 430.600585938 l 1
 440.60546875 -3.4990234375 l 2
 444.405273438 -13.0986328125 454.905273438 -28.9990234375 476.905273438 -28.9990234375 c 0
 487.405273438 -28.9990234375 503.205078125 -21.8994140625 511.504882812 -5.2998046875 c 2
 511.8046875 -4.7998046875 l 1
 700.604492188 439.100585938 l 1
 719.704101562 111.600585938 l 2
EndSplineSet
Position2: "'cpsp' Capital Spacing lookup 0 subtable" dx=2 dy=0 dh=5 dv=0
EndChar

StartChar: N
Encoding: 78 78 25
Width: 931
GlyphClass: 2
Flags: MW
AnchorPoint: "Anchor-0" 311 850 basechar 0
LayerCount: 2
Fore
SplineSet
669 525 m 2
 669 616 652 620 582 627 c 1
 576 633 576 644 582 650 c 1
 632 649 647.200195312 645 689 645 c 0
 731.200195312 645 748 649 797 650 c 1
 803 644 803 633 797 627 c 1
 727 620 710 614 710 525 c 2
 709 21 l 2
 709 2 711 -10 697 -10 c 0
 681 -10 668 -1 657 14 c 2
 308 455 l 2
 291 477 280 488 274 488 c 0
 266 488 260.900390625 473 261 439 c 2
 262 120 l 2
 262 29 279 25 349 18 c 1
 355 12 355 1 349 -5 c 1
 299 -4 283.799804688 0 242 0 c 0
 199.799804688 0 183 -4 134 -5 c 1
 128 1 128 12 134 18 c 1
 204 25 221 31 221 120 c 2
 222 550 l 1
 211 589 186 621 138 624 c 1
 132 630 132 641 138 647 c 1
 267 645 l 1
 610 203 l 2
 639 166 650 148 658 148 c 0
 665 148 670.099609375 159 670 178 c 2
 669 525 l 2
638 525 m 2
 638 611.700195312 638 590.196289062 569.299804688 597.096679688 c 2
 567.899414062 597.296875 l 1
 566.899414062 598.296875 l 2
 535.899414062 629.296875 547.299804688 659.197265625 568.200195312 680.09765625 c 2
 569.400390625 681.197265625 l 1
 571.100585938 681.197265625 l 2
 627.600585938 680.09765625 652.400390625 675.998046875 689 675.998046875 c 0
 732.5 675.998046875 757.700195312 680.198242188 807.900390625 681.198242188 c 2
 809.600585938 681.198242188 l 1
 810.80078125 680.098632812 l 2
 840.500976562 650.3984375 834.600585938 620.798828125 812.100585938 598.298828125 c 2
 811.100585938 597.298828125 l 1
 809.700195312 597.098632812 l 2
 737.700195312 589.8984375 741 605.298828125 741 524.999023438 c 0
 741 351.499023438 740.099609375 179.399414062 740.099609375 9.3994140625 c 0
 740.099609375 -7.900390625 729.399414062 -41 696.999023438 -41 c 0
 663.19921875 -41 643.69921875 -19.7001953125 632.298828125 -4.7001953125 c 2
 292.098632812 425.200195312 l 1
 292.999023438 130 l 2
 292.999023438 57.2001953125 294.798828125 54.6005859375 361.69921875 47.900390625 c 2
 363.099609375 47.7001953125 l 1
 364.099609375 46.7001953125 l 2
 395.099609375 15.7001953125 383.69921875 -14.2001953125 362.798828125 -35.1005859375 c 2
 361.598632812 -36.30078125 l 1
 359.8984375 -36.30078125 l 2
 303.3984375 -35.201171875 278.598632812 -31.0009765625 241.999023438 -31.0009765625 c 0
 198.499023438 -31.0009765625 173.298828125 -35.30078125 123.098632812 -36.30078125 c 2
 121.3984375 -36.30078125 l 1
 120.198242188 -35.1005859375 l 2
 90.498046875 -5.400390625 96.3984375 24.19921875 118.8984375 46.69921875 c 2
 119.8984375 47.69921875 l 1
 121.298828125 47.8994140625 l 2
 191.798828125 54.8994140625 189.999023438 61.099609375 189.999023438 130 c 2
 190.999023438 545.5 l 1
 178.999023438 582.799804688 161.69921875 591.299804688 126.499023438 593.700195312 c 2
 124.399414062 593.799804688 l 1
 123.299804688 594.899414062 l 2
 92.3994140625 625.799804688 102.799804688 655.599609375 124.200195312 677 c 2
 125.400390625 678.200195312 l 1
 282.400390625 675.799804688 l 1
 639 216.200195312 l 1
 638 525 l 2
646 524.99609375 m 2
 647.099609375 192.698242188 l 1
 278.399414062 667.797851562 l 1
 128.69921875 670.09765625 l 1
 111.099609375 651.897460938 101.69921875 629.09765625 127.899414062 601.59765625 c 1
 164.899414062 598.897460938 186.299804688 587.297851562 198.799804688 547.297851562 c 2
 199 546.698242188 l 1
 198 129.998046875 l 2
 198 60.998046875 196.5 47.59765625 123.599609375 40.09765625 c 1
 105.299804688 20.998046875 99.3994140625 -1.7021484375 124.69921875 -28.2021484375 c 1
 172.69921875 -27.1025390625 198.399414062 -23.0029296875 241.999023438 -23.0029296875 c 0
 279.298828125 -23.0029296875 301.69921875 -26.9033203125 358.298828125 -28.203125 c 1
 375.499023438 -10.4033203125 385.69921875 12.5966796875 359.499023438 40.0966796875 c 1
 291.798828125 46.9970703125 284.999023438 55.9970703125 284.999023438 129.997070312 c 2
 283.999023438 448.296875 l 1
 638.598632812 0.197265625 l 2
 649.598632812 -14.302734375 667.098632812 -33.0029296875 696.999023438 -33.0029296875 c 0
 722.298828125 -33.0029296875 732.098632812 -6.4033203125 732.098632812 9.396484375 c 0
 732.098632812 179.49609375 732.999023438 351.49609375 732.999023438 524.99609375 c 0
 732.999023438 606.49609375 736.19921875 598.095703125 807.499023438 604.895507812 c 1
 825.798828125 623.995117188 831.598632812 646.6953125 806.298828125 673.1953125 c 1
 758.298828125 672.095703125 732.598632812 667.99609375 688.999023438 667.99609375 c 0
 651.69921875 667.99609375 629.298828125 671.896484375 572.69921875 673.196289062 c 1
 555.499023438 655.396484375 545.399414062 632.396484375 571.599609375 604.896484375 c 1
 637.599609375 598.696289062 646 613.696289062 646 524.99609375 c 2
EndSplineSet
Position2: "'cpsp' Capital Spacing lookup 0 subtable" dx=2 dy=0 dh=5 dv=0
EndChar

StartChar: O
Encoding: 79 79 26
Width: 835
GlyphClass: 2
Flags: MW
AnchorPoint: "Anchor-0" 252 850 basechar 0
LayerCount: 2
Fore
SplineSet
397 634 m 0
 306 634 196 537 196 327 c 0
 196 135 314 14 436 14 c 0
 550 14 639 131 639 310 c 0
 639 512 529 634 397 634 c 0
729 329 m 0
 729 245 709 172.700195312 669.200195312 116 c 0
 614.299804688 37.7001953125 526.799804688 -10 416 -10 c 0
 246 -10 106 113 106 310 c 0
 106 397.200195312 128.400390625 475.700195312 172.30078125 536 c 0
 227.100585938 611.200195312 310.700195312 658 410 658 c 0
 589 658 729 536 729 329 c 0
397 603 m 0
 326.900390625 603 227 523.099609375 227 327 c 0
 227 142.5 339.200195312 45 436 45 c 0
 527.5 45 608 142.799804688 608 310 c 0
 608 506 503.5 603 397 603 c 0
397 611 m 0
 509.200195312 611 616 508.700195312 616 310 c 0
 616 140.900390625 534.200195312 37 436 37 c 0
 333.599609375 37 219 139.400390625 219 327 c 0
 219 525.400390625 320.700195312 611 397 611 c 0
760 329 m 0
 760 236.200195312 737 158.600585938 694.599609375 98.2001953125 c 0
 631.899414062 8.7998046875 532.299804688 -41 416 -41 c 0
 225.900390625 -41 75 100.299804688 75 310 c 0
 75 406.299804688 100.5 490.299804688 147.200195312 554.299804688 c 0
 209.5 639.799804688 304.099609375 689 410 689 c 0
 608.700195312 689 760 548.5 760 329 c 0
752 329 m 0
 752 544.299804688 604.5 681 410 681 c 0
 306.599609375 681 214.5 633 153.700195312 549.5 c 0
 108.200195312 487 83 404.900390625 83 310 c 0
 83 104.599609375 230.200195312 -33 416 -33 c 0
 530 -33 626.900390625 15.599609375 688 102.799804688 c 0
 729.299804688 161.700195312 752 237.5 752 329 c 0
EndSplineSet
Position2: "'cpsp' Capital Spacing lookup 0 subtable" dx=2 dy=0 dh=5 dv=0
EndChar

StartChar: P
Encoding: 80 80 27
Width: 711
GlyphClass: 2
Flags: MW
AnchorPoint: "Anchor-0" 152 850 basechar 0
LayerCount: 2
Fore
SplineSet
304.099609375 296.400390625 m 1
 304.19921875 223.900390625 304.799804688 159.600585938 306.099609375 85.0009765625 c 0
 307.099609375 27.30078125 338.099609375 21.5009765625 407.099609375 18.0009765625 c 1
 413.099609375 12.0009765625 413.099609375 1.0009765625 407.099609375 -4.9990234375 c 1
 357.099609375 -3.9990234375 319.899414062 0.0009765625 264.099609375 0.0009765625 c 0
 213.399414062 0.0009765625 183.099609375 -3.9990234375 134.099609375 -4.9990234375 c 1
 128.099609375 1.0009765625 128.099609375 12.0009765625 134.099609375 18.0009765625 c 1
 204.099609375 21.0009765625 219.399414062 25.30078125 221.099609375 109.000976562 c 0
 222.799804688 192.000976562 223.099609375 238.000976562 223.099609375 321.000976562 c 0
 223.099609375 404.000976562 222.399414062 453.000976562 221.099609375 536.000976562 c 0
 219.799804688 618.701171875 204.099609375 624.000976562 134.099609375 627.000976562 c 1
 128.099609375 633.000976562 128.099609375 644.000976562 134.099609375 650.000976562 c 1
 184.099609375 649.000976562 212.799804688 645.000976562 263.099609375 645.000976562 c 0
 303.099609375 645.000976562 373.099609375 655.000976562 399.099609375 655.000976562 c 0
 584.099609375 655.000976562 620.099609375 545.000976562 620.099609375 486.000976562 c 0
 620.099609375 401.000976562 568.099609375 287.000976562 386.099609375 287.000976562 c 0
 352.19921875 287.000976562 325.69921875 289.80078125 304.099609375 296.400390625 c 1
306.100585938 583 m 0
 304.80078125 500 304.100585938 404.299804688 304.100585938 321.299804688 c 2
 304.100585938 315.5 l 1
 317.600585938 312.799804688 357.400390625 311 381.100585938 311 c 0
 478.100585938 311 533.100585938 360 533.100585938 468 c 0
 533.100585938 595 461.100585938 631 392.100585938 631 c 0
 320.100585938 631 307.30078125 611.799804688 306.100585938 583 c 0
335.200195312 258.599609375 m 1
 335.5 196.299804688 336.1015625 153.799804688 337.1015625 95.5 c 0
 337.801757812 57 350.6015625 51.900390625 419.001953125 48.400390625 c 2
 420.6015625 48.30078125 l 1
 421.6015625 47.30078125 l 2
 452.501953125 16.400390625 442.501953125 -13.5 420.90234375 -35.099609375 c 2
 419.602539062 -36.2998046875 l 1
 417.40234375 -36.2998046875 l 2
 357.90234375 -35.099609375 318.501953125 -31 264.1015625 -31 c 0
 208.701171875 -31 174.901367188 -35.2001953125 123.201171875 -36.2998046875 c 2
 121.500976562 -36.2998046875 l 1
 120.30078125 -35.099609375 l 2
 89.900390625 -4.69921875 97.6005859375 25.0009765625 119.200195312 47.0009765625 c 2
 120.600585938 48.4013671875 l 1
 122.100585938 48.5009765625 l 2
 184.600585938 54.1005859375 189.000976562 54.5009765625 190.100585938 118.901367188 c 0
 191.500976562 208.901367188 192.100585938 239.901367188 192.100585938 321.000976562 c 0
 192.100585938 407.100585938 191.400390625 445.700195312 190.100585938 525.5 c 0
 189.100585938 584.900390625 170.700195312 593 122.700195312 596.400390625 c 2
 120.600585938 596.600585938 l 1
 119.200195312 598.100585938 l 2
 88.2998046875 629.700195312 99.2998046875 658.700195312 119.899414062 679.700195312 c 2
 121.499023438 681.299804688 l 1
 123.19921875 681.200195312 l 2
 181.099609375 680 215.5 676 263.099609375 676 c 0
 303.5 676 371.200195312 686 399.100585938 686 c 0
 605.80078125 686 651.100585938 555 651.100585938 486 c 0
 651.100585938 383.599609375 581.30078125 256 386.100585938 256 c 0
 363.700195312 256 346.299804688 257.299804688 335.200195312 258.599609375 c 1
327.202148438 263.19921875 m 2
 327.202148438 267.698242188 l 1
 331.702148438 267.098632812 l 2
 344.202148438 265.3984375 361.702148438 263.998046875 386.102539062 263.998046875 c 0
 576.90234375 263.998046875 643.102539062 387.3984375 643.102539062 485.998046875 c 0
 643.102539062 551.498046875 601.202148438 677.998046875 399.102539062 677.998046875 c 0
 372.302734375 677.998046875 304.602539062 667.998046875 263.102539062 667.998046875 c 0
 215.302734375 667.998046875 182.40234375 671.8984375 124.802734375 673.198242188 c 1
 107.102539062 654.8984375 97.90234375 631.8984375 124.202148438 604.3984375 c 1
 173.702148438 600.798828125 197.001953125 588.19921875 198.1015625 525.599609375 c 0
 199.401367188 445.799804688 200.1015625 407.099609375 200.1015625 321 c 0
 200.1015625 239.900390625 199.501953125 208.80078125 198.1015625 118.80078125 c 0
 196.901367188 52.900390625 187.801757812 46.400390625 124.202148438 40.7001953125 c 1
 105.801757812 21.6005859375 99.1015625 -1.2998046875 124.801757812 -28.2001953125 c 1
 174.202148438 -27.1005859375 208.90234375 -23.0009765625 264.102539062 -23.0009765625 c 0
 318.40234375 -23.0009765625 358.001953125 -26.9013671875 416.40234375 -28.201171875 c 1
 434.001953125 -10.0009765625 443.301757812 12.9990234375 417.1015625 40.4990234375 c 1
 352.001953125 43.8994140625 329.90234375 50.9990234375 329.102539062 95.3994140625 c 0
 328.102539062 154.999023438 327.40234375 200.19921875 327.202148438 263.19921875 c 2
337.102539062 582.098632812 m 0
 335.802734375 502.298828125 335.202148438 415.798828125 335.102539062 343.499023438 c 1
 355.602539062 342.19921875 370.802734375 341.999023438 381.102539062 341.999023438 c 0
 466.702148438 341.999023438 502.102539062 377.798828125 502.102539062 467.999023438 c 0
 502.102539062 581.999023438 445.002929688 599.999023438 392.102539062 599.999023438 c 0
 335.702148438 599.999023438 337.40234375 588.499023438 337.102539062 582.098632812 c 0
329.1015625 582.298828125 m 0
 329.701171875 595.3984375 335.40234375 607.997070312 392.102539062 607.997070312 c 0
 447.90234375 607.997070312 510.102539062 586.296875 510.102539062 467.997070312 c 0
 510.102539062 374.497070312 470.502929688 333.997070312 381.102539062 333.997070312 c 0
 370.102539062 333.997070312 351.40234375 334.397460938 330.802734375 335.797851562 c 2
 327.102539062 335.998046875 l 1
 327.102539062 339.797851562 l 2
 327.202148438 414.698242188 327.801757812 500.8984375 329.1015625 582.298828125 c 0
EndSplineSet
Position2: "'cpsp' Capital Spacing lookup 0 subtable" dx=2 dy=0 dh=5 dv=0
EndChar

StartChar: Q
Encoding: 81 81 28
Width: 865
GlyphClass: 2
Flags: MW
AnchorPoint: "Anchor-0" 414 850 basechar 0
LayerCount: 2
Fore
SplineSet
397 634 m 0
 306 634 196 537 196 327 c 0
 196 135 314 14 436 14 c 0
 550 14 639 131 639 310 c 0
 639 512 529 634 397 634 c 0
729 329 m 0
 729 245 709 172.702148438 669.200195312 116.001953125 c 0
 624.799804688 52.6015625 558.899414062 9.3017578125 476.599609375 -4.8984375 c 0
 443.19921875 -14.6982421875 389.399414062 -39.5986328125 339.099609375 -76.4990234375 c 1
 346.299804688 -75.4990234375 358 -74.9990234375 364 -74.9990234375 c 0
 474 -74.9990234375 555 -156.999023438 643 -156.999023438 c 0
 672 -156.999023438 708 -141.999023438 730 -114.999023438 c 1
 747 -126.999023438 l 1
 708 -182.999023438 666 -208.999023438 603 -208.999023438 c 0
 473 -208.999023438 410 -113.999023438 317 -113.999023438 c 0
 302 -113.999023438 264 -126.999023438 244 -172.999023438 c 1
 205 -152.999023438 l 1
 240.400390625 -101.69921875 311.200195312 -43.099609375 388.5 -8.8994140625 c 1
 231.099609375 3.6005859375 106 123.700195312 106 310 c 0
 106 397.200195312 128.400390625 475.700195312 172.30078125 536 c 0
 227.100585938 611.200195312 310.700195312 658 410 658 c 0
 589 658 729 536 729 329 c 0
397 603.001953125 m 0
 326.900390625 603.001953125 227 523.1015625 227 327.001953125 c 0
 227 142.501953125 339.200195312 45.001953125 436 45.001953125 c 0
 527.5 45.001953125 608 142.801757812 608 310.001953125 c 0
 608 506.001953125 503.5 603.001953125 397 603.001953125 c 0
397 611.001953125 m 0
 509.200195312 611.001953125 616 508.702148438 616 310.001953125 c 0
 616 140.90234375 534.200195312 37.001953125 436 37.001953125 c 0
 333.599609375 37.001953125 219 139.40234375 219 327.001953125 c 0
 219 525.40234375 320.700195312 611.001953125 397 611.001953125 c 0
310.299804688 -24.8984375 m 0
 258.399414062 -58.298828125 213.698242188 -99.8994140625 186.098632812 -139.899414062 c 2
 171.198242188 -161.499023438 l 1
 255.297851562 -204.69921875 l 1
 265.09765625 -182.19921875 l 2
 279.59765625 -148.798828125 308.297851562 -137.098632812 317.09765625 -136.999023438 c 0
 323.59765625 -136.999023438 331.797851562 -137.399414062 343.998046875 -140.19921875 c 0
 406.3984375 -154.499023438 474.798828125 -231.999023438 602.999023438 -231.999023438 c 0
 670.298828125 -231.999023438 721.999023438 -203.298828125 765.899414062 -140.19921875 c 2
 778.899414062 -121.399414062 l 1
 725.69921875 -83.7998046875 l 1
 712.19921875 -100.5 l 2
 696.999023438 -119.200195312 668.19921875 -134 642.999023438 -134 c 0
 582.499023438 -134 520.899414062 -82 424.19921875 -59.2001953125 c 2
 413.499023438 -56.7001953125 l 1
 423.298828125 -51.7001953125 l 2
 431.69921875 -47.400390625 446.099609375 -39.900390625 459.5 -34.5 c 0
 466.799804688 -31.599609375 471.5 -29.099609375 476.799804688 -28.19921875 c 0
 564.299804688 -13.8994140625 638.099609375 31.6005859375 688 102.80078125 c 0
 729.299804688 161.701171875 752 237.500976562 752 329.000976562 c 0
 752 544.30078125 604.5 681.000976562 410 681.000976562 c 0
 306.599609375 681.000976562 214.5 633.000976562 153.700195312 549.500976562 c 0
 108.200195312 487.000976562 83 404.901367188 83 310.000976562 c 0
 83 142.100585938 180.299804688 19.5009765625 317.700195312 -19.69921875 c 1
 314.299804688 -21.9990234375 313.899414062 -22.798828125 310.299804688 -24.8984375 c 0
299.499023438 -22.2998046875 m 1
 167.298828125 22.6005859375 74.9990234375 145.19921875 74.9990234375 309.999023438 c 0
 74.9990234375 406.298828125 100.499023438 490.298828125 147.19921875 554.298828125 c 0
 209.499023438 639.798828125 304.098632812 688.999023438 409.999023438 688.999023438 c 0
 608.69921875 688.999023438 759.999023438 548.499023438 759.999023438 328.999023438 c 0
 759.999023438 236.19921875 736.999023438 158.599609375 694.598632812 98.19921875 c 0
 646.8984375 30.099609375 577.798828125 -14.900390625 496.19921875 -32.6005859375 c 0
 486.19921875 -33.7001953125 471.19921875 -39.1005859375 460.399414062 -43.5009765625 c 0
 451.099609375 -47.30078125 441.799804688 -51.701171875 436.700195312 -54.1015625 c 1
 530.299804688 -78.9013671875 588.799804688 -126.000976562 643 -126.000976562 c 0
 665.299804688 -126.000976562 692.399414062 -112.100585938 705.999023438 -95.400390625 c 2
 724.19921875 -73 l 1
 789.999023438 -119.400390625 l 1
 772.399414062 -144.700195312 l 2
 727.299804688 -209.400390625 673 -240 603 -240 c 0
 471.799804688 -240 400 -161.200195312 342.299804688 -148 c 0
 330.899414062 -145.400390625 322.999023438 -145 317.098632812 -145 c 0
 312.499023438 -145.099609375 285.69921875 -154.899414062 272.399414062 -185.399414062 c 2
 259.299804688 -215.69921875 l 1
 159.399414062 -164.499023438 l 1
 179.499023438 -135.399414062 l 2
 206.598632812 -96.099609375 249.499023438 -55.5 299.499023438 -22.2998046875 c 1
EndSplineSet
Position2: "'cpsp' Capital Spacing lookup 0 subtable" dx=2 dy=0 dh=5 dv=0
EndChar

StartChar: R
Encoding: 82 82 29
Width: 823
GlyphClass: 2
Flags: MW
AnchorPoint: "Anchor-0" 144 850 basechar 0
LayerCount: 2
Fore
SplineSet
304.099609375 296.400390625 m 1
 304.19921875 223.900390625 304.799804688 159.599609375 306.099609375 85 c 0
 307.099609375 27.2998046875 338.099609375 21.5 407.099609375 18 c 1
 413.099609375 12 413.099609375 1 407.099609375 -5 c 1
 357.099609375 -4 319.899414062 0 264.099609375 0 c 0
 213.399414062 0 183.099609375 -4 134.099609375 -5 c 1
 128.099609375 1 128.099609375 12 134.099609375 18 c 1
 204.099609375 21 219.399414062 25.2998046875 221.099609375 109 c 0
 222.799804688 192 223.099609375 238 223.099609375 321 c 0
 223.099609375 404 222.399414062 453 221.099609375 536 c 0
 219.799804688 618.700195312 204.099609375 624 134.099609375 627 c 1
 128.099609375 633 128.099609375 644 134.099609375 650 c 1
 184.099609375 649 212.799804688 645 263.099609375 645 c 0
 303.099609375 645 373.099609375 655 399.099609375 655 c 0
 584.099609375 655 620.099609375 545 620.099609375 486 c 0
 620.099609375 421.900390625 590.5 341.400390625 497.900390625 305.600585938 c 1
 622.5 88.0009765625 l 2
 648.5 44.6005859375 686.5 11.0009765625 731.5 11.0009765625 c 1
 735.5 3.0009765625 736 3.9013671875 732.5 -2.9990234375 c 1
 722.5 -7.9990234375 695.5 -9.9990234375 680.5 -9.9990234375 c 0
 620.5 -9.9990234375 580.200195312 32.4013671875 551.5 79.0009765625 c 2
 444.5 253.000976562 l 2
 430.5 275.80078125 419.599609375 287.000976562 386.099609375 287.000976562 c 0
 352.19921875 287.000976562 325.69921875 289.80078125 304.099609375 296.400390625 c 1
306.100585938 582.999023438 m 0
 304.80078125 499.999023438 304.100585938 404.299804688 304.100585938 321.299804688 c 2
 304.100585938 315.599609375 l 1
 317.600585938 312.899414062 357.400390625 310.999023438 381.100585938 310.999023438 c 0
 478.100585938 310.999023438 533.100585938 359.999023438 533.100585938 467.999023438 c 0
 533.100585938 594.999023438 461.100585938 630.999023438 392.100585938 630.999023438 c 0
 320.100585938 630.999023438 307.30078125 611.798828125 306.100585938 582.999023438 c 0
386.100585938 264 m 0
 396.400390625 264 401.200195312 264.59765625 410.900390625 264.998046875 c 1
 410.900390625 264.998046875 421 247.297851562 424.900390625 240.998046875 c 2
 531.900390625 66.998046875 l 2
 560.100585938 21.09765625 605.000976562 -33.001953125 680.500976562 -33.001953125 c 0
 696.401367188 -33.001953125 728.6015625 -30.2021484375 749.6015625 -20.2021484375 c 1
 759.201171875 0.09765625 758.1015625 7.998046875 745.701171875 33.998046875 c 1
 701.80078125 34.498046875 675.500976562 44.3984375 642.30078125 99.798828125 c 2
 533.900390625 290.19921875 l 1
 529.80078125 296.999023438 l 1
 609.400390625 340.399414062 643.100585938 418.899414062 643.100585938 485.999023438 c 0
 643.100585938 551.499023438 601.200195312 677.999023438 399.100585938 677.999023438 c 0
 372.30078125 677.999023438 304.600585938 667.999023438 263.100585938 667.999023438 c 0
 215.30078125 667.999023438 182.400390625 671.899414062 124.80078125 673.19921875 c 1
 107.100585938 654.899414062 97.900390625 631.899414062 124.200195312 604.399414062 c 1
 173.700195312 600.799804688 197 588.200195312 198.099609375 525.600585938 c 0
 199.399414062 445.80078125 200.099609375 407.100585938 200.099609375 321.000976562 c 0
 200.099609375 239.901367188 199.5 208.801757812 198.099609375 118.801757812 c 0
 196.899414062 52.9013671875 187.799804688 46.4013671875 124.200195312 40.701171875 c 1
 105.799804688 21.6015625 99.099609375 -1.298828125 124.799804688 -28.19921875 c 1
 174.200195312 -27.099609375 208.900390625 -23 264.100585938 -23 c 0
 318.400390625 -23 358 -26.900390625 416.400390625 -28.2001953125 c 1
 434 -10 443.299804688 13 417.099609375 40.5 c 1
 352 43.900390625 329.900390625 51 329.100585938 95.400390625 c 0
 328.100585938 155 327.400390625 200.200195312 327.200195312 263.200195312 c 2
 327.200195312 267.700195312 l 1
 331.700195312 267.100585938 l 2
 344.200195312 265.400390625 361.700195312 264 386.100585938 264 c 0
406.500976562 256.297851562 m 1
 401.100585938 256.09765625 391.705078125 255.998046875 386.10546875 255.998046875 c 0
 363.705078125 255.998046875 346.3046875 257.297851562 335.205078125 258.59765625 c 1
 335.504882812 196.297851562 336.104492188 153.797851562 337.104492188 95.498046875 c 0
 337.8046875 56.998046875 350.604492188 51.8984375 419.004882812 48.3984375 c 2
 420.604492188 48.298828125 l 1
 421.604492188 47.298828125 l 2
 452.504882812 16.3984375 442.504882812 -13.501953125 420.905273438 -35.1015625 c 2
 419.60546875 -36.3017578125 l 1
 417.405273438 -36.3017578125 l 2
 357.905273438 -35.1015625 318.504882812 -31.001953125 264.104492188 -31.001953125 c 0
 208.704101562 -31.001953125 174.904296875 -35.2021484375 123.204101562 -36.3017578125 c 2
 121.50390625 -36.3017578125 l 1
 120.303710938 -35.1015625 l 2
 89.9033203125 -4.701171875 97.603515625 24.9990234375 119.203125 46.9990234375 c 2
 120.603515625 48.3994140625 l 1
 122.103515625 48.4990234375 l 2
 184.603515625 54.0986328125 189.00390625 54.4990234375 190.103515625 118.899414062 c 0
 191.50390625 208.899414062 192.103515625 239.899414062 192.103515625 320.999023438 c 0
 192.103515625 407.098632812 191.403320312 445.698242188 190.103515625 525.498046875 c 0
 189.103515625 584.8984375 170.703125 592.998046875 122.703125 596.3984375 c 2
 120.603515625 596.598632812 l 1
 119.203125 598.098632812 l 2
 88.302734375 629.698242188 99.302734375 658.698242188 119.90234375 679.698242188 c 2
 121.501953125 681.297851562 l 1
 123.202148438 681.198242188 l 2
 181.102539062 679.998046875 215.502929688 675.998046875 263.102539062 675.998046875 c 0
 303.502929688 675.998046875 371.203125 685.998046875 399.103515625 685.998046875 c 0
 605.803710938 685.998046875 651.103515625 554.998046875 651.103515625 485.998046875 c 0
 651.103515625 418.698242188 616.603515625 340.098632812 540.50390625 294.3984375 c 1
 649.103515625 103.8984375 l 2
 682.603515625 48.0986328125 704.403320312 41.9990234375 748.203125 41.9990234375 c 2
 750.703125 41.9990234375 l 1
 751.802734375 39.798828125 l 2
 765.502929688 12.3984375 768.602539062 -0.501953125 756.202148438 -25.001953125 c 2
 755.602539062 -26.1015625 l 1
 754.40234375 -26.701171875 l 2
 732.702148438 -37.6015625 697.801757812 -41.001953125 680.501953125 -41.001953125 c 0
 600.702148438 -41.001953125 553.801757812 16.09765625 525.1015625 62.7978515625 c 2
 418.1015625 236.797851562 l 2
 413.701171875 243.897460938 409.500976562 250.797851562 406.500976562 256.297851562 c 1
337.10546875 582.09765625 m 0
 335.805664062 502.297851562 335.205078125 415.797851562 335.10546875 343.498046875 c 1
 355.60546875 342.198242188 370.805664062 341.998046875 381.10546875 341.998046875 c 0
 466.705078125 341.998046875 502.10546875 377.797851562 502.10546875 467.998046875 c 0
 502.10546875 581.998046875 445.005859375 599.998046875 392.10546875 599.998046875 c 0
 335.705078125 599.998046875 337.405273438 588.498046875 337.10546875 582.09765625 c 0
329.104492188 582.297851562 m 0
 329.704101562 595.397460938 335.405273438 607.99609375 392.10546875 607.99609375 c 0
 447.905273438 607.99609375 510.10546875 586.295898438 510.10546875 467.99609375 c 0
 510.10546875 374.49609375 470.505859375 333.99609375 381.10546875 333.99609375 c 0
 370.10546875 333.99609375 351.405273438 334.396484375 330.805664062 335.796875 c 2
 327.10546875 335.997070312 l 1
 327.10546875 339.796875 l 2
 327.205078125 414.697265625 327.8046875 500.897460938 329.104492188 582.297851562 c 0
EndSplineSet
Position2: "'cpsp' Capital Spacing lookup 0 subtable" dx=2 dy=0 dh=5 dv=0
EndChar

StartChar: S
Encoding: 83 83 30
Width: 679
GlyphClass: 2
Flags: MW
AnchorPoint: "Anchor-0" 336 850 basechar 0
LayerCount: 2
Fore
SplineSet
499.599609375 631 m 1
 510 578 514 549.999023438 517.5 501.999023438 c 1
 508.5 494.999023438 506.400390625 496.19921875 494.900390625 495.999023438 c 1
 474.900390625 561.999023438 434 633.999023438 336.900390625 633.999023438 c 0
 278 633.999023438 225.400390625 567.999023438 225.400390625 511.999023438 c 0
 225.400390625 413.999023438 363 375.798828125 411.900390625 354.999023438 c 0
 484 324.19921875 549 279.19921875 549 183.999023438 c 0
 549 120.399414062 512.5 58.7998046875 455 22.7998046875 c 0
 420.200195312 1.099609375 377.100585938 -10 331.600585938 -10 c 0
 242.900390625 -10 214.900390625 13 151.900390625 13 c 1
 139.900390625 62 136 88 132 165 c 1
 141.599609375 170.099609375 142.19921875 172 154.499023438 168 c 1
 176.598632812 68.5 246.598632812 16 339.999023438 16 c 0
 419.798828125 16 466.999023438 68 466.999023438 149 c 0
 466.999023438 263.799804688 363.399414062 285.599609375 300.399414062 313 c 0
 222.899414062 346.700195312 155.999023438 391.900390625 155.999023438 485 c 0
 155.999023438 591 244.899414062 658 346.299804688 658 c 0
 443.899414062 658 441.799804688 639 499.599609375 631 c 1
547.899414062 486.499023438 m 2
 519.399414062 464.098632812 503.602539062 465.198242188 475.102539062 464.598632812 c 2
 472.102539062 464.499023438 l 1
 471.202148438 467.399414062 l 2
 448.90234375 541.19921875 421.102539062 602.999023438 336.90234375 602.999023438 c 0
 296.802734375 602.999023438 256.40234375 549.499023438 256.40234375 511.999023438 c 0
 256.40234375 442.298828125 368.501953125 407.19921875 424.001953125 383.499023438 c 0
 502.6015625 349.999023438 580.001953125 293.899414062 580.001953125 183.999023438 c 0
 580.001953125 104.798828125 533.801757812 35.4990234375 471.401367188 -3.5009765625 c 0
 428.500976562 -30.30078125 385.500976562 -41.0009765625 331.600585938 -41.0009765625 c 0
 231.400390625 -41.0009765625 203.100585938 -18.0009765625 151.900390625 -18.0009765625 c 2
 127.600585938 -18.0009765625 l 1
 126.80078125 -14.9013671875 l 2
 111.600585938 47.298828125 105.30078125 80.8984375 101.000976562 163.3984375 c 2
 100.000976562 183.098632812 l 1
 102.30078125 184.298828125 l 2
 126.900390625 197.298828125 149.100585938 202.298828125 178.80078125 192.69921875 c 2
 181.000976562 191.999023438 l 1
 181.500976562 189.798828125 l 2
 203.000976562 92.69921875 253.901367188 46.9990234375 340.000976562 46.9990234375 c 0
 405.701171875 46.9990234375 436.000976562 85.19921875 436.000976562 148.999023438 c 0
 436.000976562 240.798828125 356.600585938 254.798828125 288.000976562 284.598632812 c 0
 205.000976562 320.698242188 125.000976562 376.098632812 125.000976562 484.999023438 c 0
 125.000976562 610.999023438 232.600585938 688.999023438 346.30078125 688.999023438 c 0
 465.30078125 688.999023438 460.201171875 667.798828125 523.000976562 659.098632812 c 2
 525.80078125 658.698242188 l 1
 526.400390625 655.8984375 l 2
 539 591.498046875 545.299804688 546.698242188 549.399414062 489.8984375 c 2
 549.599609375 487.798828125 l 1
 547.899414062 486.499023438 l 2
541.302734375 491.499023438 m 1
 537.203125 546.19921875 531.3046875 588.499023438 519.104492188 651.499023438 c 1
 456.904296875 660.798828125 462.404296875 680.999023438 346.3046875 680.999023438 c 0
 235.904296875 680.999023438 133.00390625 605.69921875 133.00390625 484.999023438 c 0
 133.00390625 380.999023438 208.803710938 327.798828125 291.204101562 291.8984375 c 0
 357.204101562 263.198242188 444.00390625 247.3984375 444.00390625 148.998046875 c 0
 444.00390625 81.8984375 410.204101562 38.998046875 340.00390625 38.998046875 c 0
 251.00390625 38.998046875 197.103515625 86.498046875 174.203125 185.797851562 c 1
 148.802734375 193.198242188 130.802734375 189.8984375 108.302734375 178.3984375 c 1
 109.002929688 163.798828125 l 2
 113.203125 82.798828125 118.903320312 51.69921875 133.903320312 -10.0009765625 c 1
 151.903320312 -10.0009765625 l 2
 206.002929688 -10.0009765625 232.903320312 -33.0009765625 331.603515625 -33.0009765625 c 0
 384.403320312 -33.0009765625 424.203125 -23.4013671875 467.203125 3.298828125 c 0
 527.502929688 41.3984375 572.002929688 107.798828125 572.002929688 183.999023438 c 0
 572.002929688 289.298828125 498.602539062 343.098632812 420.90234375 376.198242188 c 0
 368.202148438 398.698242188 248.40234375 434.198242188 248.40234375 511.998046875 c 0
 248.40234375 553.198242188 290.602539062 610.998046875 336.90234375 610.998046875 c 0
 425.302734375 610.998046875 455.502929688 546.198242188 478.002929688 472.598632812 c 1
 503.302734375 473.098632812 515.90234375 472.098632812 541.302734375 491.499023438 c 1
EndSplineSet
Position2: "'cpsp' Capital Spacing lookup 0 subtable" dx=2 dy=0 dh=5 dv=0
EndChar

StartChar: T
Encoding: 84 84 31
Width: 778
GlyphClass: 2
Flags: MW
AnchorPoint: "Anchor-0" 400 850 basechar 0
LayerCount: 2
Fore
SplineSet
358.099609375 536 m 0
 356.399414062 597 348.099609375 616 311.099609375 616 c 2
 252.099609375 616 l 2
 186.099609375 616 140.099609375 580 120.099609375 500 c 1
 108.099609375 500 106.099609375 501 96.099609375 505 c 1
 107.099609375 553 117.099609375 608 121.099609375 653 c 0
 121.099609375 654 123.099609375 656 125.099609375 656 c 0
 163.099609375 653 281.099609375 645 358.099609375 645 c 2
 444.099609375 645 l 2
 523.099609375 645 634.099609375 653 668.099609375 656 c 0
 669.099609375 656 671.099609375 654 671.099609375 653 c 0
 672.099609375 608 677.099609375 554 684.099609375 508 c 1
 675.099609375 504 671.099609375 503 660.099609375 503 c 1
 643.099609375 580 596.099609375 616 521.099609375 616 c 2
 489.099609375 616 l 2
 453.099609375 616 445.099609375 600 443.099609375 536 c 0
 440.399414062 451.299804688 440.099609375 403 440.099609375 320 c 0
 440.099609375 237 441.099609375 191.5 443.099609375 109 c 0
 445.099609375 26 470.099609375 21 540.099609375 18 c 1
 546.099609375 12 546.099609375 1 540.099609375 -5 c 1
 490.099609375 -4 455.299804688 0 401.099609375 0 c 0
 346.5 0 310.099609375 -4 261.099609375 -5 c 1
 255.099609375 1 255.099609375 12 261.099609375 18 c 1
 331.099609375 21 356.099609375 26 358.099609375 109 c 0
 360.099609375 192 361.099609375 238 361.099609375 321 c 0
 361.099609375 404 360.399414062 453.700195312 358.099609375 536 c 0
327.099609375 535.099609375 m 0
 325.399414062 584.19921875 303.501953125 584.998046875 291.1015625 584.998046875 c 2
 252.1015625 584.998046875 l 2
 197.901367188 584.998046875 166.901367188 559.09765625 150.201171875 492.498046875 c 2
 144.30078125 468.998046875 l 1
 141.201171875 468.998046875 l 2
 101.80078125 468.998046875 84.80078125 476.198242188 63.701171875 484.598632812 c 2
 60.0009765625 486.098632812 l 1
 65.9013671875 511.8984375 l 2
 77.5009765625 562.298828125 86.701171875 616.298828125 90.201171875 655.298828125 c 2
 90.6015625 659.69921875 l 2
 92.701171875 659.499023438 94.4013671875 686.999023438 126.201171875 686.999023438 c 2
 126.401367188 686.999023438 l 1
 126.500976562 686.999023438 l 2
 169.30078125 683.598632812 297.900390625 675.999023438 358.100585938 675.999023438 c 2
 444.100585938 675.999023438 l 2
 511.30078125 675.999023438 634.701171875 684.19921875 666.6015625 686.999023438 c 2
 666.801757812 686.999023438 l 1
 667.001953125 686.999023438 l 2
 689.1015625 686.999023438 702.1015625 669.499023438 702.1015625 653.298828125 c 0
 703.301757812 599.69921875 710.702148438 539.298828125 717.90234375 492.298828125 c 2
 718.302734375 489.298828125 l 1
 715.602539062 487.999023438 l 2
 690.202148438 476.69921875 670.202148438 471.999023438 638.501953125 471.999023438 c 2
 635.202148438 471.999023438 l 1
 629.90234375 496.298828125 l 2
 615.001953125 563.8984375 580.6015625 584.998046875 521.1015625 584.998046875 c 0
 473.501953125 584.998046875 475.40234375 578.8984375 474.102539062 534.998046875 c 0
 471.502929688 447.297851562 471.102539062 399.897460938 471.102539062 319.997070312 c 0
 471.102539062 233.897460938 471.202148438 189.09765625 474.102539062 109.797851562 c 0
 476.102539062 54.59765625 483.90234375 51.498046875 551.302734375 48.498046875 c 2
 553.502929688 48.498046875 l 1
 554.602539062 47.3984375 l 2
 585.502929688 16.498046875 575.602539062 -13.40234375 553.90234375 -35.1025390625 c 2
 552.702148438 -36.302734375 l 1
 539.501953125 -36.0029296875 l 2
 484.501953125 -34.9033203125 450.6015625 -31.0029296875 401.1015625 -31.0029296875 c 0
 340.501953125 -31.0029296875 303.1015625 -35.203125 250.301757812 -36.302734375 c 2
 248.6015625 -36.302734375 l 1
 247.401367188 -35.1025390625 l 2
 217.201171875 -4.90234375 224.30078125 24.998046875 246.701171875 47.3984375 c 2
 247.80078125 48.498046875 l 1
 249.30078125 48.498046875 l 2
 314.400390625 50.998046875 325 56.498046875 327.099609375 109.297851562 c 0
 330.19921875 198.698242188 330.099609375 240.598632812 330.099609375 320.999023438 c 0
 330.099609375 407.19921875 329.799804688 456.099609375 327.099609375 535.099609375 c 0
335.102539062 535.3984375 m 0
 337.802734375 456.298828125 338.10546875 407.19921875 338.10546875 320.999023438 c 0
 338.10546875 240.598632812 338.205078125 198.499023438 335.10546875 108.999023438 c 0
 332.905273438 53.0986328125 317.004882812 43.298828125 251.205078125 40.5986328125 c 1
 233.004882812 21.6982421875 226.104492188 -1.3017578125 251.8046875 -28.2021484375 c 1
 302.205078125 -27.1025390625 340.8046875 -23.0029296875 401.104492188 -23.0029296875 c 0
 451.004882812 -23.0029296875 485.104492188 -26.9033203125 539.704101562 -28.0029296875 c 2
 549.50390625 -28.203125 l 1
 567.204101562 -9.9033203125 576.303710938 13.0966796875 550.103515625 40.5966796875 c 1
 482.103515625 43.6962890625 468.203125 50.99609375 466.103515625 109.49609375 c 0
 463.203125 188.896484375 463.103515625 233.99609375 463.103515625 319.99609375 c 0
 463.103515625 399.896484375 463.50390625 447.49609375 466.103515625 535.295898438 c 0
 467.403320312 580.295898438 470.002929688 592.99609375 521.102539062 592.99609375 c 0
 583.40234375 592.99609375 622.102539062 568.896484375 637.702148438 497.99609375 c 2
 641.702148438 479.99609375 l 1
 668.40234375 480.295898438 685.602539062 483.895507812 709.502929688 494.095703125 c 1
 702.502929688 540.595703125 695.302734375 599.795898438 694.102539062 653.295898438 c 0
 694.102539062 664.49609375 684.002929688 680.49609375 667.302734375 678.99609375 c 0
 635.102539062 676.196289062 511.90234375 667.99609375 444.102539062 667.99609375 c 2
 358.102539062 667.99609375 l 2
 297.40234375 667.99609375 169.102539062 675.595703125 125.90234375 678.99609375 c 0
 103.202148438 678.196289062 100.001953125 660.596679688 98.2021484375 654.396484375 c 0
 94.7021484375 615.296875 85.3017578125 560.697265625 73.7021484375 510.09765625 c 2
 69.3017578125 490.998046875 l 1
 88.2021484375 483.498046875 102.001953125 477.498046875 138.1015625 476.998046875 c 1
 142.501953125 494.3984375 l 2
 159.702148438 563.298828125 194.102539062 592.999023438 252.102539062 592.999023438 c 2
 291.102539062 592.999023438 l 2
 306.302734375 592.999023438 333.302734375 588.598632812 335.102539062 535.3984375 c 0
EndSplineSet
Position2: "'cpsp' Capital Spacing lookup 0 subtable" dx=2 dy=0 dh=5 dv=0
EndChar

StartChar: U
Encoding: 85 85 32
Width: 868
GlyphClass: 2
Flags: MW
AnchorPoint: "Anchor-0" 280 850 basechar 0
LayerCount: 2
Fore
SplineSet
275.400390625 269 m 0
 275.400390625 204 279.400390625 123 328.400390625 76 c 0
 358.5 47.099609375 399.400390625 21 447.400390625 21 c 0
 616.400390625 21 636.400390625 165 636.400390625 277 c 2
 636.400390625 536 l 2
 636.400390625 619 619.400390625 620 544.400390625 627 c 1
 538.400390625 633 538.400390625 644 544.400390625 650 c 1
 594.400390625 649 612.100585938 645 655.400390625 645 c 0
 693.30078125 645 703.400390625 649 752.400390625 650 c 1
 758.400390625 644 758.400390625 633 752.400390625 627 c 1
 692.400390625 620 675.400390625 619 675.400390625 536 c 2
 675.400390625 295 l 2
 675.400390625 117 631.400390625 -10 426.400390625 -10 c 0
 336.400390625 -10 194.400390625 32 194.400390625 236 c 0
 194.400390625 269.200195312 195.400390625 278 195.400390625 321 c 0
 195.400390625 404 194.400390625 453 192.400390625 536 c 0
 190.400390625 619 175.400390625 624 105.400390625 627 c 1
 99.400390625 633 99.400390625 644 105.400390625 650 c 1
 155.400390625 649 184.100585938 645 234.400390625 645 c 0
 285.100585938 645 315.400390625 649 364.400390625 650 c 1
 370.400390625 644 370.400390625 633 364.400390625 627 c 1
 294.400390625 624 279.900390625 619 277.400390625 536 c 0
 275.600585938 475.099609375 274.80078125 433.099609375 274.500976562 383 c 0
 274.30078125 352.5 275.400390625 292.099609375 275.400390625 269 c 0
613.400390625 525.400390625 m 2
 613.399414062 277.001953125 l 2
 613.399414062 249.1015625 611.999023438 220.201171875 607.798828125 192.901367188 c 0
 594.999023438 110.301757812 559.598632812 44.001953125 447.3984375 44.001953125 c 0
 407.598632812 44.001953125 372.198242188 65.8017578125 344.297851562 92.6015625 c 0
 304.198242188 131.1015625 298.3984375 203.701171875 298.3984375 269.000976562 c 0
 298.3984375 292.901367188 297.298828125 352.500976562 297.499023438 382.901367188 c 0
 297.798828125 432.901367188 297.3984375 464.500976562 299.198242188 525.401367188 c 0
 301.098632812 602.301757812 314.598632812 601.401367188 374.598632812 603.901367188 c 1
 392.8984375 623.500976562 388.298828125 655.901367188 372.999023438 673.000976562 c 1
 328.399414062 671.901367188 281.19921875 668.000976562 236.19921875 668.000976562 c 0
 187.999023438 668.000976562 135.899414062 672.000976562 96.599609375 673.000976562 c 1
 77.599609375 651.80078125 80.2998046875 619.701171875 95 603.901367188 c 1
 159.299804688 601.201171875 168.599609375 598.6015625 170.399414062 525.401367188 c 0
 172.399414062 442.401367188 172.399414062 403.701171875 172.399414062 321.000976562 c 0
 172.399414062 278.600585938 171.399414062 269.80078125 171.399414062 236.000976562 c 0
 171.399414062 16.4013671875 329.69921875 -32.9990234375 426.399414062 -32.9990234375 c 0
 563.69921875 -32.9990234375 640.19921875 24.30078125 673.798828125 116.600585938 c 0
 692.69921875 168.600585938 698.399414062 228.900390625 698.399414062 295 c 2
 698.19921875 525.400390625 l 2
 700.099609375 602.400390625 713.599609375 601.400390625 773.599609375 603.900390625 c 1
 791.899414062 623.5 787.299804688 655.900390625 772 673 c 1
 726.5 671.799804688 689.400390625 668 655.200195312 668 c 0
 619.900390625 668 579.200195312 672 539.600585938 673 c 1
 520.600585938 651.799804688 523.30078125 619.700195312 538.000976562 603.900390625 c 1
 602.30078125 601.200195312 611.600585938 598.600585938 613.400390625 525.400390625 c 2
605.399414062 525.301757812 m 2
 603.69921875 597.001953125 599.793945312 593.297851562 535.994140625 595.998046875 c 2
 534.494140625 596.09765625 l 1
 533.39453125 597.197265625 l 2
 512.89453125 617.397460938 512.294921875 656.897460938 535.094726562 679.797851562 c 2
 536.294921875 680.998046875 l 1
 537.995117188 680.998046875 l 2
 579.6953125 679.998046875 619.895507812 675.998046875 655.1953125 675.998046875 c 0
 689.095703125 675.998046875 727.795898438 679.8984375 773.595703125 680.998046875 c 2
 775.295898438 680.998046875 l 1
 776.49609375 679.797851562 l 2
 796.196289062 659.998046875 801.596679688 620.297851562 778.196289062 597.198242188 c 2
 777.096679688 596.098632812 l 1
 775.497070312 595.999023438 l 2
 714.497070312 593.399414062 707.997070312 599.799804688 706.197265625 525.299804688 c 2
 706.397460938 295 l 2
 706.397460938 228.400390625 700.697265625 167.200195312 681.296875 113.799804688 c 0
 646.497070312 18.2001953125 566.197265625 -41 426.397460938 -41 c 0
 327.297851562 -41 163.397460938 10.900390625 163.397460938 236 c 0
 163.397460938 270 164.397460938 278.799804688 164.397460938 321 c 0
 164.397460938 403.799804688 164.397460938 442.399414062 162.397460938 525.299804688 c 0
 160.697265625 597 156.796875 593.299804688 92.9970703125 596 c 2
 91.4970703125 596.099609375 l 1
 90.3974609375 597.19921875 l 2
 69.8974609375 617.399414062 69.2978515625 656.899414062 92.09765625 679.799804688 c 2
 93.2978515625 681 l 1
 94.998046875 681 l 2
 136.498046875 680 187.698242188 676 236.198242188 676 c 0
 281.3984375 676 329.498046875 680 374.59765625 681 c 2
 376.297851562 681 l 1
 377.498046875 679.799804688 l 2
 397.198242188 660 402.598632812 620.299804688 379.198242188 597.200195312 c 2
 378.098632812 596.100585938 l 1
 376.499023438 596.000976562 l 2
 315.499023438 593.401367188 308.999023438 599.901367188 307.19921875 525.301757812 c 0
 305.399414062 464.401367188 305.799804688 432.901367188 305.5 382.801757812 c 0
 305.299804688 352.6015625 306.399414062 293.1015625 306.399414062 269.001953125 c 0
 306.399414062 203.702148438 312.899414062 133.801757812 349.799804688 98.4013671875 c 0
 376.899414062 72.4013671875 410.69921875 52.0009765625 447.399414062 52.0009765625 c 0
 554.899414062 52.0009765625 587.299804688 113.201171875 599.899414062 194.1015625 c 0
 604.099609375 220.801757812 605.399414062 249.301757812 605.399414062 277.001953125 c 2
 605.399414062 525.301757812 l 2
EndSplineSet
Position2: "'cpsp' Capital Spacing lookup 0 subtable" dx=2 dy=0 dh=5 dv=0
EndChar

StartChar: V
Encoding: 86 86 33
Width: 877
GlyphClass: 2
Flags: MW
AnchorPoint: "Anchor-0" 274 850 basechar 0
LayerCount: 2
Fore
SplineSet
571.5 627 m 1
 565.5 633 565.5 644 571.5 650 c 1
 618.5 649 657.5 645 680.5 645 c 0
 703.5 645 728.5 649 768.5 650 c 1
 774.5 644 774.5 633 768.5 627 c 1
 702.5 619 679.400390625 568.299804688 660.200195312 521 c 2
 453.5 11 l 2
 447.700195312 -3.2998046875 440.5 -12 429.5 -12 c 0
 419.5 -12 412.5 -4.599609375 406.5 11 c 2
 209 523 l 2
 180.5 596 166.5 622 109.5 627 c 1
 103.5 633 102.5 644 108.5 650 c 1
 155.5 649 172.5 645 212.5 645 c 0
 251.5 645 286.5 649 333.5 650 c 1
 339.5 644 339.5 633 333.5 627 c 1
 265.5 620 263.799804688 593.5 287 534 c 2
 446 127 l 1
 455.900390625 103.299804688 l 1
 466.700195312 127 l 1
 624.5 528 l 2
 645.900390625 582.400390625 645.5 622 571.5 627 c 1
560.700195312 681.200195312 m 2
 611.900390625 680.100585938 662.499023438 676 680.499023438 676 c 0
 702.19921875 676 742.599609375 680.400390625 779.299804688 681.30078125 c 2
 781.099609375 681.30078125 l 1
 782.299804688 680.100585938 l 2
 811.700195312 650.700195312 806.400390625 621 783.900390625 598.5 c 2
 782.900390625 597.5 l 1
 781.5 597.299804688 l 2
 723.400390625 590.299804688 709.30078125 559.599609375 688.900390625 509.399414062 c 2
 482.30078125 -0.6005859375 l 2
 473.500976562 -22.400390625 456.000976562 -43 429.500976562 -43 c 0
 394.500976562 -43 382.401367188 -12.599609375 377.6015625 -0.19921875 c 2
 180.1015625 511.900390625 l 2
 150.501953125 588.5 147.1015625 592.599609375 97.001953125 597 c 2
 95.6015625 597.099609375 l 1
 94.6015625 598.099609375 l 2
 64.201171875 628.5 73.201171875 658.5 94.80078125 680.099609375 c 2
 96.0009765625 681.299804688 l 1
 98.4013671875 681.200195312 l 2
 152.701171875 680 177.000976562 676 212.500976562 676 c 0
 254.500976562 676 297.100585938 680.200195312 344.400390625 681.200195312 c 2
 346.100585938 681.299804688 l 1
 347.30078125 680.099609375 l 2
 376.80078125 650.599609375 371.100585938 620.69921875 348.700195312 598.298828125 c 2
 347.600585938 597.19921875 l 1
 346.000976562 597.099609375 l 2
 332.80078125 596.69921875 324.701171875 595.599609375 319.401367188 593.5 c 0
 305.701171875 588.200195312 304.500976562 574.200195312 320.600585938 533.100585938 c 2
 456.400390625 185.600585938 l 1
 595.700195312 539.400390625 l 2
 601.200195312 553.5 603.700195312 562.5 604.299804688 569.299804688 c 0
 605.799804688 586.599609375 595.5 594.099609375 559.299804688 596.799804688 c 2
 557.799804688 596.899414062 l 1
 556.799804688 597.899414062 l 2
 525.799804688 628.899414062 536.5 658.799804688 557.799804688 680.099609375 c 2
 559 681.299804688 l 1
 560.700195312 681.200195312 l 2
562.19921875 673.19921875 m 1
 544.69921875 654.999023438 535.19921875 632.09765625 561.399414062 604.59765625 c 1
 595.999023438 601.697265625 614.399414062 592.897460938 612.299804688 568.59765625 c 0
 611.599609375 560.498046875 608.69921875 550.698242188 603.099609375 536.3984375 c 2
 456.399414062 163.698242188 l 1
 313.099609375 530.198242188 l 2
 297.69921875 569.698242188 294.999023438 592.498046875 316.598632812 600.8984375 c 0
 323.098632812 603.3984375 330.999023438 604.698242188 344.098632812 605.098632812 c 1
 362.098632812 623.8984375 367.999023438 646.8984375 342.798828125 673.198242188 c 1
 297.798828125 672.098632812 254.298828125 667.999023438 212.499023438 667.999023438 c 0
 176.499023438 667.999023438 152.899414062 671.899414062 99.19921875 673.19921875 c 1
 81.599609375 654.899414062 73.2998046875 631.999023438 99.2001953125 604.798828125 c 1
 150.400390625 600.098632812 158.100585938 590.8984375 187.500976562 514.798828125 c 2
 385.100585938 2.69921875 l 2
 390.000976562 -9.900390625 400.401367188 -35 429.500976562 -35 c 0
 451.201171875 -35 466.6015625 -18 474.901367188 2.400390625 c 2
 681.500976562 512.400390625 l 2
 701.600585938 562 717.200195312 596.799804688 779.200195312 605.099609375 c 1
 797.5 624.19921875 803 646.899414062 777.799804688 673.19921875 c 1
 743.099609375 672.19921875 702.5 667.999023438 680.5 667.999023438 c 0
 661.599609375 667.999023438 614.099609375 671.999023438 562.19921875 673.19921875 c 1
EndSplineSet
Position2: "'cpsp' Capital Spacing lookup 0 subtable" dx=2 dy=0 dh=5 dv=0
EndChar

StartChar: W
Encoding: 87 87 34
Width: 1178
GlyphClass: 2
Flags: MW
AnchorPoint: "Anchor-0" 539 850 basechar 0
LayerCount: 2
Fore
SplineSet
938.099609375 565 m 2
 953 607.700195312 913.099609375 624 872.099609375 627 c 1
 866.099609375 633 866.099609375 644 872.099609375 650 c 1
 912.099609375 649 956.099609375 645 982.099609375 645 c 0
 1008.09960938 645 1032.09960938 649 1069.09960938 650 c 1
 1075.09960938 644 1075.09960938 633 1069.09960938 627 c 1
 1014.09960938 624 985.099609375 588 973.099609375 553 c 2
 776.099609375 11 l 2
 771.099609375 -4 763.099609375 -12 749.099609375 -12 c 0
 736.099609375 -12 724.099609375 -5 718.099609375 12 c 2
 601.099609375 367 l 2
 596.5 380.799804688 591.099609375 395 587.099609375 395 c 0
 582.099609375 395 577.099609375 382 573.099609375 370 c 2
 434.099609375 12 l 2
 429.099609375 -2 420.099609375 -12 406.099609375 -12 c 0
 391.099609375 -12 380.099609375 -4 375.099609375 12 c 2
 193.099609375 556 l 2
 175.099609375 609.700195312 154.099609375 624 109.099609375 627 c 1
 103.099609375 633 103.099609375 644 109.099609375 650 c 1
 149.099609375 649 162.099609375 645 202.099609375 645 c 0
 241.099609375 645 282.099609375 649 315.099609375 650 c 1
 321.099609375 644 321.099609375 633 315.099609375 627 c 1
 280.099609375 625 257.69921875 607.200195312 269.099609375 572 c 2
 419.099609375 111 l 1
 427.299804688 87 l 1
 437.099609375 111 l 1
 563.099609375 442 l 2
 564.69921875 446.200195312 565.099609375 458.200195312 565.099609375 467 c 0
 565.099609375 476 559 496 555.099609375 508 c 2
 540.099609375 554 l 2
 531.69921875 579.900390625 506.099609375 624 453.099609375 627 c 1
 447.099609375 633 447.099609375 644 453.099609375 650 c 1
 493.099609375 649 514.099609375 645 553.099609375 645 c 0
 593.099609375 645 628.099609375 649 675.099609375 650 c 1
 681.099609375 644 681.099609375 633 675.099609375 627 c 1
 641.099609375 624 601.69921875 607.900390625 619.099609375 554 c 2
 763.099609375 109 l 1
 771.099609375 85 l 1
 779.099609375 109 l 1
 938.099609375 565 l 2
908.799804688 575.200195312 m 2
 913.200195312 587.900390625 899.80078125 593.897460938 859.80078125 596.797851562 c 2
 858.30078125 596.897460938 l 1
 857.201171875 597.997070312 l 2
 826.30078125 628.897460938 837.000976562 658.797851562 858.30078125 680.09765625 c 2
 859.500976562 681.297851562 l 1
 861.30078125 681.297851562 l 2
 907.100585938 680.198242188 959.700195312 675.998046875 982.100585938 675.998046875 c 0
 1008.30078125 675.998046875 1044.00097656 680.297851562 1079.80078125 681.297851562 c 2
 1081.60058594 681.297851562 l 1
 1082.80078125 680.09765625 l 2
 1112.90039062 649.998046875 1106.20019531 620.297851562 1083.70019531 597.797851562 c 2
 1082.60058594 596.698242188 l 1
 1081.10058594 596.598632812 l 2
 1030.90039062 593.8984375 1012.5 572.498046875 1002.29980469 542.698242188 c 2
 805.299804688 0.7978515625 l 2
 796.899414062 -24.501953125 776.19921875 -43.001953125 749.099609375 -43.001953125 c 0
 718.099609375 -43.001953125 696.899414062 -21.40234375 688.69921875 1.998046875 c 2
 585.298828125 315.797851562 l 1
 463.298828125 1.6982421875 l 2
 452.8984375 -25.9013671875 432.498046875 -43.0009765625 406.09765625 -43.0009765625 c 0
 372.498046875 -43.0009765625 352.198242188 -18.80078125 345.598632812 2.4990234375 c 2
 163.698242188 546.19921875 l 2
 145.998046875 599.099609375 138.698242188 593.899414062 96.8984375 596.69921875 c 2
 95.3984375 596.798828125 l 1
 94.298828125 597.8984375 l 2
 62.9990234375 629.198242188 74.4990234375 659.297851562 95.298828125 680.09765625 c 2
 96.4990234375 681.297851562 l 1
 98.298828125 681.297851562 l 2
 146.19921875 680.09765625 166.69921875 675.998046875 202.099609375 675.998046875 c 0
 247.899414062 675.998046875 288.499023438 680.198242188 325.798828125 681.297851562 c 2
 327.499023438 681.397460938 l 1
 328.69921875 680.197265625 l 2
 358.798828125 650.09765625 352.19921875 620.297851562 329.69921875 597.797851562 c 2
 328.599609375 596.698242188 l 1
 327.099609375 596.598632812 l 2
 315.5 595.8984375 307.5 595.8984375 302.900390625 594.498046875 c 0
 297 592.698242188 295.700195312 590.098632812 298.5 581.598632812 c 2
 429.599609375 178.698242188 l 1
 533.399414062 451.297851562 l 1
 535.799804688 471.797851562 530.899414062 481.998046875 525.599609375 498.3984375 c 2
 510.599609375 544.3984375 l 2
 501.19921875 573.198242188 479.999023438 594.3984375 440.999023438 596.598632812 c 2
 439.499023438 596.698242188 l 1
 438.399414062 597.797851562 l 2
 407.399414062 628.797851562 417.799804688 658.59765625 439.299804688 680.09765625 c 2
 440.5 681.297851562 l 1
 442.299804688 681.297851562 l 2
 490.299804688 680.09765625 517.599609375 675.998046875 553.099609375 675.998046875 c 0
 596.299804688 675.998046875 638.399414062 680.198242188 685.899414062 681.198242188 c 2
 687.599609375 681.297851562 l 1
 688.799804688 680.09765625 l 2
 718.899414062 649.998046875 711.799804688 619.8984375 690 598.098632812 c 2
 689 597.098632812 l 1
 687.599609375 596.999023438 l 2
 673.899414062 595.798828125 663.999023438 594.999023438 657.399414062 592.899414062 c 0
 646.099609375 589.299804688 642.399414062 582.799804688 648.599609375 563.5 c 2
 771.899414062 182.5 l 1
 908.799804688 575.200195312 l 2
916.30078125 572.59765625 m 2
 771.6015625 157.396484375 l 1
 640.901367188 561.096679688 l 2
 634.000976562 582.296875 638.80078125 595.396484375 655.000976562 600.49609375 c 0
 662.701171875 602.896484375 671.701171875 603.596679688 685.401367188 604.796875 c 1
 703.201171875 623.296875 710.1015625 646.396484375 684.401367188 673.196289062 c 1
 639.1015625 672.096679688 596.201171875 667.997070312 553.1015625 667.997070312 c 0
 517.201171875 667.997070312 491.500976562 671.897460938 443.80078125 673.197265625 c 1
 426.201171875 654.997070312 416.80078125 631.997070312 443.000976562 604.497070312 c 1
 483.901367188 601.296875 508.000976562 578.197265625 518.201171875 546.897460938 c 2
 533.201171875 500.897460938 l 2
 538.401367188 484.797851562 544.1015625 471.698242188 541.301757812 449.797851562 c 2
 541.202148438 449.297851562 l 1
 429.102539062 154.59765625 l 1
 290.90234375 579.09765625 l 2
 287.501953125 589.59765625 289.801757812 598.797851562 300.6015625 602.09765625 c 0
 306.6015625 603.897460938 313.801757812 603.997070312 325.1015625 604.497070312 c 1
 343.401367188 623.596679688 349.901367188 646.497070312 324.301757812 673.296875 c 1
 289.501953125 672.197265625 247.501953125 667.997070312 202.1015625 667.997070312 c 0
 166.201171875 667.997070312 147.30078125 671.897460938 99.80078125 673.197265625 c 1
 82.80078125 655.497070312 72.400390625 632.397460938 98.900390625 604.59765625 c 1
 139.30078125 601.998046875 152.900390625 603.498046875 171.200195312 548.698242188 c 2
 353.200195312 4.8984375 l 2
 359.100585938 -14.1015625 376.80078125 -35.001953125 406.100585938 -35.001953125 c 0
 428.400390625 -35.001953125 446.30078125 -20.90234375 455.80078125 4.498046875 c 2
 585.900390625 339.498046875 l 1
 696.30078125 4.59765625 l 2
 703.701171875 -16.2021484375 722.30078125 -35.001953125 749.100585938 -35.001953125 c 0
 772.100585938 -35.001953125 790.100585938 -19.6015625 797.80078125 3.3984375 c 2
 994.701171875 545.298828125 l 2
 1005.6015625 576.999023438 1025.90136719 600.899414062 1079.1015625 604.499023438 c 1
 1097.40136719 623.598632812 1104.00097656 646.3984375 1078.30078125 673.198242188 c 1
 1044.70117188 672.198242188 1008.6015625 667.998046875 982.1015625 667.998046875 c 0
 958.701171875 667.998046875 909.201171875 671.8984375 862.80078125 673.198242188 c 1
 845.30078125 654.998046875 835.80078125 632.09765625 861.900390625 604.697265625 c 1
 895.30078125 602.09765625 924.600585938 596.297851562 916.30078125 572.59765625 c 2
EndSplineSet
Position2: "'cpsp' Capital Spacing lookup 0 subtable" dx=2 dy=0 dh=5 dv=0
EndChar

StartChar: X
Encoding: 88 88 35
Width: 870
GlyphClass: 2
Flags: MW
AnchorPoint: "Anchor-0" 267 850 basechar 0
LayerCount: 2
Fore
SplineSet
648 102 m 2
 690.400390625 43.7001953125 719 21.0009765625 761 18.0009765625 c 1
 767 12.0009765625 768 1.0009765625 762 -4.9990234375 c 1
 732 -3.9990234375 699 0.0009765625 660 0.0009765625 c 0
 620 0.0009765625 586 -3.9990234375 546 -4.9990234375 c 1
 540 1.0009765625 540 12.0009765625 546 18.0009765625 c 1
 602 21.0009765625 590.799804688 44.9013671875 562.5 85.201171875 c 2
 439 261.000976562 l 2
 431.700195312 271.401367188 426 277.000976562 422 277.000976562 c 0
 419 277.000976562 409.5 268.401367188 402 258.000976562 c 2
 270 73.0009765625 l 2
 245.799804688 39.0009765625 259.700195312 21.0009765625 304 18.0009765625 c 1
 310 12.0009765625 310 1.0009765625 304 -4.9990234375 c 1
 264 -3.9990234375 222 0.0009765625 199 0.0009765625 c 0
 176 0.0009765625 139 -3.9990234375 109 -4.9990234375 c 1
 103 1.0009765625 103 12.0009765625 109 18.0009765625 c 1
 153.700195312 22.30078125 200.700195312 47.1005859375 235 93.0009765625 c 2
 383 291.000976562 l 2
 389.799804688 300.100585938 391 308.000976562 391 314.000976562 c 0
 391 324.000976562 389.299804688 326.500976562 377 344.000976562 c 2
 234.700195312 547.000976562 l 2
 193.5 605.701171875 162 624.000976562 120 627.000976562 c 1
 114 633.000976562 113 644.000976562 119 650.000976562 c 1
 149 649.000976562 182 645.000976562 221 645.000976562 c 0
 261 645.000976562 295 649.000976562 335 650.000976562 c 1
 341 644.000976562 341 633.000976562 335 627.000976562 c 1
 279 624.000976562 290.299804688 599.80078125 318.5 559.80078125 c 2
 429 396.000976562 l 2
 436.700195312 384.500976562 442 379.000976562 445 379.000976562 c 0
 449 379.000976562 455.5 383.401367188 465 397.000976562 c 2
 588 572.000976562 l 2
 611.5 605.401367188 598.299804688 624.000976562 554 627.000976562 c 1
 548 633.000976562 548 644.000976562 554 650.000976562 c 1
 594 649.000976562 636 645.000976562 659 645.000976562 c 0
 682 645.000976562 719 649.000976562 749 650.000976562 c 1
 755 644.000976562 755 633.000976562 749 627.000976562 c 1
 704.299804688 622.701171875 657.700195312 596.901367188 623 552.000976562 c 2
 486 375.000976562 l 2
 474.5 360.100585938 475 355.000976562 475 346.000976562 c 0
 475 338.30078125 485.200195312 325.400390625 495 312 c 2
 648 102 l 2
674.5 118.201171875 m 2
 722.299804688 52.6015625 734.103515625 51.1015625 772.803710938 48.3017578125 c 2
 774.704101562 48.1015625 l 1
 775.803710938 47.001953125 l 2
 806.204101562 16.6015625 797.604492188 -13.1982421875 775.604492188 -35.1982421875 c 2
 774.404296875 -36.3984375 l 1
 772.704101562 -36.3984375 l 2
 732.704101562 -35.0986328125 697.904296875 -30.9990234375 660.00390625 -30.9990234375 c 0
 615.204101562 -30.9990234375 578.00390625 -35.19921875 535.204101562 -36.298828125 c 2
 533.50390625 -36.298828125 l 1
 532.303710938 -35.0986328125 l 2
 502.303710938 -5.0986328125 509.00390625 24.8017578125 531.404296875 47.2021484375 c 2
 532.404296875 48.3017578125 l 1
 534.50390625 48.4013671875 l 2
 543.904296875 49.3017578125 544.8046875 50.2021484375 546.004882812 51.001953125 c 0
 547.405273438 52.001953125 545.504882812 55.501953125 537.104492188 67.40234375 c 2
 421.504882812 232.001953125 l 1
 299.205078125 63.001953125 l 2
 296.3046875 58.90234375 296.3046875 57.501953125 296.205078125 56.6015625 c 0
 295.705078125 52.1015625 304.004882812 49.1015625 316.205078125 48.3017578125 c 2
 317.705078125 48.2021484375 l 1
 318.705078125 47.1025390625 l 2
 349.705078125 16.1025390625 339.004882812 -13.7978515625 317.705078125 -35.09765625 c 2
 316.504882812 -36.2978515625 l 1
 314.8046875 -36.2978515625 l 2
 269.504882812 -35.1982421875 217.905273438 -30.998046875 199.004882812 -30.998046875 c 0
 172.905273438 -30.998046875 128.60546875 -35.3984375 98.3056640625 -36.3984375 c 2
 96.60546875 -36.3984375 l 1
 95.4052734375 -35.1982421875 l 2
 65.705078125 -5.498046875 71.3046875 24.2021484375 93.904296875 46.8017578125 c 2
 95.00390625 47.8017578125 l 1
 96.904296875 48.001953125 l 2
 143.904296875 52.7021484375 179.604492188 71.001953125 210.204101562 111.6015625 c 2
 354.803710938 303.901367188 l 2
 360.303710938 311.201171875 356.00390625 319.901367188 351.603515625 326.201171875 c 2
 209.303710938 529.201171875 l 2
 164.903320312 592.500976562 148.603515625 593.901367188 107.703125 596.801757812 c 2
 106.302734375 596.901367188 l 1
 105.203125 598.000976562 l 2
 74.9033203125 628.30078125 83.4033203125 657.900390625 105.002929688 679.900390625 c 2
 106.602539062 681.400390625 l 1
 108.302734375 681.400390625 l 2
 148.302734375 680.100585938 183.102539062 676.000976562 221.002929688 676.000976562 c 0
 265.802734375 676.000976562 303.002929688 680.201171875 345.802734375 681.30078125 c 2
 347.502929688 681.30078125 l 1
 348.703125 680.100585938 l 2
 378.703125 650.100585938 372.002929688 620.200195312 349.602539062 597.799804688 c 2
 348.40234375 596.599609375 l 1
 346.802734375 596.599609375 l 2
 338.002929688 596.599609375 335.903320312 595.399414062 334.903320312 594.799804688 c 0
 333.703125 594 335.302734375 589.700195312 344.002929688 577.400390625 c 2
 446.802734375 425 l 1
 562.602539062 589.799804688 l 2
 566.202148438 594.899414062 565.301757812 594.799804688 565.301757812 595.099609375 c 0
 562.901367188 596.599609375 550.500976562 596.099609375 541.80078125 596.69921875 c 2
 540.30078125 596.798828125 l 1
 539.201171875 597.8984375 l 2
 508.30078125 628.798828125 518.900390625 658.69921875 540.30078125 680.099609375 c 2
 541.500976562 681.299804688 l 1
 543.201171875 681.299804688 l 2
 588.500976562 680.200195312 640.100585938 676 659.000976562 676 c 0
 685.100585938 676 729.400390625 680.400390625 759.700195312 681.400390625 c 2
 761.400390625 681.400390625 l 1
 762.600585938 680.200195312 l 2
 792.30078125 650.5 786.600585938 620.799804688 764.000976562 598.200195312 c 2
 763.000976562 597.200195312 l 1
 761.600585938 597.100585938 l 2
 715.400390625 592.700195312 679 573.600585938 647.5 533.000976562 c 2
 515.700195312 363.100585938 l 2
 506.400390625 351.100585938 512 341.400390625 520.099609375 330.30078125 c 2
 674.5 118.201171875 l 2
666.00390625 116.30078125 m 2
 513.600585938 325.501953125 l 2
 505.500976562 336.702148438 496.500976562 351.301757812 509.30078125 367.901367188 c 2
 641.201171875 537.901367188 l 2
 673.401367188 579.500976562 711.1015625 599.901367188 759.401367188 604.901367188 c 1
 777.801757812 624.1015625 783.6015625 646.801757812 758.201171875 673.301757812 c 1
 730.1015625 672.301757812 685.201171875 668.001953125 659.000976562 668.001953125 c 0
 639.401367188 668.001953125 590.401367188 672.001953125 544.701171875 673.202148438 c 1
 527.1015625 655.001953125 517.701171875 632.001953125 543.80078125 604.6015625 c 1
 549.80078125 604.301757812 574.000976562 608.301757812 573.30078125 594.702148438 c 0
 573.201171875 592.602539062 572.80078125 590.302734375 569.201171875 585.203125 c 2
 446.701171875 410.903320312 l 1
 337.401367188 572.803710938 l 2
 331.801757812 580.803710938 319.6015625 594.403320312 330.501953125 601.502929688 c 0
 333.301757812 603.302734375 335.801757812 604.302734375 345.1015625 604.602539062 c 1
 363.201171875 623.502929688 369.80078125 646.502929688 344.30078125 673.203125 c 1
 304.000976562 672.103515625 265.600585938 668.00390625 221.000976562 668.00390625 c 0
 183.201171875 668.00390625 149.201171875 671.904296875 109.80078125 673.3046875 c 1
 91.6005859375 654.404296875 84.0009765625 631.704101562 109.80078125 604.704101562 c 1
 150.201171875 601.704101562 171.1015625 597.50390625 215.801757812 533.803710938 c 2
 358.202148438 330.803710938 l 2
 362.702148438 324.303710938 370.40234375 311.403320312 361.202148438 299.103515625 c 2
 216.602539062 106.803710938 l 2
 185.002929688 64.8037109375 147.102539062 45.103515625 98.6025390625 40.103515625 c 1
 80.2021484375 20.9033203125 74.40234375 -1.796875 99.802734375 -28.296875 c 1
 127.90234375 -27.296875 172.802734375 -22.9970703125 199.002929688 -22.9970703125 c 0
 218.602539062 -22.9970703125 267.602539062 -26.9970703125 313.302734375 -28.197265625 c 1
 330.802734375 -9.9970703125 340.40234375 12.802734375 314.102539062 40.40234375 c 1
 306.002929688 41.1025390625 286.502929688 42.802734375 288.302734375 57.6025390625 c 0
 288.602539062 59.7021484375 289.002929688 62.40234375 292.703125 67.6025390625 c 2
 421.603515625 245.802734375 l 1
 543.703125 72.0029296875 l 2
 548.903320312 64.6025390625 561.403320312 51.7021484375 550.502929688 44.40234375 c 0
 547.703125 42.501953125 546.002929688 41.7021484375 536.002929688 40.6025390625 c 1
 517.703125 21.5029296875 511.203125 -1.4970703125 536.703125 -28.197265625 c 1
 577.002929688 -27.09765625 615.403320312 -22.998046875 660.002929688 -22.998046875 c 0
 697.802734375 -22.998046875 731.802734375 -26.8984375 771.203125 -28.298828125 c 1
 789.103515625 -9.69921875 797.103515625 13.1005859375 771.203125 40.30078125 c 1
 731.603515625 43.30078125 714.303710938 50.0009765625 666.00390625 116.30078125 c 2
EndSplineSet
Position2: "'cpsp' Capital Spacing lookup 0 subtable" dx=2 dy=0 dh=5 dv=0
EndChar

StartChar: Y
Encoding: 89 89 36
Width: 813
GlyphClass: 2
Flags: MW
CounterMasks: 1 01c0
AnchorPoint: "Anchor-0" 201 850 basechar 0
LayerCount: 2
Fore
SplineSet
460.400390625 109 m 2
 461.900390625 28 477.400390625 21 557.400390625 18 c 1
 563.400390625 12 563.400390625 1 557.400390625 -5 c 1
 507.400390625 -4 472.600585938 0 418.400390625 0 c 0
 363.80078125 0 327.400390625 -4 278.400390625 -5 c 1
 272.400390625 1 272.400390625 12 278.400390625 18 c 1
 358.400390625 21 373.80078125 28 375.400390625 109 c 2
 378.400390625 259 l 2
 378.400390625 296 371.900390625 296.5 354.400390625 326 c 2
 223 547 l 2
 182.400390625 615.400390625 151.400390625 624 109.400390625 627 c 1
 103.400390625 633 102.400390625 644 108.400390625 650 c 1
 138.400390625 649 181.400390625 645 220.400390625 645 c 0
 260.400390625 645 298.400390625 649 338.400390625 650 c 1
 344.400390625 644 344.400390625 633 338.400390625 627 c 1
 282.400390625 624 268.200195312 618.599609375 292.400390625 576 c 2
 418.600585938 354 l 2
 427.400390625 338 439.400390625 335 448.400390625 352 c 2
 567.400390625 576 l 2
 589.700195312 618.099609375 564.700195312 624 520.400390625 627 c 1
 514.400390625 633 514.400390625 643 520.400390625 649 c 1
 560.400390625 648 588.400390625 645 611.400390625 645 c 0
 634.400390625 645 674.400390625 648 704.400390625 649 c 1
 710.400390625 643 710.400390625 633 704.400390625 627 c 1
 659.700195312 622.700195312 625.600585938 615.700195312 597.600585938 565 c 2
 469.900390625 334 l 2
 463 321.5 457.400390625 307.5 457.400390625 267.700195312 c 2
 460.400390625 109 l 2
491.400390625 119.099609375 m 2
 493.200195312 43.7998046875 502.698242188 51.802734375 568.598632812 48.6025390625 c 2
 570.698242188 48.5029296875 l 1
 571.797851562 47.4033203125 l 2
 602.698242188 16.5029296875 592.8984375 -13.3974609375 571.198242188 -35.09765625 c 2
 569.998046875 -36.2978515625 l 1
 568.297851562 -36.2978515625 l 2
 509.698242188 -35.09765625 470.8984375 -30.998046875 418.3984375 -30.998046875 c 0
 357.798828125 -30.998046875 320.298828125 -35.1982421875 267.499023438 -36.2978515625 c 2
 265.798828125 -36.2978515625 l 1
 264.598632812 -35.09765625 l 2
 234.298828125 -4.7978515625 241.598632812 25.001953125 263.999023438 47.40234375 c 2
 265.098632812 48.501953125 l 1
 266.598632812 48.6015625 l 2
 349.499023438 51.701171875 342.598632812 48.30078125 344.3984375 119.100585938 c 2
 347.3984375 239.000976562 l 2
 347.3984375 277.000976562 346.298828125 279.100585938 327.798828125 310.200195312 c 2
 196.3984375 531.200195312 l 2
 155.098632812 600.700195312 140.698242188 593.799804688 97.5986328125 596.799804688 c 2
 95.5986328125 596.899414062 l 1
 94.5986328125 597.999023438 l 2
 65.3984375 627.19921875 71.798828125 656.69921875 94.3984375 679.798828125 c 2
 95.998046875 681.3984375 l 1
 97.6982421875 681.3984375 l 2
 137.498046875 680.098632812 181.8984375 675.999023438 220.3984375 675.999023438 c 0
 265.598632812 675.999023438 306.3984375 680.19921875 349.198242188 681.298828125 c 2
 350.8984375 681.298828125 l 1
 352.098632812 680.098632812 l 2
 382.598632812 649.598632812 374.798828125 619.598632812 352.999023438 597.798828125 c 2
 351.69921875 596.499023438 l 1
 339.69921875 596.999023438 l 2
 330.099609375 597.399414062 327.19921875 596.099609375 325.298828125 595.099609375 c 0
 318.999023438 591.799804688 323.098632812 582.599609375 328.198242188 573.69921875 c 2
 433.598632812 390.19921875 l 1
 533.198242188 577.19921875 l 2
 536.098632812 582.599609375 536.698242188 585.299804688 536.8984375 587.200195312 c 0
 537.298828125 591.5 533.8984375 595.099609375 518.298828125 596.099609375 c 2
 506.69921875 596.799804688 l 1
 505.599609375 597.899414062 l 2
 474.799804688 628.69921875 485.799804688 658.19921875 506.700195312 679.099609375 c 2
 507.900390625 680.299804688 l 1
 509.600585938 680.299804688 l 2
 553.500976562 679.200195312 593.600585938 676 611.400390625 676 c 0
 638.80078125 676 685.30078125 679.400390625 715.100585938 680.400390625 c 2
 716.80078125 680.400390625 l 1
 718.000976562 679.200195312 l 2
 747.500976562 649.700195312 741.600585938 620.400390625 719.400390625 598.200195312 c 2
 718.400390625 597.200195312 l 1
 707.30078125 596.100585938 l 2
 661.30078125 591.700195312 645.600585938 587.799804688 624.700195312 550 c 2
 497 319 l 2
 494 313.599609375 488.400390625 282.19921875 488.400390625 247.69921875 c 2
 491.400390625 119.099609375 l 2
483.3984375 118.90234375 m 2
 480.396484375 247.599609375 l 2
 480.396484375 283.19921875 485.196289062 314.19921875 489.99609375 322.899414062 c 2
 617.696289062 553.899414062 l 2
 639.896484375 594.099609375 660.196289062 599.69921875 706.596679688 604.099609375 c 2
 714.796875 604.899414062 l 1
 732.796875 623.69921875 738.697265625 645.999023438 713.59765625 672.298828125 c 1
 685.998046875 671.298828125 638.498046875 667.999023438 611.3984375 667.999023438 c 0
 592.798828125 667.999023438 555.598632812 670.999023438 511.098632812 672.19921875 c 1
 493.999023438 654.399414062 484.19921875 631.899414062 510.19921875 604.599609375 c 1
 518.899414062 604.099609375 l 2
 533.899414062 603.099609375 545.799804688 598.799804688 544.799804688 586.5 c 0
 544.5 583.200195312 543.400390625 579.400390625 540.30078125 573.5 c 2
 433.900390625 373.700195312 l 1
 321.200195312 569.700195312 l 2
 317.700195312 575.900390625 306.100585938 594.30078125 321.600585938 602.30078125 c 0
 324.900390625 604.000976562 329.400390625 605.500976562 340 605.000976562 c 2
 348.599609375 604.701171875 l 1
 366.599609375 623.80078125 373.399414062 646.30078125 347.69921875 673.201171875 c 1
 307.298828125 672.1015625 265.3984375 668.001953125 220.3984375 668.001953125 c 0
 181.3984375 668.001953125 138.8984375 671.90234375 99.1982421875 673.302734375 c 1
 80.0986328125 653.40234375 74.3984375 630.602539062 99.1982421875 604.702148438 c 1
 141.498046875 601.801757812 161.3984375 605.801757812 203.298828125 535.202148438 c 2
 334.598632812 314.202148438 l 2
 353.198242188 283.001953125 355.3984375 277.501953125 355.3984375 239.001953125 c 2
 352.3984375 118.90234375 l 2
 350.598632812 47.302734375 351.999023438 43.703125 268.499023438 40.603515625 c 1
 250.298828125 21.603515625 243.298828125 -1.296875 269.098632812 -28.197265625 c 1
 319.499023438 -27.09765625 358.098632812 -22.998046875 418.3984375 -22.998046875 c 0
 470.8984375 -22.998046875 508.498046875 -26.8984375 566.698242188 -28.1982421875 c 1
 584.3984375 -9.7978515625 593.3984375 13.1025390625 567.198242188 40.6025390625 c 1
 501.797851562 43.7021484375 485.198242188 40.40234375 483.3984375 118.90234375 c 2
EndSplineSet
Position2: "'cpsp' Capital Spacing lookup 0 subtable" dx=2 dy=0 dh=5 dv=0
EndChar

StartChar: Z
Encoding: 90 90 37
Width: 748
GlyphClass: 2
Flags: MW
AnchorPoint: "Anchor-0" 194 850 basechar 0
LayerCount: 2
Fore
SplineSet
610 -5 m 1
 610 -5 510.299804688 0 483.299804688 0 c 2
 125 0 l 2
 111 0 106 5 106 15 c 0
 106 22 108 30 114 38 c 0
 216 190 406 456 503 579 c 0
 508 586 519 601.700195312 519 608 c 0
 519 614 512 616.299804688 495 616 c 2
 274 612 l 2
 199 610.599609375 161 565 140 496 c 1
 129 496 130 498 120 501 c 1
 128 542 138 602 142 656 c 1
 179 653 276 645 323 645 c 2
 544 645 l 2
 574 645 605 647 617 647 c 0
 625 647 630 643 630 636 c 0
 630 625 627.099609375 618.200195312 606 591 c 0
 488 439 304 178 231 72 c 0
 226 63 223 57 223 52 c 0
 223 43 231 27.7001953125 248 28 c 2
 451 32 l 2
 560 34 585 101 616 170 c 1
 629 170 630 167 637 165 c 1
 625 113 615 51 610 -5 c 1
483.299804688 -31 m 2
 125.000976562 -30.9990234375 l 2
 93.30078125 -30.9990234375 75.0009765625 -6.298828125 75.0009765625 15.0009765625 c 0
 75.0009765625 33.0009765625 82.6005859375 47.30078125 88.80078125 56.1005859375 c 0
 189.600585938 206.30078125 370.400390625 459.100585938 467.900390625 584.500976562 c 1
 274.600585938 581.000976562 l 2
 204.400390625 579.701171875 184.100585938 534.500976562 163.80078125 467.80078125 c 2
 163.000976562 465.000976562 l 1
 160.000976562 465.000976562 l 2
 120.100585938 465.000976562 107.700195312 472.201171875 88.1005859375 478.201171875 c 2
 84.2001953125 479.401367188 l 1
 84.900390625 482.901367188 l 2
 96.80078125 544.1015625 108.000976562 616.1015625 113.100585938 685.401367188 c 2
 113.400390625 689.401367188 l 1
 117.400390625 689.1015625 l 2
 169.80078125 684.901367188 267.80078125 676.000976562 323.000976562 676.000976562 c 2
 544.000976562 676.000976562 l 2
 578.500976562 676.000976562 603.600585938 678.000976562 617.000976562 678.000976562 c 0
 645.500976562 678.000976562 661.000976562 654.201171875 661.000976562 636.000976562 c 0
 661.000976562 611.600585938 648.000976562 594.600585938 630.500976562 572.000976562 c 0
 512.600585938 420.100585938 332.600585938 164.500976562 259.900390625 59.201171875 c 1
 450.400390625 63.0009765625 l 2
 549.5 64.80078125 562 125.400390625 594.900390625 198.600585938 c 2
 595.900390625 201.000976562 l 1
 598.5 201.000976562 l 2
 637.400390625 201.000976562 648.400390625 194.000976562 670.200195312 187.80078125 c 2
 673.799804688 186.701171875 l 1
 673 183.000976562 l 2
 659.099609375 122.80078125 646.299804688 51.900390625 640.899414062 -7.2998046875 c 2
 638.19921875 -37.5 l 1
 634.399414062 -37.2998046875 l 2
 609.099609375 -36 527.799804688 -31 483.299804688 -31 c 2
483.30078125 -22.9990234375 m 2
 525.900390625 -22.9990234375 600.500976562 -27.4970703125 630.901367188 -29.0966796875 c 1
 633.000976562 -6.4970703125 l 2
 638.30078125 52.0029296875 650.30078125 119.602539062 664.30078125 181.102539062 c 1
 645.80078125 186.702148438 635.400390625 192.602539062 601.100585938 193.002929688 c 1
 570.000976562 123.203125 554.100585938 56.9033203125 450.600585938 55.0029296875 c 2
 245.700195312 51.0029296875 l 1
 250.600585938 59.9033203125 l 1
 250.700195312 60.0029296875 l 1
 322.200195312 163.802734375 504.600585938 422.90234375 624.200195312 576.90234375 c 0
 641.900390625 599.702148438 653 614.90234375 653 636.001953125 c 0
 653 650.301757812 640.400390625 670.001953125 617 670.001953125 c 0
 604.200195312 670.001953125 578.900390625 668.001953125 544 668.001953125 c 2
 323 668.001953125 l 2
 268.099609375 668.001953125 175.799804688 676.301757812 120.799804688 680.801757812 c 1
 115.700195312 614.901367188 105.200195312 546.301757812 93.400390625 484.901367188 c 1
 110.600585938 479.500976562 122.400390625 473.401367188 157.100585938 473.000976562 c 1
 176.900390625 537.100585938 199.600585938 587.600585938 274.400390625 589.000976562 c 2
 484.600585938 592.80078125 l 1
 479.400390625 586.201171875 l 2
 382.80078125 462.80078125 198.000976562 204.500976562 95.4013671875 51.6005859375 c 0
 89.701171875 43.6005859375 83.0009765625 30.6005859375 83.0009765625 15.0009765625 c 0
 83.0009765625 -1.9990234375 97.9013671875 -22.9990234375 125.000976562 -22.9990234375 c 2
 483.30078125 -22.9990234375 l 2
EndSplineSet
Position2: "'cpsp' Capital Spacing lookup 0 subtable" dx=2 dy=0 dh=5 dv=0
EndChar

StartChar: Adieresis
Encoding: 196 196 38
Width: 1000
GlyphClass: 2
Flags: MW
AnchorPoint: "Anchor-0" 362 894 basechar 0
LayerCount: 2
Fore
SplineSet
264 706 m 0
 264 732 286 754 312 754 c 0
 338 754 360 732 360 706 c 0
 360 680 338 658 312 658 c 0
 286 658 264 680 264 706 c 0
673 706 m 0
 673 732 695 754 721 754 c 0
 747 754 769 732 769 706 c 0
 769 680 747 658 721 658 c 0
 695 658 673 680 673 706 c 0
233 706 m 0
 233 754.599609375 273.900390625 785 312 785 c 0
 360.599609375 785 391 744.099609375 391 706 c 0
 391 657.400390625 350.099609375 627 312 627 c 0
 263.400390625 627 233 667.900390625 233 706 c 0
241 706 m 0
 241 671.799804688 268.400390625 635 312 635 c 0
 346.200195312 635 383 662.400390625 383 706 c 0
 383 740.200195312 355.599609375 777 312 777 c 0
 277.799804688 777 241 749.599609375 241 706 c 0
642 706 m 0
 642 754.599609375 682.900390625 785 721 785 c 0
 769.599609375 785 800 744.099609375 800 706 c 0
 800 657.400390625 759.099609375 627 721 627 c 0
 672.400390625 627 642 667.900390625 642 706 c 0
650 706 m 0
 650 671.799804688 677.400390625 635 721 635 c 0
 755.200195312 635 792 662.400390625 792 706 c 0
 792 740.200195312 764.599609375 777 721 777 c 0
 686.799804688 777 650 749.599609375 650 706 c 0
415.900390625 278 m 2
 594.900390625 278 l 1
 498.900390625 555 l 1
 495.900390625 555 l 1
 390.700195312 296.299804688 l 2
 386.600585938 286.099609375 393.900390625 278 415.900390625 278 c 2
302.900390625 69 m 2
 286.700195312 27.2998046875 334.301757812 20.599609375 371.901367188 18 c 1
 377.901367188 12 377.901367188 1 371.901367188 -5 c 1
 334.901367188 -4 304.901367188 0 263.901367188 0 c 0
 224.901367188 0 201.901367188 -4 164.901367188 -5 c 1
 158.901367188 1 158.901367188 12 164.901367188 18 c 1
 208.401367188 21 239.000976562 31.2998046875 264.80078125 92 c 2
 496.900390625 638 l 1
 509.900390625 638 520.900390625 649 535.900390625 658 c 1
 744.900390625 76 l 2
 762.900390625 25 796.100585938 21.5 834.900390625 18 c 1
 840.900390625 12 840.900390625 1 834.900390625 -5 c 1
 797.900390625 -4 767.900390625 0 726.900390625 0 c 0
 687.900390625 0 632.900390625 -4 595.900390625 -5 c 1
 589.900390625 1 589.900390625 12 595.900390625 18 c 1
 643.5 21.400390625 684 21 669.900390625 62 c 2
 606.400390625 246 l 1
 397.900390625 246 l 2
 373.900390625 246 367.900390625 237 362.900390625 224 c 2
 302.900390625 69 l 2
429.302734375 309 m 1
 551.302734375 309 l 1
 495.203125 471 l 1
 429.302734375 309 l 1
562.502929688 301 m 1
 417.403320312 301 l 1
 495.703125 493.700195312 l 1
 562.502929688 301 l 1
341.903320312 83.2001953125 m 2
 337.903320312 72.900390625 336.904296875 67.798828125 336.604492188 63.9990234375 c 0
 335.504882812 49.8994140625 348.8046875 50.599609375 384.104492188 48.19921875 c 2
 385.604492188 48.099609375 l 1
 386.604492188 47.099609375 l 2
 418.004882812 15.69921875 406.3046875 -14.400390625 385.604492188 -35.1005859375 c 2
 384.3046875 -36.30078125 l 1
 382.604492188 -36.30078125 l 2
 336.404296875 -35.1005859375 303.204101562 -31.0009765625 263.904296875 -31.0009765625 c 0
 221.00390625 -31.0009765625 194.00390625 -35.201171875 154.603515625 -36.30078125 c 2
 152.403320312 -36.30078125 l 1
 151.103515625 -35.1005859375 l 2
 120.803710938 -4.80078125 128.303710938 25.298828125 150.103515625 47.0986328125 c 2
 151.103515625 48.0986328125 l 1
 153.103515625 48.298828125 l 2
 201.50390625 51.5986328125 214.103515625 51.8984375 236.303710938 104.098632812 c 2
 476.303710938 668.999023438 l 1
 495.704101562 668.999023438 l 1
 506.803710938 673.499023438 537.50390625 695.19921875 548.103515625 701.499023438 c 2
 552.303710938 703.999023438 l 1
 774.103515625 86.3994140625 l 2
 788.103515625 46.7998046875 805.803710938 51.7998046875 847.403320312 48 c 2
 848.803710938 47.900390625 l 1
 849.903320312 46.80078125 l 2
 880.903320312 15.80078125 869.603515625 -14.099609375 848.603515625 -35.099609375 c 2
 847.303710938 -36.2998046875 l 1
 845.103515625 -36.2998046875 l 2
 798.103515625 -35 766.303710938 -31 726.903320312 -31 c 0
 681.303710938 -31 624.803710938 -35.2001953125 585.103515625 -36.2998046875 c 2
 583.403320312 -36.2998046875 l 1
 582.103515625 -35.099609375 l 2
 552.203125 -5.19921875 558.703125 22.6005859375 581.103515625 45.0009765625 c 2
 582.103515625 46.1005859375 l 1
 583.603515625 46.2001953125 l 2
 601.103515625 47.2001953125 610.703125 48.900390625 617.203125 51.1005859375 c 0
 633.703125 56.80078125 632.802734375 67.30078125 623.102539062 95.400390625 c 2
 584.202148438 215 l 1
 397.90234375 215 l 2
 388.102539062 215 393.002929688 215 392.502929688 214.900390625 c 0
 392.403320312 214.5 392.103515625 213.599609375 391.803710938 212.799804688 c 2
 341.903320312 83.2001953125 l 2
334.50390625 86.0986328125 m 2
 384.30859375 215.697265625 l 2
 385.408203125 218.497070312 385.608398438 222.997070312 397.908203125 222.997070312 c 2
 590.0078125 222.997070312 l 1
 630.607421875 97.8974609375 l 2
 639.907226562 70.8974609375 643.506835938 51.59765625 619.806640625 43.498046875 c 0
 612.106445312 40.8984375 604.40625 39.498046875 585.706054688 38.2978515625 c 1
 567.40625 19.2978515625 561.106445312 -1.7021484375 586.606445312 -28.3017578125 c 1
 623.90625 -27.2021484375 681.706054688 -23.001953125 726.90625 -23.001953125 c 0
 766.40625 -23.001953125 798.306640625 -27.001953125 844.106445312 -28.3017578125 c 1
 861.40625 -10.4013671875 871.505859375 12.5986328125 845.206054688 40.1982421875 c 1
 806.606445312 43.498046875 781.90625 39.998046875 766.505859375 83.6982421875 c 2
 548.10546875 692.098632812 l 1
 536.005859375 684.3984375 508.805664062 664.998046875 497.805664062 661.198242188 c 2
 497.10546875 660.998046875 l 1
 481.60546875 660.998046875 l 1
 243.705078125 100.998046875 l 2
 220.8046875 46.998046875 203.004882812 43.6982421875 154.705078125 40.3984375 c 1
 137.004882812 21.8984375 129.8046875 -1.3017578125 155.604492188 -28.3017578125 c 1
 193.704101562 -27.2021484375 220.704101562 -23.001953125 263.904296875 -23.001953125 c 0
 303.404296875 -23.001953125 335.3046875 -27.001953125 381.104492188 -28.3017578125 c 1
 398.704101562 -9.7021484375 408.303710938 12.7978515625 382.00390625 40.3974609375 c 1
 352.704101562 42.3974609375 326.803710938 40.697265625 328.603515625 64.59765625 c 0
 329.00390625 69.498046875 330.404296875 75.3984375 334.50390625 86.0986328125 c 2
EndSplineSet
Position2: "'cpsp' Capital Spacing lookup 0 subtable" dx=2 dy=0 dh=5 dv=0
EndChar

